<svg width="603" height="73" viewBox="0 0 603 73" fill="none" xmlns="http://www.w3.org/2000/svg">
<path d="M44.233 29.6406V31.6406H46.1558L46.2314 29.7192L44.233 29.6406ZM35.0284 29.6406L33.0289 29.5941L32.9814 31.6406H35.0284V29.6406ZM34.5597 26.402L32.6768 27.0764L32.6801 27.0855L34.5597 26.402ZM33.0256 23.973L31.6114 25.3872L31.6188 25.3947L31.6263 25.402L33.0256 23.973ZM30.5753 22.4602L29.8852 24.3374L29.8974 24.3419L29.9096 24.3462L30.5753 22.4602ZM20.902 23.6747L21.9291 25.3908L21.9291 25.3908L20.902 23.6747ZM15.9801 28.7457L17.6902 29.7828L17.6932 29.778L15.9801 28.7457ZM13.2102 36.7358L15.1835 37.0616L15.184 37.0588L13.2102 36.7358ZM13.2955 44.2997L15.225 43.7735L15.225 43.7735L13.2955 44.2997ZM16.2358 48.902L15.0488 50.5117L15.058 50.5184L15.0672 50.5251L16.2358 48.902ZM25.2699 49.946L25.804 51.8734L25.8147 51.8704L25.8254 51.8673L25.2699 49.946ZM28.4872 48.4972L29.5737 50.1763L29.5798 50.1724L28.4872 48.4972ZM31.044 46.1747L29.4918 44.9135L29.4858 44.9209L29.4799 44.9283L31.044 46.1747ZM32.7699 43.0852V41.0852H31.3616L30.8869 42.4111L32.7699 43.0852ZM42.0384 43.0852L43.9588 43.6437L44.7028 41.0852H42.0384V43.0852ZM39.3111 48.8807L37.645 47.7742L37.6392 47.7831L39.3111 48.8807ZM34.7727 53.8665L36.0251 55.4258L36.0325 55.4198L34.7727 53.8665ZM28.6151 57.3182L27.9204 55.4427L27.9204 55.4427L28.6151 57.3182ZM10.8452 55.8693L9.76323 57.5514L9.76706 57.5539L10.8452 55.8693ZM4.73011 48.0071L2.85144 48.6931L2.85144 48.6931L4.73011 48.0071ZM4.02699 35.6278L2.05434 35.2981L2.05265 35.3085L4.02699 35.6278ZM8.60795 23.7386L6.96949 22.5917L6.96848 22.5932L8.60795 23.7386ZM16.9389 16.3026L16.023 14.5246L16.0199 14.5262L16.9389 16.3026ZM39.8864 17.9432L38.5298 19.4128L38.5371 19.4196L38.5445 19.4263L39.8864 17.9432ZM43.2528 22.9077L41.3858 23.6247L41.3858 23.6247L43.2528 22.9077ZM44.233 27.6406H35.0284V31.6406H44.233V27.6406ZM37.0279 29.6871C37.0608 28.2711 36.8819 26.9358 36.4392 25.7185L32.6801 27.0855C32.9192 27.7432 33.0528 28.567 33.0289 29.5941L37.0279 29.6871ZM36.4425 25.7275C36.0058 24.5083 35.3356 23.4358 34.4248 22.544L31.6263 25.402C32.0792 25.8454 32.4317 26.3923 32.6768 27.0764L36.4425 25.7275ZM34.4398 22.5588C33.5435 21.6625 32.4642 21.006 31.2409 20.5742L29.9096 24.3462C30.6182 24.5963 31.1724 24.9483 31.6114 25.3872L34.4398 22.5588ZM31.2654 20.5831C30.0439 20.134 28.7183 19.9276 27.3153 19.9276V23.9276C28.3272 23.9276 29.1749 24.0763 29.8852 24.3374L31.2654 20.5831ZM27.3153 19.9276C24.6343 19.9276 22.14 20.6028 19.8748 21.9586L21.9291 25.3908C23.556 24.417 25.3372 23.9276 27.3153 23.9276V19.9276ZM19.8748 21.9586C17.6102 23.3141 15.7474 25.2568 14.2671 27.7135L17.6932 29.778C18.8833 27.8029 20.3017 26.3649 21.9291 25.3908L19.8748 21.9586ZM14.27 27.7086C12.7753 30.1733 11.78 33.0914 11.2365 36.4128L15.184 37.0588C15.6632 34.1302 16.5145 31.7216 17.6902 29.7828L14.27 27.7086ZM11.2369 36.41C10.7124 39.5875 10.7101 42.4214 11.3659 44.826L15.225 43.7735C14.7728 42.1155 14.7138 39.9068 15.1835 37.0616L11.2369 36.41ZM11.3659 44.8259C12.0133 47.1996 13.2101 49.1559 15.0488 50.5117L17.4227 47.2923C16.4489 46.5742 15.6856 45.4624 15.225 43.7735L11.3659 44.8259ZM15.0672 50.5251C16.8941 51.8405 19.0949 52.4361 21.5412 52.4361V48.4361C19.7546 48.4361 18.4184 48.009 17.4044 47.2789L15.0672 50.5251ZM21.5412 52.4361C23.0162 52.4361 24.4396 52.2515 25.804 51.8734L24.7358 48.0187C23.7422 48.294 22.6798 48.4361 21.5412 48.4361V52.4361ZM25.8254 51.8673C27.1798 51.4757 28.433 50.9144 29.5737 50.1763L27.4007 46.818C26.6096 47.3299 25.718 47.7345 24.7143 48.0247L25.8254 51.8673ZM29.5798 50.1724C30.7378 49.4172 31.7496 48.4986 32.6082 47.4211L29.4799 44.9283C28.8896 45.669 28.1969 46.2988 27.3947 46.8219L29.5798 50.1724ZM32.5963 47.4359C33.4837 46.3437 34.168 45.1136 34.6528 43.7594L30.8869 42.4111C30.5479 43.358 30.0817 44.1875 29.4918 44.9135L32.5963 47.4359ZM32.7699 45.0852H42.0384V41.0852H32.7699V45.0852ZM40.1179 42.5268C39.5959 44.3218 38.7767 46.0702 37.645 47.7742L40.9771 49.9871C42.317 47.9696 43.316 45.8543 43.9588 43.6437L40.1179 42.5268ZM37.6392 47.7831C36.5355 49.4643 35.1639 50.9742 33.5129 52.3131L36.0325 55.4198C37.9895 53.8327 39.6435 52.0187 40.983 49.9783L37.6392 47.7831ZM33.5203 52.3071C31.894 53.6134 30.0321 54.6606 27.9204 55.4427L29.3097 59.1937C31.8003 58.2712 34.0435 57.0173 36.0251 55.4258L33.5203 52.3071ZM27.9204 55.4427C25.8661 56.2035 23.5831 56.5966 21.0511 56.5966V60.5966C24.0021 60.5966 26.7617 60.1374 29.3097 59.1937L27.9204 55.4427ZM21.0511 56.5966C17.4022 56.5966 14.3895 55.7631 11.9233 54.1848L9.76706 57.5539C12.9827 59.6119 16.774 60.5966 21.0511 60.5966V56.5966ZM11.9271 54.1872C9.49914 52.6255 7.72245 50.371 6.60879 47.3211L2.85144 48.6931C4.23778 52.4898 6.53779 55.4767 9.76323 57.5514L11.9271 54.1872ZM6.60879 47.3211C5.50955 44.3107 5.25671 40.5503 6.00132 35.9472L2.05265 35.3085C1.23476 40.3645 1.45068 44.8569 2.85144 48.6931L6.60879 47.3211ZM5.99961 35.9576C6.74123 31.5214 8.17489 27.8504 10.2474 24.8841L6.96848 22.5932C4.49556 26.1325 2.87524 30.3877 2.05436 35.2981L5.99961 35.9576ZM10.2464 24.8856C12.3639 21.8606 14.9018 19.6084 17.858 18.0789L16.0199 14.5262C12.4419 16.3774 9.42587 19.0826 6.96949 22.5917L10.2464 24.8856ZM17.8548 18.0805C20.8493 16.5379 24.0433 15.767 27.4645 15.767V11.767C23.4141 11.767 19.5911 12.6865 16.023 14.5246L17.8548 18.0805ZM27.4645 15.767C29.8827 15.767 32.0128 16.0974 33.8769 16.7272L35.1572 12.9376C32.8168 12.1469 30.2452 11.767 27.4645 11.767V15.767ZM33.8769 16.7272C35.741 17.3569 37.2794 18.2585 38.5298 19.4128L41.2429 16.4736C39.5388 14.9006 37.4977 13.7283 35.1572 12.9376L33.8769 16.7272ZM38.5445 19.4263C39.7929 20.5557 40.7404 21.9442 41.3858 23.6247L45.1199 22.1906C44.2596 19.9507 42.9628 18.0295 41.2282 16.4601L38.5445 19.4263ZM41.3858 23.6247C42.0235 25.285 42.3254 27.2505 42.2345 29.562L46.2314 29.7192C46.3394 26.9739 45.9879 24.4508 45.1199 22.1906L41.3858 23.6247ZM72.5817 58L70.8574 59.0133L71.4372 60H72.5817V58ZM61.6513 39.3991L63.3756 38.3859L62.7958 37.3991H61.6513V39.3991ZM58.4979 39.3991V37.3991H56.8027L56.5249 39.0714L58.4979 39.3991ZM55.4084 58V60H57.1036L57.3814 58.3277L55.4084 58ZM46.1825 58L44.2095 57.6725L43.8231 60H46.1825V58ZM53.4268 14.3636V12.3636H51.7315L51.4539 14.0361L53.4268 14.3636ZM62.6527 14.3636L64.6256 14.6917L65.0127 12.3636H62.6527V14.3636ZM59.755 31.7926L57.7821 31.4646L57.395 33.7926H59.755V31.7926ZM61.6087 31.7926V33.7926H62.4385L63.0246 33.2051L61.6087 31.7926ZM78.995 14.3636V12.3636H78.1652L77.5791 12.9512L78.995 14.3636ZM90.4794 14.3636L91.8892 15.7823L95.3294 12.3636H90.4794V14.3636ZM70.1101 34.6051L68.7003 33.1865L67.5935 34.2863L68.3911 35.6274L70.1101 34.6051ZM84.0234 58V60H87.5398L85.7424 56.9777L84.0234 58ZM74.306 56.9867L63.3756 38.3859L59.927 40.4124L70.8574 59.0133L74.306 56.9867ZM61.6513 37.3991H58.4979V41.3991H61.6513V37.3991ZM56.5249 39.0714L53.4354 57.6723L57.3814 58.3277L60.4708 39.7268L56.5249 39.0714ZM55.4084 56H46.1825V60H55.4084V56ZM48.1555 58.3275L55.3998 14.6912L51.4539 14.0361L44.2095 57.6725L48.1555 58.3275ZM53.4268 16.3636H62.6527V12.3636H53.4268V16.3636ZM60.6798 14.0356L57.7821 31.4646L61.7279 32.1206L64.6256 14.6917L60.6798 14.0356ZM59.755 33.7926H61.6087V29.7926H59.755V33.7926ZM63.0246 33.2051L80.411 15.7761L77.5791 12.9512L60.1927 30.3801L63.0246 33.2051ZM78.995 16.3636H90.4794V12.3636H78.995V16.3636ZM89.0696 12.945L68.7003 33.1865L71.5198 36.0238L91.8892 15.7823L89.0696 12.945ZM68.3911 35.6274L82.3045 59.0223L85.7424 56.9777L71.8291 33.5828L68.3911 35.6274ZM84.0234 56H72.5817V60H84.0234V56ZM96.1843 58V60H97.4288L97.9786 58.8835L96.1843 58ZM86.2979 58L84.5172 57.0896L83.0293 60H86.2979V58ZM108.606 14.3636V12.3636H107.382L106.825 13.4532L108.606 14.3636ZM120.495 14.3636L122.464 14.0118L122.17 12.3636H120.495V14.3636ZM128.294 58V60H130.683L130.262 57.6482L128.294 58ZM118.407 58L116.432 58.3113L116.698 60H118.407V58ZM113.102 24.3352L115.078 24.0239L114.811 22.3352H113.102V24.3352ZM112.761 24.3352V22.3352H111.517L110.967 23.4517L112.761 24.3352ZM98.4428 40.848V38.848H96.7568L96.4716 40.5098L98.4428 40.848ZM121.795 40.848L123.766 41.1863L124.168 38.848H121.795V40.848ZM120.559 48.0497V50.0497H122.245L122.53 48.388L120.559 48.0497ZM97.207 48.0497L95.2358 47.7115L94.8346 50.0497H97.207V48.0497ZM96.1843 56H86.2979V60H96.1843V56ZM88.0787 58.9104L110.387 15.274L106.825 13.4532L84.5172 57.0896L88.0787 58.9104ZM108.606 16.3636H120.495V12.3636H108.606V16.3636ZM118.527 14.7155L126.325 58.3518L130.262 57.6482L122.464 14.0118L118.527 14.7155ZM128.294 56H118.407V60H128.294V56ZM120.383 57.6887L115.078 24.0239L111.126 24.6466L116.432 58.3113L120.383 57.6887ZM113.102 22.3352H112.761V26.3352H113.102V22.3352ZM110.967 23.4517L94.39 57.1165L97.9786 58.8835L114.555 25.2187L110.967 23.4517ZM98.4428 42.848H121.795V38.848H98.4428V42.848ZM119.824 40.5098L118.588 47.7115L122.53 48.388L123.766 41.1863L119.824 40.5098ZM120.559 46.0497H97.207V50.0497H120.559V46.0497ZM99.1782 48.388L100.414 41.1863L96.4716 40.5098L95.2358 47.7115L99.1782 48.388ZM142.559 14.3636V12.3636H140.864L140.586 14.0348L142.559 14.3636ZM151.422 14.3636L153.395 14.6924L153.783 12.3636H151.422V14.3636ZM149.078 28.4261L151.05 28.7604L151.051 28.7549L149.078 28.4261ZM149.313 32.4744L147.476 33.2654L147.48 33.2747L149.313 32.4744ZM151.721 34.669L150.993 36.5322L151.007 36.5375L151.021 36.5426L151.721 34.669ZM158.816 35.2656L158.907 37.2636L158.922 37.2629L158.937 37.262L158.816 35.2656ZM161.713 35.0312L161.517 33.0409L161.514 33.0412L161.713 35.0312ZM164.569 34.669L164.26 32.693L164.255 32.6938L164.569 34.669ZM166.848 34.179L168.823 34.4965L169.331 31.3391L166.27 32.2646L166.848 34.179ZM165.676 41.4659L166.259 43.3793L167.453 43.0158L167.651 41.7835L165.676 41.4659ZM163.311 41.9986L163.62 43.9746L163.633 43.9727L163.645 43.9705L163.311 41.9986ZM160.435 42.3821L160.634 44.3722L160.646 44.3709L160.659 44.3695L160.435 42.3821ZM157.559 42.6165L157.436 40.6203L157.436 40.6203L157.559 42.6165ZM146.245 41.2102L145.474 43.0557L145.48 43.0585L145.487 43.0611L146.245 41.2102ZM141.003 36.544L139.224 37.4576L139.224 37.4576L141.003 36.544ZM140.215 28.4261L142.187 28.7563L142.188 28.7549L140.215 28.4261ZM168.638 14.3636V12.3636H166.943L166.665 14.0361L168.638 14.3636ZM177.544 14.3636L179.517 14.6912L179.904 12.3636H177.544V14.3636ZM170.3 58V60H171.995L172.273 58.3275L170.3 58ZM161.394 58L159.421 57.6725L159.034 60H161.394V58ZM142.559 16.3636H151.422V12.3636H142.559V16.3636ZM149.449 14.0348L147.106 28.0973L151.051 28.7549L153.395 14.6924L149.449 14.0348ZM147.107 28.0919C146.79 29.9622 146.822 31.7478 147.476 33.2653L151.15 31.6835C150.923 31.1556 150.799 30.2423 151.05 28.7604L147.107 28.0919ZM147.48 33.2747C148.163 34.8382 149.407 35.913 150.993 36.5322L152.448 32.8059C151.705 32.5159 151.344 32.1277 151.146 31.6741L147.48 33.2747ZM151.021 36.5426C152.51 37.0989 154.33 37.3295 156.387 37.3295V33.3295C154.58 33.3295 153.289 33.1199 152.42 32.7954L151.021 36.5426ZM156.387 37.3295C157.108 37.3295 157.949 37.3071 158.907 37.2636L158.725 33.2677C157.807 33.3094 157.029 33.3295 156.387 33.3295V37.3295ZM158.937 37.262C159.902 37.2035 160.894 37.1232 161.912 37.0213L161.514 33.0412C160.544 33.1382 159.605 33.2141 158.695 33.2693L158.937 37.262ZM161.91 37.0216C162.953 36.9187 163.944 36.7932 164.882 36.6443L164.255 32.6938C163.403 32.829 162.491 32.9449 161.517 33.0409L161.91 37.0216ZM164.877 36.6451C165.842 36.4944 166.699 36.3136 167.427 36.0934L166.27 32.2646C165.777 32.4136 165.114 32.5596 164.26 32.693L164.877 36.6451ZM164.874 33.8614L163.702 41.1484L167.651 41.7835L168.823 34.4965L164.874 33.8614ZM165.094 39.5526C164.546 39.7194 163.845 39.8798 162.978 40.0266L163.645 43.9705C164.624 43.8049 165.5 43.6101 166.259 43.3793L165.094 39.5526ZM163.003 40.0226C162.124 40.1598 161.194 40.2839 160.211 40.3947L160.659 44.3695C161.693 44.253 162.68 44.1215 163.62 43.9746L163.003 40.0226ZM160.236 40.392C159.265 40.4891 158.332 40.5651 157.436 40.6203L157.681 44.6127C158.632 44.5542 159.616 44.4739 160.634 44.3722L160.236 40.392ZM157.436 40.6203C156.54 40.6754 155.78 40.7017 155.151 40.7017V44.7017C155.885 44.7017 156.731 44.6712 157.681 44.6127L157.436 40.6203ZM155.151 40.7017C151.82 40.7017 149.125 40.2281 147.002 39.3593L145.487 43.0611C148.223 44.181 151.465 44.7017 155.151 44.7017V40.7017ZM147.015 39.3647C144.986 38.5172 143.623 37.267 142.782 35.6304L139.224 37.4576C140.543 40.0256 142.674 41.8862 145.474 43.0557L147.015 39.3647ZM142.782 35.6304C141.967 34.0422 141.676 31.8143 142.187 28.7563L138.242 28.096C137.646 31.6573 137.881 34.8413 139.224 37.4576L142.782 35.6304ZM142.188 28.7549L144.531 14.6924L140.586 14.0348L138.242 28.0973L142.188 28.7549ZM168.638 16.3636H177.544V12.3636H168.638V16.3636ZM175.571 14.0361L168.327 57.6725L172.273 58.3275L179.517 14.6912L175.571 14.0361ZM170.3 56H161.394V60H170.3V56ZM163.367 58.3275L170.611 14.6912L166.665 14.0361L159.421 57.6725L163.367 58.3275ZM187.122 58V60H188.366L188.916 58.8835L187.122 58ZM177.235 58L175.455 57.0896L173.967 60H177.235V58ZM199.544 14.3636V12.3636H198.32L197.763 13.4532L199.544 14.3636ZM211.433 14.3636L213.402 14.0118L213.107 12.3636H211.433V14.3636ZM219.231 58V60H221.62L221.2 57.6482L219.231 58ZM209.345 58L207.369 58.3113L207.635 60H209.345V58ZM204.039 24.3352L206.015 24.0239L205.749 22.3352H204.039V24.3352ZM203.699 24.3352V22.3352H202.454L201.904 23.4517L203.699 24.3352ZM189.38 40.848V38.848H187.694L187.409 40.5098L189.38 40.848ZM212.733 40.848L214.704 41.1863L215.105 38.848H212.733V40.848ZM211.497 48.0497V50.0497H213.183L213.468 48.388L211.497 48.0497ZM188.145 48.0497L186.173 47.7115L185.772 50.0497H188.145V48.0497ZM187.122 56H177.235V60H187.122V56ZM179.016 58.9104L201.324 15.274L197.763 13.4532L175.455 57.0896L179.016 58.9104ZM199.544 16.3636H211.433V12.3636H199.544V16.3636ZM209.464 14.7155L217.262 58.3518L221.2 57.6482L213.402 14.0118L209.464 14.7155ZM219.231 56H209.345V60H219.231V56ZM211.32 57.6887L206.015 24.0239L202.064 24.6466L207.369 58.3113L211.32 57.6887ZM204.039 22.3352H203.699V26.3352H204.039V22.3352ZM201.904 23.4517L185.328 57.1165L188.916 58.8835L205.493 25.2187L201.904 23.4517ZM189.38 42.848H212.733V38.848H189.38V42.848ZM210.761 40.5098L209.526 47.7115L213.468 48.388L214.704 41.1863L210.761 40.5098ZM211.497 46.0497H188.145V50.0497H211.497V46.0497ZM190.116 48.388L191.352 41.1863L187.409 40.5098L186.173 47.7115L190.116 48.388ZM223.455 21.9702L221.483 21.6387L221.091 23.9702H223.455V21.9702ZM224.734 14.3636V12.3636H223.042L222.761 14.0321L224.734 14.3636ZM260.572 14.3636L262.544 14.6951L262.936 12.3636H260.572V14.3636ZM259.293 21.9702V23.9702H260.985L261.266 22.3017L259.293 21.9702ZM245.934 21.9702V19.9702H244.238L243.961 21.6435L245.934 21.9702ZM239.968 58V60H241.664L241.941 58.3267L239.968 58ZM230.849 58L228.876 57.6733L228.49 60H230.849V58ZM236.815 21.9702L238.788 22.2969L239.173 19.9702H236.815V21.9702ZM225.428 22.3017L226.706 14.6951L222.761 14.0321L221.483 21.6387L225.428 22.3017ZM224.734 16.3636H260.572V12.3636H224.734V16.3636ZM258.599 14.0321L257.321 21.6387L261.266 22.3017L262.544 14.6951L258.599 14.0321ZM259.293 19.9702H245.934V23.9702H259.293V19.9702ZM243.961 21.6435L237.995 57.6733L241.941 58.3267L247.907 22.2969L243.961 21.6435ZM239.968 56H230.849V60H239.968V56ZM232.822 58.3267L238.788 22.2969L234.841 21.6435L228.876 57.6733L232.822 58.3267ZM236.815 19.9702H223.455V23.9702H236.815V19.9702ZM269.478 30.4929V28.4929H267.784L267.505 30.1641L269.478 30.4929ZM288.548 32.1761L287.675 33.9759L287.682 33.9791L287.689 33.9823L288.548 32.1761ZM293.576 36.8849L291.79 37.7844L291.795 37.7943L293.576 36.8849ZM294.428 44.0653L292.457 43.7299L292.455 43.7382L294.428 44.0653ZM291.168 51.331L292.712 52.602L292.717 52.5969L291.168 51.331ZM284.521 56.2315L283.723 54.3972L283.72 54.3988L284.521 56.2315ZM258.974 58L257.001 57.6725L256.614 60H258.974V58ZM266.218 14.3636V12.3636H264.523L264.245 14.0361L266.218 14.3636ZM275.444 14.3636L277.417 14.6909L277.803 12.3636H275.444V14.3636ZM269.435 50.5852L267.462 50.2579L267.076 52.5852H269.435V50.5852ZM280.856 49.6903L281.725 51.4915L281.734 51.4873L280.856 49.6903ZM283.86 47.2827L282.268 46.0719L282.266 46.0754L283.86 47.2827ZM285.288 43.9801L283.317 43.6408L283.314 43.6575L283.311 43.6742L285.288 43.9801ZM284.052 39.5909L282.587 40.9525L282.595 40.9611L284.052 39.5909ZM268.263 37.7798L266.291 37.451L265.903 39.7798H268.263V37.7798ZM269.478 32.4929H279.876V28.4929H269.478V32.4929ZM279.876 32.4929C283.139 32.4929 285.709 33.023 287.675 33.9759L289.42 30.3764C286.755 29.0849 283.544 28.4929 279.876 28.4929V32.4929ZM287.689 33.9823C289.673 34.9263 290.993 36.2025 291.79 37.7844L295.362 35.9855C294.113 33.5048 292.081 31.6419 289.407 30.37L287.689 33.9823ZM291.795 37.7943C292.595 39.3621 292.87 41.301 292.457 43.73L296.4 44.4007C296.924 41.3183 296.631 38.4703 295.357 35.9756L291.795 37.7943ZM292.455 43.7382C292.056 46.1435 291.112 48.2398 289.62 50.0651L292.717 52.5969C294.662 50.2176 295.891 47.4702 296.401 44.3925L292.455 43.7382ZM289.624 50.0599C288.125 51.8815 286.174 53.3323 283.723 54.3972L285.318 58.0658C288.293 56.7729 290.774 54.9566 292.712 52.602L289.624 50.0599ZM283.72 54.3988C281.313 55.4501 278.518 56 275.295 56V60C278.975 60 282.33 59.3709 285.321 58.0643L283.72 54.3988ZM275.295 56H258.974V60H275.295V56ZM260.947 58.3275L268.191 14.6912L264.245 14.0361L257.001 57.6725L260.947 58.3275ZM266.218 16.3636H275.444V12.3636H266.218V16.3636ZM273.471 14.0363L267.462 50.2579L271.408 50.9125L277.417 14.6909L273.471 14.0363ZM269.435 52.5852H276.531V48.5852H269.435V52.5852ZM276.531 52.5852C278.42 52.5852 280.169 52.2426 281.725 51.4914L279.986 47.8892C279.071 48.3312 277.937 48.5852 276.531 48.5852V52.5852ZM281.734 51.4873C283.233 50.7549 284.492 49.762 285.455 48.4899L282.266 46.0754C281.723 46.792 280.979 47.4042 279.978 47.8934L281.734 51.4873ZM285.452 48.4934C286.41 47.2335 287.026 45.8245 287.264 44.286L283.311 43.6742C283.18 44.5221 282.844 45.3148 282.268 46.0719L285.452 48.4934ZM287.259 44.3194C287.654 42.0204 287.097 39.9091 285.509 38.2207L282.595 40.9611C283.251 41.6591 283.517 42.474 283.317 43.6408L287.259 44.3194ZM285.517 38.2293C283.862 36.4484 281.411 35.7798 278.661 35.7798V39.7798C280.855 39.7798 281.998 40.3186 282.587 40.9525L285.517 38.2293ZM278.661 35.7798H268.263V39.7798H278.661V35.7798ZM270.236 38.1086L271.451 30.8217L267.505 30.1641L266.291 37.451L270.236 38.1086ZM313.311 58L311.338 57.6725L310.952 60H313.311V58ZM320.556 14.3636V12.3636H318.86L318.583 14.0361L320.556 14.3636ZM345.826 15.7912L344.962 17.5952L344.967 17.5976L345.826 15.7912ZM350.023 19.7543L348.213 20.6059L348.216 20.6117L350.023 19.7543ZM350.662 25.5497L352.632 25.8945L352.634 25.8827L350.662 25.5497ZM348.851 30.0241L347.221 28.8651L347.217 28.8711L347.213 28.8772L348.851 30.0241ZM345.527 33.1776L344.469 31.4805L345.527 33.1776ZM341.223 34.9247L340.793 32.9715L339.518 33.2522L339.262 34.5325L341.223 34.9247ZM341.138 35.3509L339.177 34.9586L338.719 37.2484L341.052 37.349L341.138 35.3509ZM345.591 36.7571L344.494 38.4295L344.501 38.4336L344.507 38.4377L345.591 36.7571ZM348.553 40.3793L346.708 41.1509L346.708 41.1509L348.553 40.3793ZM349 45.9403L350.973 46.2672L350.973 46.267L349 45.9403ZM346.252 52.1406L347.811 53.393L347.816 53.387L346.252 52.1406ZM340.456 56.4233L339.658 54.5895L339.654 54.5912L340.456 56.4233ZM323.816 50.4574L321.842 50.1345L321.462 52.4574H323.816V50.4574ZM337.196 48.9659L338.383 50.576L338.383 50.576L337.196 48.9659ZM339.625 45.0241L341.599 45.3502L341.601 45.3383L341.602 45.3265L339.625 45.0241ZM339.263 41.8281L337.437 42.643L337.442 42.6547L337.447 42.6662L339.263 41.8281ZM337.154 39.6548L336.209 41.4174L336.219 41.423L337.154 39.6548ZM325.712 38.8665V36.8665H324.013L323.738 38.5436L325.712 38.8665ZM326.777 32.6236L324.804 32.2967L324.419 34.6236H326.777V32.6236ZM337.09 31.9631L337.854 33.8114L337.866 33.8063L337.09 31.9631ZM339.753 30.0455L338.227 28.7524L338.225 28.7548L339.753 30.0455ZM341.096 27.0838L343.07 27.4046L343.07 27.4012L341.096 27.0838ZM340.03 23.2699L338.606 24.6736L338.616 24.6841L338.626 24.6945L340.03 23.2699ZM328.567 21.821V19.821H326.871L326.594 21.4941L328.567 21.821ZM315.284 58.3275L322.529 14.6912L318.583 14.0361L311.338 57.6725L315.284 58.3275ZM320.556 16.3636H338.027V12.3636H320.556V16.3636ZM338.027 16.3636C341.065 16.3636 343.337 16.8176 344.962 17.5952L346.689 13.9871C344.337 12.8613 341.411 12.3636 338.027 12.3636V16.3636ZM344.967 17.5976C346.634 18.3895 347.65 19.4093 348.213 20.6059L351.833 18.9027C350.805 16.7185 349.023 15.0963 346.684 13.9848L344.967 17.5976ZM348.216 20.6117C348.804 21.8497 349.005 23.3528 348.69 25.2168L352.634 25.8827C353.058 23.3716 352.833 21.0111 351.83 18.8968L348.216 20.6117ZM348.692 25.205C348.44 26.6467 347.941 27.8535 347.221 28.8651L350.481 31.1832C351.58 29.638 352.288 27.8618 352.632 25.8945L348.692 25.205ZM347.213 28.8772C346.472 29.9356 345.561 30.7995 344.469 31.4805L346.586 34.8746C348.136 33.9079 349.441 32.6695 350.49 31.1711L347.213 28.8772ZM344.469 31.4805C343.345 32.1816 342.123 32.6787 340.793 32.9715L341.653 36.8779C343.42 36.4889 345.068 35.8212 346.586 34.8746L344.469 31.4805ZM339.262 34.5325L339.177 34.9586L343.099 35.7431L343.185 35.3169L339.262 34.5325ZM341.052 37.349C342.356 37.4052 343.488 37.7696 344.494 38.4295L346.688 35.0847C345.052 34.0117 343.216 33.4385 341.224 33.3527L341.052 37.349ZM344.507 38.4377C345.462 39.0537 346.198 39.931 346.708 41.1509L350.398 39.6076C349.601 37.7025 348.363 36.1651 346.676 35.0765L344.507 38.4377ZM346.708 41.1509C347.18 42.2808 347.338 43.7358 347.027 45.6137L350.973 46.267C351.373 43.8551 351.232 41.6027 350.398 39.6076L346.708 41.1509ZM347.027 45.6135C346.699 47.5958 345.922 49.3453 344.688 50.8942L347.816 53.387C349.479 51.2996 350.535 48.9156 350.973 46.2672L347.027 45.6135ZM344.692 50.8882C343.473 52.4066 341.817 53.6496 339.658 54.5895L341.255 58.2571C343.925 57.0947 346.133 55.4826 347.811 53.393L344.692 50.8882ZM339.654 54.5912C337.561 55.5079 335.012 56 331.955 56V60C335.432 60 338.551 59.441 341.259 58.2554L339.654 54.5912ZM331.955 56H313.311V60H331.955V56ZM323.816 52.4574H331.337V48.4574H323.816V52.4574ZM331.337 52.4574C334.109 52.4574 336.552 51.9254 338.383 50.576L336.01 47.3558C335.142 47.9951 333.678 48.4574 331.337 48.4574V52.4574ZM338.383 50.576C340.146 49.2768 341.243 47.505 341.599 45.3502L337.652 44.6981C337.468 45.8104 336.946 46.6664 336.01 47.3558L338.383 50.576ZM341.602 45.3265C341.834 43.8105 341.7 42.3357 341.079 40.99L337.447 42.6662C337.678 43.1671 337.786 43.8231 337.648 44.7218L341.602 45.3265ZM341.09 41.0132C340.475 39.6353 339.431 38.5964 338.088 37.8866L336.219 41.423C336.865 41.7644 337.228 42.1744 337.437 42.643L341.09 41.0132ZM338.099 37.8922C336.744 37.1655 335.149 36.8665 333.425 36.8665V40.8665C334.712 40.8665 335.604 41.093 336.209 41.4174L338.099 37.8922ZM333.425 36.8665H325.712V40.8665H333.425V36.8665ZM323.738 38.5436L321.842 50.1345L325.789 50.7803L327.686 39.1894L323.738 38.5436ZM326.777 34.6236H333.617V30.6236H326.777V34.6236ZM333.617 34.6236C335.107 34.6236 336.526 34.3601 337.854 33.8114L336.326 30.1147C335.523 30.4468 334.627 30.6236 333.617 30.6236V34.6236ZM337.866 33.8063C339.211 33.2402 340.364 32.4212 341.281 31.3362L338.225 28.7548C337.75 29.3174 337.128 29.7769 336.314 30.1198L337.866 33.8063ZM341.279 31.3385C342.236 30.2095 342.83 28.8818 343.07 27.4046L339.121 26.763C338.992 27.5586 338.691 28.2052 338.227 28.7524L341.279 31.3385ZM343.07 27.4012C343.407 25.3084 342.951 23.3404 341.434 21.8452L338.626 24.6945C339.041 25.1028 339.296 25.6774 339.121 26.7665L343.07 27.4012ZM341.455 21.8662C339.975 20.3646 337.858 19.821 335.556 19.821V23.821C337.316 23.821 338.182 24.2434 338.606 24.6736L341.455 21.8662ZM335.556 19.821H328.567V23.821H335.556V19.821ZM326.594 21.4941L324.804 32.2967L328.75 32.9505L330.54 22.1479L326.594 21.4941ZM352.979 58L351.006 57.6725L350.62 60H352.979V58ZM360.224 14.3636V12.3636H358.528L358.251 14.0361L360.224 14.3636ZM369.45 14.3636L371.423 14.6905L371.808 12.3636H369.45V14.3636ZM366.467 32.3679L364.494 32.041L364.108 34.3679H366.467V32.3679ZM385.195 32.3679V34.3679H386.891L387.168 32.6948L385.195 32.3679ZM388.178 14.3636V12.3636H386.482L386.205 14.0367L388.178 14.3636ZM397.383 14.3636L399.356 14.6912L399.742 12.3636H397.383V14.3636ZM390.138 58V60H391.834L392.111 58.3275L390.138 58ZM380.934 58L378.961 57.6735L378.576 60H380.934V58ZM383.917 39.9744L385.89 40.301L386.275 37.9744H383.917V39.9744ZM365.188 39.9744V37.9744H363.492L363.215 39.6479L365.188 39.9744ZM362.205 58V60H363.901L364.178 58.3265L362.205 58ZM354.952 58.3275L362.197 14.6912L358.251 14.0361L351.006 57.6725L354.952 58.3275ZM360.224 16.3636H369.45V12.3636H360.224V16.3636ZM367.476 14.0367L364.494 32.041L368.44 32.6948L371.423 14.6905L367.476 14.0367ZM366.467 34.3679H385.195V30.3679H366.467V34.3679ZM387.168 32.6948L390.151 14.6905L386.205 14.0367L383.222 32.041L387.168 32.6948ZM388.178 16.3636H397.383V12.3636H388.178V16.3636ZM395.41 14.0361L388.165 57.6725L392.111 58.3275L399.356 14.6912L395.41 14.0361ZM390.138 56H380.934V60H390.138V56ZM382.907 58.3265L385.89 40.301L381.944 39.6479L378.961 57.6735L382.907 58.3265ZM383.917 37.9744H365.188V41.9744H383.917V37.9744ZM363.215 39.6479L360.232 57.6735L364.178 58.3265L367.161 40.301L363.215 39.6479ZM362.205 56H352.979V60H362.205V56ZM445.829 14.3636V12.3636H444.134L443.856 14.0356L445.829 14.3636ZM455.055 14.3636L457.028 14.69L457.413 12.3636H455.055V14.3636ZM450.368 42.7017L448.394 42.3753L448.394 42.3758L450.368 42.7017ZM446.724 51.054L448.288 52.3011L448.288 52.3011L446.724 51.054ZM439.458 56.6364L440.278 58.4607L440.285 58.4574L439.458 56.6364ZM420.453 56.6364L419.506 58.3983L419.514 58.4025L420.453 56.6364ZM415.062 51.054L413.248 51.8962L413.248 51.8962L415.062 51.054ZM414.189 42.7017L412.215 42.3753L412.215 42.3758L414.189 42.7017ZM418.876 14.3636V12.3636H417.18L416.903 14.0372L418.876 14.3636ZM428.102 14.3636L430.075 14.6917L430.462 12.3636H428.102V14.3636ZM423.521 41.9134L421.548 41.5853L421.546 41.5973L421.544 41.6092L423.521 41.9134ZM423.904 46.3452L422.045 47.0809L422.048 47.0897L422.052 47.0985L423.904 46.3452ZM426.504 49.392L425.46 51.0981L425.46 51.0981L426.504 49.392ZM435.836 49.392L434.935 47.6067L434.928 47.6102L435.836 49.392ZM439.437 46.3452L437.827 45.1594L437.822 45.1651L437.818 45.1709L439.437 46.3452ZM441.248 41.9134L439.275 41.5853L439.273 41.5973L439.271 41.6092L441.248 41.9134ZM445.829 16.3636H455.055V12.3636H445.829V16.3636ZM453.082 14.0372L448.394 42.3753L452.341 43.0281L457.028 14.69L453.082 14.0372ZM448.394 42.3758C447.921 45.2403 446.839 47.7027 445.161 49.8069L448.288 52.3011C450.416 49.6325 451.763 46.5268 452.341 43.0276L448.394 42.3758ZM445.161 49.8069C443.465 51.9322 441.302 53.6028 438.632 54.8153L440.285 58.4574C443.496 56.9994 446.176 54.9485 448.288 52.3011L445.161 49.8069ZM438.639 54.812C435.986 56.0037 432.989 56.6179 429.615 56.6179V60.6179C433.484 60.6179 437.05 59.9111 440.278 58.4607L438.639 54.812ZM429.615 56.6179C426.229 56.6179 423.517 55.9999 421.391 54.8703L419.514 58.4025C422.36 59.9148 425.756 60.6179 429.615 60.6179V56.6179ZM421.399 54.8745C419.265 53.7281 417.788 52.1766 416.876 50.2118L413.248 51.8962C414.552 54.7041 416.669 56.8741 419.506 58.3983L421.399 54.8745ZM416.876 50.2118C415.972 48.2651 415.687 45.9034 416.162 43.0276L412.215 42.3758C411.639 45.8637 411.936 49.0702 413.248 51.8962L416.876 50.2118ZM416.162 43.0281L420.849 14.69L416.903 14.0372L412.215 42.3753L416.162 43.0281ZM418.876 16.3636H428.102V12.3636H418.876V16.3636ZM426.129 14.0356L421.548 41.5853L425.494 42.2414L430.075 14.6917L426.129 14.0356ZM421.544 41.6092C421.246 43.5485 421.378 45.3953 422.045 47.0809L425.764 45.6094C425.408 44.7098 425.285 43.6021 425.498 42.2175L421.544 41.6092ZM422.052 47.0985C422.741 48.793 423.894 50.1399 425.46 51.0981L427.548 47.686C426.699 47.1669 426.119 46.4825 425.757 45.5919L422.052 47.0985ZM425.46 51.0981C427.053 52.0723 428.927 52.5 430.978 52.5V48.5C429.478 48.5 428.37 48.1891 427.548 47.686L425.46 51.0981ZM430.978 52.5C433.052 52.5 434.987 52.0699 436.745 51.1739L434.928 47.6102C433.788 48.1915 432.485 48.5 430.978 48.5V52.5ZM436.738 51.1774C438.477 50.2991 439.926 49.077 441.056 47.5194L437.818 45.1709C437.073 46.1986 436.121 47.0077 434.935 47.6067L436.738 51.1774ZM441.048 47.531C442.2 45.9659 442.923 44.1829 443.225 42.2175L439.271 41.6092C439.062 42.9677 438.578 44.1393 437.827 45.1594L441.048 47.531ZM443.221 42.2414L447.802 14.6917L443.856 14.0356L439.275 41.5853L443.221 42.2414ZM467.504 39.0795L465.532 38.7411L465.531 38.7507L467.504 39.0795ZM464.35 58V60H466.044L466.323 58.3288L464.35 58ZM455.295 58L453.322 57.6712L452.934 60H455.295V58ZM460.749 25.2727V23.2727H459.055L458.777 24.9439L460.749 25.2727ZM469.379 25.2727L471.353 25.5933L471.729 23.2727H469.379V25.2727ZM468.441 31.0469L466.467 30.7263L466.09 33.0469H468.441V31.0469ZM468.803 31.0469V33.0469H469.995L470.563 31.9982L468.803 31.0469ZM473.192 26.5085L472.186 24.78L472.181 24.7833L473.192 26.5085ZM485.38 26.3381L484.285 28.0117L484.292 28.0164L485.38 26.3381ZM488.619 30.5781L486.726 31.2238L486.73 31.2369L488.619 30.5781ZM488.938 37.1619L490.911 37.4927L490.911 37.4907L488.938 37.1619ZM485.444 58V60H487.136L487.416 58.3308L485.444 58ZM476.367 58L474.395 57.6698L474.005 60H476.367V58ZM479.585 38.7812L481.557 39.1115L481.558 39.1032L479.585 38.7812ZM478.817 34.0938L477.198 35.2677L477.207 35.2792L477.215 35.2905L478.817 34.0938ZM471.467 33.1776L470.552 31.3987L470.552 31.3987L471.467 33.1776ZM468.888 35.4787L467.242 34.3427L467.239 34.3476L468.888 35.4787ZM465.531 38.7507L462.377 57.6712L466.323 58.3288L469.476 39.4083L465.531 38.7507ZM464.35 56H455.295V60H464.35V56ZM457.268 58.3288L462.722 25.6015L458.777 24.9439L453.322 57.6712L457.268 58.3288ZM460.749 27.2727H469.379V23.2727H460.749V27.2727ZM467.404 24.9522L466.467 30.7263L470.415 31.3674L471.353 25.5933L467.404 24.9522ZM468.441 33.0469H468.803V29.0469H468.441V33.0469ZM470.563 31.9982C471.425 30.4035 472.629 29.1577 474.204 28.2337L472.181 24.7833C469.978 26.0752 468.256 27.855 467.044 30.0956L470.563 31.9982ZM474.199 28.237C475.766 27.3248 477.578 26.8466 479.691 26.8466V22.8466C476.946 22.8466 474.426 23.4764 472.186 24.78L474.199 28.237ZM479.691 26.8466C481.673 26.8466 483.164 27.2782 484.285 28.0117L486.475 24.6644C484.556 23.4093 482.255 22.8466 479.691 22.8466V26.8466ZM484.292 28.0164C485.426 28.7515 486.236 29.7893 486.726 31.2238L490.512 29.9325C489.751 27.7022 488.402 25.9132 486.468 24.6598L484.292 28.0164ZM486.73 31.2369C487.228 32.6638 487.354 34.5005 486.965 36.8331L490.911 37.4907C491.374 34.7098 491.288 32.1573 490.507 29.9194L486.73 31.2369ZM486.966 36.8312L483.471 57.6692L487.416 58.3308L490.911 37.4927L486.966 36.8312ZM485.444 56H476.367V60H485.444V56ZM478.34 58.3302L481.557 39.1115L477.612 38.451L474.395 57.6698L478.34 58.3302ZM481.558 39.1032C481.933 36.8069 481.705 34.6177 480.42 32.897L477.215 35.2905C477.606 35.8141 477.889 36.7499 477.611 38.4593L481.558 39.1032ZM480.437 32.9198C479.126 31.1119 477.091 30.3892 474.833 30.3892V34.3892C476.24 34.3892 476.861 34.8029 477.198 35.2677L480.437 32.9198ZM474.833 30.3892C473.314 30.3892 471.876 30.7188 470.552 31.3987L472.381 34.9564C473.103 34.5852 473.909 34.3892 474.833 34.3892V30.3892ZM470.552 31.3987C469.217 32.0848 468.113 33.0812 467.242 34.3427L470.535 36.6147C471.056 35.8592 471.67 35.3214 472.381 34.9564L470.552 31.3987ZM467.239 34.3476C466.367 35.6195 465.814 37.1021 465.532 38.7411L469.475 39.418C469.676 38.2445 470.046 37.3265 470.538 36.6097L467.239 34.3476ZM492.555 58L490.582 57.6712L490.194 60H492.555V58ZM498.01 25.2727V23.2727H496.315L496.037 24.9439L498.01 25.2727ZM506.809 25.2727L508.782 25.6039L509.173 23.2727H506.809V25.2727ZM505.85 30.983L503.878 30.6518L503.487 32.983H505.85V30.983ZM506.191 30.983V32.983H507.471L508.007 31.8211L506.191 30.983ZM509.963 26.3807L511.062 28.0517L511.065 28.0494L509.963 26.3807ZM516.525 24.8892L516.298 26.8763L516.329 26.8797L516.359 26.8823L516.525 24.8892ZM517.889 25.1023L519.861 25.4353L520.169 23.6108L518.374 23.162L517.889 25.1023ZM516.525 33.1776L515.853 35.061L518.1 35.8637L518.497 33.5106L516.525 33.1776ZM514.821 32.8366L514.549 34.8181L514.57 34.821L514.591 34.8235L514.821 32.8366ZM509.068 33.5611L509.962 35.3499L509.971 35.3455L509.98 35.3409L509.068 33.5611ZM506.191 35.9474L504.602 34.7334L504.597 34.7404L504.591 34.7474L506.191 35.9474ZM504.679 39.4844L502.711 39.1284L502.708 39.144L502.705 39.1596L504.679 39.4844ZM501.632 58V60H503.33L503.605 58.3247L501.632 58ZM494.528 58.3288L499.982 25.6015L496.037 24.9439L490.582 57.6712L494.528 58.3288ZM498.01 27.2727H506.809V23.2727H498.01V27.2727ZM504.837 24.9415L503.878 30.6518L507.823 31.3141L508.782 25.6039L504.837 24.9415ZM505.85 32.983H506.191V28.983H505.85V32.983ZM508.007 31.8211C508.818 30.0653 509.851 28.848 511.062 28.0517L508.864 24.7097C506.921 25.9872 505.44 27.8381 504.375 30.1448L508.007 31.8211ZM511.065 28.0494C512.343 27.2051 513.674 26.804 515.098 26.804V22.804C512.857 22.804 510.764 23.454 508.86 24.712L511.065 28.0494ZM515.098 26.804C515.469 26.804 515.869 26.8272 516.298 26.8763L516.752 22.9021C516.187 22.8376 515.635 22.804 515.098 22.804V26.804ZM516.359 26.8823C516.788 26.9181 517.133 26.9749 517.404 27.0426L518.374 23.162C517.849 23.0308 517.285 22.9456 516.691 22.8961L516.359 26.8823ZM515.917 24.7693L514.553 32.8445L518.497 33.5106L519.861 25.4353L515.917 24.7693ZM517.198 31.2941C516.588 31.0763 515.844 30.9415 515.05 30.8498L514.591 34.8235C515.275 34.9023 515.667 34.9948 515.853 35.061L517.198 31.2941ZM515.093 30.8552C514.289 30.7449 513.508 30.6875 512.754 30.6875V34.6875C513.306 34.6875 513.904 34.7296 514.549 34.8181L515.093 30.8552ZM512.754 30.6875C511.127 30.6875 509.584 31.0491 508.156 31.7812L509.98 35.3409C510.824 34.9083 511.739 34.6875 512.754 34.6875V30.6875ZM508.173 31.7722C506.761 32.4784 505.566 33.4719 504.602 34.7334L507.781 37.1615C508.38 36.3775 509.102 35.7801 509.962 35.3499L508.173 31.7722ZM504.591 34.7474C503.626 36.0343 503.004 37.5063 502.711 39.1284L506.647 39.8403C506.836 38.792 507.222 37.9061 507.791 37.1474L504.591 34.7474ZM502.705 39.1596L499.658 57.6753L503.605 58.3247L506.652 39.8091L502.705 39.1596ZM501.632 56H492.555V60H501.632V56ZM522.081 56.5938L521.02 58.2892L521.028 58.294L522.081 56.5938ZM517.436 50.7557L515.547 51.4136L515.552 51.4263L517.436 50.7557ZM516.989 41.7855L515.017 41.4527L515.017 41.4528L516.989 41.7855ZM520.419 32.9219L518.766 31.7955L518.762 31.8018L520.419 32.9219ZM526.939 26.9773L525.984 25.22L525.984 25.22L526.939 26.9773ZM541.534 25.8906L540.794 27.7486L540.803 27.7522L540.812 27.7558L541.534 25.8906ZM545.923 29.0014L544.389 30.2849L544.396 30.2926L545.923 29.0014ZM548.31 34.179L546.351 34.5815L546.353 34.5944L548.31 34.179ZM548.288 41.4659L546.314 41.1436L546.314 41.1453L548.288 41.4659ZM547.884 43.9588V45.9588H549.585L549.858 44.2794L547.884 43.9588ZM520.27 43.9588L518.294 43.6519L517.935 45.9588H520.27V43.9588ZM521.143 38.3338V36.3338H519.43L519.167 38.0269L521.143 38.3338ZM540.234 38.3338V40.3338H541.935L542.208 38.6556L540.234 38.3338ZM539.979 34.8608L538.109 35.5717L538.109 35.5717L539.979 34.8608ZM538.061 32.4957L536.97 34.172L536.98 34.1781L536.989 34.1842L538.061 32.4957ZM531.009 32.6023L531.987 34.3466L531.987 34.3466L531.009 32.6023ZM528.068 35.1804L526.466 33.9838L526.463 33.9873L528.068 35.1804ZM526.555 38.6108L524.588 38.249L524.587 38.2577L526.555 38.6108ZM525.554 44.1932L523.585 43.84L523.583 43.8535L523.581 43.867L525.554 44.1932ZM525.724 48.4759L523.837 49.1366L523.84 49.147L523.844 49.1575L525.724 48.4759ZM527.855 51.0327L526.873 52.7752L526.883 52.7804L526.892 52.7856L527.855 51.0327ZM534.524 51.4375L533.919 49.5312L533.91 49.5341L534.524 51.4375ZM536.911 50.1804L538.156 51.7452L538.166 51.7375L538.175 51.7297L536.911 50.1804ZM538.615 48.071L538.748 46.0755L537.45 45.9887L536.845 47.1408L538.615 48.071ZM546.903 48.625L548.773 49.3359L549.733 46.8097L547.037 46.6295L546.903 48.625ZM543.409 53.9091L544.79 55.3558L544.797 55.3492L543.409 53.9091ZM537.763 57.4034L538.468 59.2751L538.474 59.2726L537.763 57.4034ZM530.412 56.6392C527.324 56.6392 524.939 56.0113 523.134 54.8935L521.028 58.294C523.626 59.9035 526.795 60.6392 530.412 60.6392V56.6392ZM523.142 54.8984C521.333 53.7666 520.069 52.1873 519.32 50.085L515.552 51.4263C516.593 54.3525 518.425 56.6652 521.02 58.2891L523.142 54.8984ZM519.325 50.0978C518.584 47.9702 518.418 45.3369 518.961 42.1183L515.017 41.4528C514.395 45.1375 514.527 48.4843 515.547 51.4135L519.325 50.0978ZM518.961 42.1184C519.487 39.0019 520.535 36.3223 522.076 34.0419L518.762 31.8018C516.866 34.6067 515.627 37.8362 515.017 41.4527L518.961 42.1184ZM522.072 34.0483C523.632 31.7591 525.569 29.9978 527.894 28.7345L525.984 25.22C523.081 26.7976 520.672 28.9995 518.766 31.7955L522.072 34.0483ZM527.894 28.7345C530.192 27.4858 532.771 26.8466 535.675 26.8466V22.8466C532.158 22.8466 528.914 23.6278 525.984 25.22L527.894 28.7345ZM535.675 26.8466C537.617 26.8466 539.314 27.1592 540.794 27.7486L542.274 24.0326C540.259 23.23 538.05 22.8466 535.675 22.8466V26.8466ZM540.812 27.7558C542.271 28.3206 543.451 29.163 544.389 30.2849L547.457 27.718C546.066 26.0558 544.32 24.8243 542.256 24.0255L540.812 27.7558ZM544.396 30.2926C545.31 31.3739 545.98 32.7783 546.351 34.5815L550.269 33.7764C549.787 31.4319 548.866 29.3846 547.451 27.7102L544.396 30.2926ZM546.353 34.5944C546.728 36.3599 546.742 38.5281 546.314 41.1436L550.262 41.7882C550.744 38.8356 550.772 36.1457 550.266 33.7636L546.353 34.5944ZM546.314 41.1453L545.909 43.6382L549.858 44.2794L550.262 41.7865L546.314 41.1453ZM547.884 41.9588H520.27V45.9588H547.884V41.9588ZM522.246 44.2657L523.12 38.6407L519.167 38.0269L518.294 43.6519L522.246 44.2657ZM521.143 40.3338H540.234V36.3338H521.143V40.3338ZM542.208 38.6556C542.465 37.0798 542.382 35.5546 541.848 34.1499L538.109 35.5717C538.342 36.1841 538.43 36.9741 538.26 38.012L542.208 38.6556ZM541.848 34.1499C541.314 32.7458 540.399 31.6112 539.133 30.8073L536.989 34.1842C537.513 34.5166 537.876 34.9587 538.109 35.5717L541.848 34.1499ZM539.152 30.8195C537.866 29.9828 536.365 29.6222 534.759 29.6222V33.6222C535.765 33.6222 536.466 33.8439 536.97 34.172L539.152 30.8195ZM534.759 29.6222C533.081 29.6222 531.494 30.037 530.03 30.858L531.987 34.3466C532.853 33.8608 533.766 33.6222 534.759 33.6222V29.6222ZM530.03 30.858C528.622 31.6477 527.429 32.6932 526.466 33.9838L529.671 36.377C530.298 35.5369 531.065 34.8637 531.987 34.3466L530.03 30.858ZM526.463 33.9873C525.507 35.2735 524.873 36.6993 524.588 38.249L528.522 38.9725C528.692 38.0507 529.067 37.1895 529.673 36.3734L526.463 33.9873ZM524.587 38.2577L523.585 43.84L527.523 44.5463L528.524 38.9639L524.587 38.2577ZM523.581 43.867C523.265 45.7785 523.29 47.5735 523.837 49.1366L527.612 47.8152C527.364 47.1055 527.275 46.0454 527.527 44.5193L523.581 43.867ZM523.844 49.1575C524.411 50.7219 525.429 51.9611 526.873 52.7752L528.837 49.2902C528.265 48.9679 527.861 48.5026 527.605 47.7943L523.844 49.1575ZM526.892 52.7856C528.28 53.5481 529.917 53.8636 531.69 53.8636V49.8636C530.367 49.8636 529.447 49.6252 528.818 49.2797L526.892 52.7856ZM531.69 53.8636C532.889 53.8636 534.042 53.6945 535.138 53.3409L533.91 49.5341C533.245 49.7487 532.509 49.8636 531.69 49.8636V53.8636ZM535.129 53.3437C536.244 52.99 537.259 52.4594 538.156 51.7452L535.665 48.6155C535.17 49.0093 534.594 49.3168 533.919 49.5313L535.129 53.3437ZM538.175 51.7297C539.091 50.9823 539.827 50.0646 540.386 49.0013L536.845 47.1408C536.523 47.7536 536.122 48.2422 535.646 48.6311L538.175 51.7297ZM538.482 50.0666L546.77 50.6205L547.037 46.6295L538.748 46.0755L538.482 50.0666ZM545.034 47.9141C544.372 49.654 543.373 51.1667 542.021 52.4689L544.797 55.3492C546.57 53.6401 547.9 51.6301 548.773 49.3359L545.034 47.9141ZM542.028 52.4624C540.675 53.7538 539.027 54.7823 537.051 55.5342L538.474 59.2726C540.902 58.3484 543.018 57.0474 544.79 55.3558L542.028 52.4624ZM537.058 55.5318C535.129 56.2583 532.922 56.6392 530.412 56.6392V60.6392C533.328 60.6392 536.022 60.1962 538.468 59.2751L537.058 55.5318ZM555.357 57.5312L554.476 59.3268L554.486 59.3318L554.496 59.3367L555.357 57.5312ZM552.033 54.25L550.237 55.1303L552.033 54.25ZM551.5 48.8594L549.529 48.5206L549.527 48.5327L551.5 48.8594ZM553.269 44.2997L551.64 43.139L551.638 43.1426L553.269 44.2997ZM556.486 41.3168L555.463 39.5984L555.463 39.5984L556.486 41.3168ZM560.684 39.5909L560.186 37.6538L560.182 37.6549L560.684 39.5909ZM565.478 38.7812L565.649 40.7739L565.667 40.7723L565.685 40.7704L565.478 38.7812ZM570.123 38.206L569.82 36.2289L569.817 36.2295L570.123 38.206ZM572.828 37.4176L573.821 39.1541L573.836 39.1453L573.851 39.1362L572.828 37.4176ZM573.915 35.8409L575.882 36.2022L575.915 36.0231V35.8409H573.915ZM573.915 35.7131L571.94 35.3979L571.915 35.5545V35.7131H573.915ZM573.169 32.6023L571.701 33.96L571.714 33.9744L571.728 33.9885L573.169 32.6023ZM565.691 32.5384L564.631 30.8423L564.621 30.8484L565.691 32.5384ZM563.283 35.2443L563.119 37.2376L564.538 37.3546L565.113 36.0522L563.283 35.2443ZM555.016 34.5625L553.141 33.8661L552.223 36.3389L554.852 36.5557L555.016 34.5625ZM558.361 29.4062L559.755 30.8408L559.755 30.8406L558.361 29.4062ZM563.794 26.0398L564.487 27.9161L564.498 27.9119L563.794 26.0398ZM576.003 25.4858L575.481 27.4165L575.486 27.4177L576.003 25.4858ZM580.115 27.4673L578.888 29.0461L578.897 29.0533L580.115 27.4673ZM582.63 30.919L580.75 31.6025L580.754 31.614L580.759 31.6255L582.63 30.919ZM582.949 35.9261L584.922 36.2556L584.924 36.2432L582.949 35.9261ZM579.263 58V60H580.957L581.236 58.3294L579.263 58ZM570.655 58L568.683 57.6667L568.289 60H570.655V58ZM571.422 53.4616L573.394 53.7949L573.789 51.4616H571.422V53.4616ZM571.167 53.4616V51.4616H570.108L569.513 52.3364L571.167 53.4616ZM568.61 56.1676L569.82 57.7595L569.828 57.7541L569.835 57.7487L568.61 56.1676ZM565.137 57.9787L565.757 59.8802L565.766 59.8771L565.775 59.874L565.137 57.9787ZM568.034 51.5653L568.892 53.3724L568.901 53.3677L568.034 51.5653ZM570.804 49.392L569.252 48.1309L569.246 48.1382L569.24 48.1456L570.804 49.392ZM572.211 46.3026L574.181 46.6432L574.184 46.6304L574.186 46.6176L572.211 46.3026ZM572.765 42.8295L574.74 43.1446L575.449 38.6995L571.675 41.1527L572.765 42.8295ZM571.529 43.3196L571.02 41.3854L571.007 41.3889L571.529 43.3196ZM569.803 43.7244L570.169 45.6907L570.186 45.6874L570.204 45.6839L569.803 43.7244ZM567.949 44.044L568.219 46.0257L568.241 46.0227L568.263 46.0192L567.949 44.044ZM566.266 44.2997L566.549 46.2796L566.576 46.2757L566.604 46.271L566.266 44.2997ZM563.326 45.0455L564.058 46.9066L564.058 46.9066L563.326 45.0455ZM561.216 46.4304L562.666 47.8079L562.675 47.799L562.683 47.7899L561.216 46.4304ZM560.215 48.5611L562.189 48.8788L562.191 48.8683L562.193 48.8578L560.215 48.5611ZM561.088 51.3949L559.805 52.929L559.82 52.9416L559.836 52.9539L561.088 51.3949ZM560.748 56.6179C558.904 56.6179 557.414 56.296 556.217 55.7258L554.496 59.3367C556.34 60.2154 558.443 60.6179 560.748 60.6179V56.6179ZM556.238 55.7357C555.113 55.184 554.336 54.4039 553.829 53.3697L550.237 55.1303C551.151 56.9938 552.589 58.4012 554.476 59.3268L556.238 55.7357ZM553.829 53.3697C553.356 52.4051 553.163 51.0604 553.473 49.1861L549.527 48.5327C549.127 50.9481 549.29 53.1972 550.237 55.1303L553.829 53.3697ZM553.471 49.1982C553.745 47.6079 554.242 46.3846 554.9 45.4568L551.638 43.1426C550.563 44.658 549.881 46.4745 549.529 48.5206L553.471 49.1982ZM554.898 45.4604C555.622 44.4432 556.491 43.6416 557.509 43.0351L555.463 39.5984C553.953 40.4976 552.677 41.6846 551.64 43.139L554.898 45.4604ZM557.509 43.0351C558.599 42.3863 559.821 41.8808 561.186 41.5269L560.182 37.6549C558.478 38.0965 556.902 38.7415 555.463 39.5984L557.509 43.0351ZM561.181 41.528C562.619 41.1587 564.108 40.9068 565.649 40.7739L565.306 36.7886C563.552 36.9398 561.845 37.2277 560.186 37.6538L561.181 41.528ZM565.685 40.7704C567.605 40.5699 569.19 40.3742 570.428 40.1824L569.817 36.2295C568.669 36.4071 567.157 36.5949 565.27 36.7921L565.685 40.7704ZM570.425 40.183C571.716 39.9855 572.906 39.677 573.821 39.1541L571.836 35.6811C571.558 35.8401 570.943 36.0571 569.82 36.229L570.425 40.183ZM573.851 39.1362C574.955 38.4795 575.652 37.4531 575.882 36.2022L571.948 35.4796C571.93 35.5804 571.905 35.6159 571.901 35.6222C571.897 35.6275 571.878 35.6557 571.806 35.699L573.851 39.1362ZM575.915 35.8409V35.7131H571.915V35.8409H575.915ZM575.89 36.0282C576.168 34.2888 575.888 32.5437 574.611 31.2161L571.728 33.9885C571.872 34.1382 572.089 34.4669 571.94 35.3979L575.89 36.0282ZM574.638 31.2446C573.409 29.9155 571.639 29.473 569.824 29.473V33.473C571.078 33.473 571.538 33.7834 571.701 33.96L574.638 31.2446ZM569.824 29.473C567.909 29.473 566.146 29.8956 564.631 30.8424L566.751 34.2343C567.509 33.7607 568.501 33.473 569.824 33.473V29.473ZM564.621 30.8484C563.202 31.7464 562.114 32.9402 561.453 34.4365L565.113 36.0522C565.418 35.361 565.935 34.7508 566.76 34.2283L564.621 30.8484ZM563.447 33.2511L555.18 32.5693L554.852 36.5557L563.119 37.2376L563.447 33.2511ZM556.891 35.2589C557.528 33.5432 558.481 32.0782 559.755 30.8408L556.968 27.9717C555.258 29.6321 553.981 31.6045 553.141 33.8661L556.891 35.2589ZM559.755 30.8406C561.046 29.5864 562.613 28.6079 564.487 27.916L563.102 24.1635C560.743 25.0342 558.688 26.3 556.967 27.9719L559.755 30.8406ZM564.498 27.9119C566.356 27.2135 568.485 26.8466 570.911 26.8466V22.8466C568.081 22.8466 565.465 23.2751 563.091 24.1676L564.498 27.9119ZM570.911 26.8466C572.572 26.8466 574.093 27.0412 575.481 27.4165L576.525 23.5551C574.76 23.0781 572.886 22.8466 570.911 22.8466V26.8466ZM575.486 27.4177C576.852 27.7837 577.974 28.3351 578.888 29.046L581.343 25.8886C579.956 24.8098 578.336 24.0402 576.521 23.5539L575.486 27.4177ZM578.897 29.0533C579.754 29.7118 580.366 30.5468 580.75 31.6025L584.509 30.2355C583.87 28.4788 582.806 27.0126 581.334 25.8814L578.897 29.0533ZM580.759 31.6255C581.127 32.602 581.249 33.8991 580.975 35.609L584.924 36.2432C585.274 34.0611 585.183 32.0201 584.501 30.2126L580.759 31.6255ZM580.977 35.5967L577.29 57.6706L581.236 58.3294L584.922 36.2556L580.977 35.5967ZM579.263 56H570.655V60H579.263V56ZM572.627 58.3333L573.394 53.7949L569.45 53.1283L568.683 57.6667L572.627 58.3333ZM571.422 51.4616H571.167V55.4616H571.422V51.4616ZM569.513 52.3364C568.939 53.1802 568.233 53.9297 567.385 54.5865L569.835 57.7487C571.004 56.843 572.002 55.7885 572.82 54.5869L569.513 52.3364ZM567.399 54.5757C566.578 55.2001 565.617 55.7063 564.498 56.0834L565.775 59.874C567.27 59.3704 568.624 58.6692 569.82 57.7595L567.399 54.5757ZM564.517 56.0772C563.442 56.4277 562.193 56.6179 560.748 56.6179V60.6179C562.541 60.6179 564.218 60.382 565.757 59.8802L564.517 56.0772ZM564.391 54.3537C565.985 54.3537 567.495 54.0346 568.892 53.3723L567.177 49.7583C566.358 50.1472 565.439 50.3537 564.391 50.3537V54.3537ZM568.901 53.3677C570.275 52.7069 571.443 51.7995 572.368 50.6385L569.24 48.1456C568.717 48.8028 568.038 49.3442 567.168 49.763L568.901 53.3677ZM572.357 50.6532C573.311 49.4791 573.924 48.1325 574.181 46.6432L570.24 45.9619C570.099 46.7737 569.775 47.4868 569.252 48.1309L572.357 50.6532ZM574.186 46.6176L574.74 43.1446L570.79 42.5145L570.236 45.9875L574.186 46.6176ZM571.675 41.1527C571.675 41.1524 571.662 41.1605 571.633 41.1752C571.604 41.1898 571.562 41.2089 571.505 41.2314C571.39 41.2771 571.231 41.3299 571.02 41.3855L572.038 45.2538C572.668 45.0878 573.314 44.858 573.855 44.5064L571.675 41.1527ZM571.007 41.3889C570.528 41.5185 569.993 41.6441 569.402 41.765L570.204 45.6839C570.863 45.5491 571.479 45.4048 572.051 45.2503L571.007 41.3889ZM569.437 41.7582C568.844 41.8686 568.243 41.9721 567.635 42.0689L568.263 46.0192C568.905 45.9171 569.54 45.8076 570.169 45.6907L569.437 41.7582ZM567.679 42.0624C567.037 42.15 566.452 42.2386 565.928 42.3285L566.604 46.271C567.074 46.1904 567.612 46.1086 568.219 46.0257L567.679 42.0624ZM565.983 42.3198C564.763 42.4941 563.628 42.7771 562.593 43.1843L564.058 46.9066C564.756 46.632 565.581 46.4178 566.549 46.2796L565.983 42.3198ZM562.593 43.1843C561.495 43.6163 560.526 44.2334 559.749 45.0709L562.683 47.7899C562.986 47.4627 563.423 47.1564 564.058 46.9066L562.593 43.1843ZM559.766 45.0529C558.916 45.9483 558.419 47.0486 558.237 48.2644L562.193 48.8578C562.266 48.369 562.437 48.0489 562.666 47.8079L559.766 45.0529ZM558.24 48.2433C557.959 49.9895 558.353 51.7145 559.805 52.929L562.372 49.8607C562.261 49.7685 562.073 49.6042 562.189 48.8788L558.24 48.2433ZM559.836 52.9539C561.1 53.9696 562.7 54.3537 564.391 54.3537V50.3537C563.27 50.3537 562.668 50.0986 562.341 49.8359L559.836 52.9539ZM602.626 14.3636L604.599 14.6912L604.985 12.3636H602.626V14.3636ZM595.382 58V60H597.077L597.355 58.3275L595.382 58ZM586.305 58L584.332 57.6725L583.946 60H586.305V58ZM593.549 14.3636V12.3636H591.854L591.576 14.0361L593.549 14.3636ZM600.653 14.0361L593.409 57.6725L597.355 58.3275L604.599 14.6912L600.653 14.0361ZM595.382 56H586.305V60H595.382V56ZM588.278 58.3275L595.522 14.6912L591.576 14.0361L584.332 57.6725L588.278 58.3275ZM593.549 16.3636H602.626V12.3636H593.549V16.3636Z" fill="url(#paint0_linear_1851_133)"/>
<path d="M42.294 29.6406H32.9616C32.7912 28.4332 32.4432 27.3608 31.9176 26.4233C31.392 25.4716 30.7173 24.6619 29.8935 23.9943C29.0696 23.3267 28.1179 22.8153 27.0384 22.4602C25.973 22.1051 24.8153 21.9276 23.5653 21.9276C21.3068 21.9276 19.3395 22.4886 17.6634 23.6108C15.9872 24.7187 14.6875 26.3381 13.7642 28.4688C12.8409 30.5852 12.3793 33.1562 12.3793 36.1818C12.3793 39.2926 12.8409 41.9062 13.7642 44.0227C14.7017 46.1392 16.0085 47.7372 17.6847 48.8168C19.3608 49.8963 21.2997 50.4361 23.5014 50.4361C24.7372 50.4361 25.8807 50.2727 26.9318 49.946C27.9972 49.6193 28.9418 49.1435 29.7656 48.5185C30.5895 47.8793 31.2713 47.1051 31.8111 46.196C32.3651 45.2869 32.7486 44.25 32.9616 43.0852L42.294 43.1278C42.0526 45.1307 41.4489 47.0625 40.483 48.9233C39.5313 50.7699 38.2457 52.4247 36.6264 53.8878C35.0213 55.3366 33.1037 56.4872 30.8736 57.3395C28.6577 58.1776 26.1506 58.5966 23.3523 58.5966C19.4602 58.5966 15.9801 57.7159 12.9119 55.9545C9.85795 54.1932 7.44318 51.6435 5.66761 48.3054C3.90625 44.9673 3.02557 40.9261 3.02557 36.1818C3.02557 31.4233 3.92045 27.375 5.71023 24.0369C7.5 20.6989 9.92898 18.1562 12.9972 16.4091C16.0653 14.6477 19.517 13.767 23.3523 13.767C25.8807 13.767 28.2244 14.1222 30.3835 14.8324C32.5568 15.5426 34.4815 16.5795 36.1577 17.9432C37.8338 19.2926 39.1974 20.9474 40.2486 22.9077C41.3139 24.8679 41.9957 27.1122 42.294 29.6406ZM75.309 58L61.2891 39.3991H58.1357V58H48.9098V14.3636H58.1357V31.7926H59.9893L74.478 14.3636H85.9624L68.9382 34.6051L86.7507 58H75.309ZM98.9116 58H89.0252L104.089 14.3636H115.978L131.021 58H121.135L110.204 24.3352H109.863L98.9116 58ZM98.2937 40.848H121.646V48.0497H98.2937V40.848ZM138.042 14.3636H147.012V28.4261C147.012 30.1023 147.303 31.4517 147.885 32.4744C148.468 33.483 149.37 34.2145 150.591 34.669C151.827 35.1094 153.411 35.3295 155.343 35.3295C156.025 35.3295 156.827 35.3082 157.75 35.2656C158.674 35.2088 159.625 35.1307 160.605 35.0312C161.6 34.9318 162.537 34.8111 163.418 34.669C164.299 34.527 165.03 34.3636 165.613 34.179V41.4659C165.016 41.6648 164.27 41.8423 163.375 41.9986C162.495 42.1406 161.564 42.2685 160.584 42.3821C159.604 42.4815 158.652 42.5597 157.729 42.6165C156.806 42.6733 156.01 42.7017 155.343 42.7017C151.834 42.7017 148.78 42.2045 146.181 41.2102C143.581 40.2017 141.571 38.6463 140.151 36.544C138.745 34.4418 138.042 31.7358 138.042 28.4261V14.3636ZM164.015 14.3636H173.027V58H164.015V14.3636ZM189.673 58H179.787L194.851 14.3636H206.74L221.783 58H211.896L200.966 24.3352H200.625L189.673 58ZM189.055 40.848H212.408V48.0497H189.055V40.848ZM220.041 21.9702V14.3636H255.879V21.9702H242.52V58H233.4V21.9702H220.041ZM267.853 30.4929H278.251C281.717 30.4929 284.7 31.054 287.2 32.1761C289.714 33.2841 291.653 34.8537 293.017 36.8849C294.38 38.9162 295.055 41.3097 295.041 44.0653C295.055 46.8068 294.38 49.2287 293.017 51.331C291.653 53.419 289.714 55.0526 287.2 56.2315C284.7 57.4105 281.717 58 278.251 58H261.951V14.3636H271.156V50.5852H278.251C279.913 50.5852 281.312 50.2869 282.449 49.6903C283.585 49.0795 284.444 48.277 285.027 47.2827C285.623 46.2741 285.914 45.1733 285.9 43.9801C285.914 42.2472 285.261 40.7841 283.94 39.5909C282.633 38.3835 280.737 37.7798 278.251 37.7798H267.853V30.4929ZM316.273 58V14.3636H333.745C336.955 14.3636 339.632 14.8395 341.777 15.7912C343.922 16.7429 345.534 18.0639 346.614 19.7543C347.694 21.4304 348.233 23.3622 348.233 25.5497C348.233 27.2543 347.892 28.7528 347.211 30.0455C346.529 31.3239 345.591 32.375 344.398 33.1989C343.219 34.0085 341.87 34.5838 340.35 34.9247V35.3509C342.012 35.4219 343.567 35.8906 345.016 36.7571C346.479 37.6236 347.665 38.8381 348.574 40.4006C349.483 41.9489 349.938 43.7955 349.938 45.9403C349.938 48.2557 349.363 50.3224 348.212 52.1406C347.076 53.9446 345.392 55.3722 343.162 56.4233C340.932 57.4744 338.184 58 334.917 58H316.273ZM325.499 50.4574H333.02C335.591 50.4574 337.466 49.9673 338.645 48.9872C339.824 47.9929 340.414 46.6719 340.414 45.0241C340.414 43.8168 340.123 42.7514 339.54 41.8281C338.958 40.9048 338.127 40.1804 337.047 39.6548C335.982 39.1293 334.711 38.8665 333.233 38.8665H325.499V50.4574ZM325.499 32.6236H332.338C333.603 32.6236 334.725 32.4034 335.705 31.9631C336.699 31.5085 337.48 30.8693 338.049 30.0455C338.631 29.2216 338.922 28.2344 338.922 27.0838C338.922 25.5071 338.361 24.2358 337.239 23.2699C336.131 22.304 334.554 21.821 332.509 21.821H325.499V32.6236ZM355.941 58V14.3636H365.167V32.3679H383.896V14.3636H393.1V58H383.896V39.9744H365.167V58H355.941ZM441.547 14.3636H450.772V42.7017C450.772 45.8835 450.012 48.6676 448.493 51.054C446.987 53.4403 444.877 55.3011 442.164 56.6364C439.451 57.9574 436.291 58.6179 432.683 58.6179C429.061 58.6179 425.893 57.9574 423.18 56.6364C420.467 55.3011 418.358 53.4403 416.852 51.054C415.346 48.6676 414.593 45.8835 414.593 42.7017V14.3636H423.819V41.9134C423.819 43.5753 424.181 45.0526 424.906 46.3452C425.645 47.6378 426.681 48.6534 428.017 49.392C429.352 50.1307 430.907 50.5 432.683 50.5C434.473 50.5 436.028 50.1307 437.349 49.392C438.684 48.6534 439.714 47.6378 440.439 46.3452C441.177 45.0526 441.547 43.5753 441.547 41.9134V14.3636ZM467.269 39.0795V58H458.192V25.2727H466.843V31.0469H467.227C467.951 29.1435 469.165 27.6378 470.87 26.5298C472.575 25.4077 474.641 24.8466 477.07 24.8466C479.343 24.8466 481.325 25.3437 483.015 26.3381C484.705 27.3324 486.019 28.7528 486.957 30.5994C487.894 32.4318 488.363 34.6193 488.363 37.1619V58H479.286V38.7812C479.3 36.7784 478.789 35.2159 477.752 34.0938C476.715 32.9574 475.288 32.3892 473.469 32.3892C472.248 32.3892 471.168 32.652 470.231 33.1776C469.308 33.7031 468.583 34.4702 468.058 35.4787C467.546 36.473 467.283 37.6733 467.269 39.0795ZM495.517 58V25.2727H504.316V30.983H504.657C505.254 28.9517 506.255 27.4176 507.662 26.3807C509.068 25.3295 510.687 24.804 512.52 24.804C512.974 24.804 513.464 24.8324 513.99 24.8892C514.515 24.946 514.977 25.0241 515.375 25.1236V33.1776C514.949 33.0497 514.359 32.9361 513.606 32.8366C512.853 32.7372 512.164 32.6875 511.539 32.6875C510.204 32.6875 509.011 32.9787 507.96 33.5611C506.923 34.1293 506.099 34.9247 505.488 35.9474C504.892 36.9702 504.593 38.1491 504.593 39.4844V58H495.517ZM533.459 58.6392C530.092 58.6392 527.195 57.9574 524.766 56.5938C522.351 55.2159 520.49 53.2699 519.183 50.7557C517.876 48.2273 517.223 45.2372 517.223 41.7855C517.223 38.419 517.876 35.4645 519.183 32.9219C520.49 30.3793 522.33 28.3977 524.702 26.9773C527.088 25.5568 529.886 24.8466 533.097 24.8466C535.256 24.8466 537.266 25.1946 539.126 25.8906C541.001 26.5724 542.635 27.6023 544.027 28.9801C545.433 30.358 546.527 32.0909 547.308 34.179C548.089 36.2528 548.48 38.6818 548.48 41.4659V43.9588H520.845V38.3338H539.936C539.936 37.027 539.652 35.8693 539.084 34.8608C538.516 33.8523 537.727 33.0639 536.719 32.4957C535.724 31.9134 534.567 31.6222 533.246 31.6222C531.868 31.6222 530.646 31.9418 529.581 32.581C528.53 33.206 527.706 34.0511 527.109 35.1165C526.513 36.1676 526.207 37.3395 526.193 38.6321V43.9801C526.193 45.5994 526.491 46.9986 527.088 48.1776C527.699 49.3565 528.558 50.2656 529.666 50.9048C530.774 51.544 532.088 51.8636 533.608 51.8636C534.616 51.8636 535.54 51.7216 536.378 51.4375C537.216 51.1534 537.933 50.7273 538.53 50.1591C539.126 49.5909 539.581 48.8949 539.893 48.071L548.288 48.625C547.862 50.642 546.989 52.4034 545.668 53.9091C544.361 55.4006 542.67 56.5653 540.597 57.4034C538.537 58.2273 536.158 58.6392 533.459 58.6392ZM563.736 58.6179C561.648 58.6179 559.787 58.2557 558.153 57.5312C556.52 56.7926 555.227 55.706 554.276 54.2713C553.338 52.8224 552.869 51.0185 552.869 48.8594C552.869 47.0412 553.203 45.5142 553.871 44.2784C554.538 43.0426 555.447 42.0483 556.598 41.2955C557.749 40.5426 559.055 39.9744 560.518 39.5909C561.996 39.2074 563.544 38.9375 565.163 38.7812C567.067 38.5824 568.601 38.3977 569.766 38.2273C570.93 38.0426 571.776 37.7727 572.301 37.4176C572.827 37.0625 573.089 36.5369 573.089 35.8409V35.7131C573.089 34.3636 572.663 33.3196 571.811 32.581C570.973 31.8423 569.78 31.473 568.232 31.473C566.598 31.473 565.298 31.8352 564.332 32.5597C563.366 33.2699 562.727 34.1648 562.415 35.2443L554.02 34.5625C554.446 32.5739 555.284 30.8551 556.534 29.4062C557.784 27.9432 559.396 26.821 561.371 26.0398C563.359 25.2443 565.661 24.8466 568.274 24.8466C570.092 24.8466 571.832 25.0597 573.494 25.4858C575.17 25.9119 576.655 26.5724 577.947 27.4673C579.254 28.3622 580.284 29.5128 581.037 30.919C581.79 32.3111 582.166 33.9801 582.166 35.9261V58H573.558V53.4616H573.303C572.777 54.4844 572.074 55.3864 571.193 56.1676C570.312 56.9347 569.254 57.5384 568.018 57.9787C566.783 58.4048 565.355 58.6179 563.736 58.6179ZM566.335 52.3537C567.67 52.3537 568.849 52.0909 569.872 51.5653C570.895 51.0256 571.697 50.3011 572.28 49.392C572.862 48.483 573.153 47.4531 573.153 46.3026V42.8295C572.869 43.0142 572.479 43.1847 571.982 43.3409C571.499 43.483 570.952 43.6179 570.341 43.7457C569.73 43.8594 569.119 43.9659 568.509 44.0653C567.898 44.1506 567.344 44.2287 566.847 44.2997C565.781 44.456 564.851 44.7045 564.055 45.0455C563.26 45.3864 562.642 45.848 562.202 46.4304C561.761 46.9986 561.541 47.7088 561.541 48.5611C561.541 49.7969 561.989 50.7415 562.884 51.3949C563.793 52.0341 564.943 52.3537 566.335 52.3537ZM598.285 14.3636V58H589.208V14.3636H598.285Z" fill="white"/>
<defs>
<linearGradient id="paint0_linear_1851_133" x1="3.99504e-07" y1="36.9999" x2="602" y2="36.9999" gradientUnits="userSpaceOnUse">
<stop stop-color="#8D72E1"/>
<stop offset="1" stop-color="#8D9EFF"/>
</linearGradient>
</defs>
</svg>
