<svg width="217" height="73" viewBox="0 0 217 73" fill="none" xmlns="http://www.w3.org/2000/svg">
<path d="M44.7017 36.7784L46.6732 37.115L46.6753 37.1025L44.7017 36.7784ZM40.0781 48.6463L38.442 47.496L38.4387 47.5008L40.0781 48.6463ZM31.7472 56.0611L30.8312 54.2831L30.8281 54.2848L31.7472 56.0611ZM10.9304 55.8906L9.86209 57.5814L9.86588 57.5838L10.9304 55.8906ZM4.73011 48.071L2.8565 48.7707L2.85746 48.7733L4.73011 48.071ZM4.00568 35.6918L5.97909 36.0168L5.97927 36.0157L4.00568 35.6918ZM8.58665 23.8026L10.2228 24.9528L10.2251 24.9495L8.58665 23.8026ZM16.9602 16.3452L17.8791 18.1216L17.8851 18.1185L16.9602 16.3452ZM37.777 16.4943L36.7027 18.1813L36.7065 18.1837L37.777 16.4943ZM43.9773 24.3778L42.1002 25.0682L42.1037 25.0775L43.9773 24.3778ZM35.5185 35.6918L37.4913 36.0206L37.4915 36.019L35.5185 35.6918ZM35.4545 28.1491L33.5175 28.6469L33.5195 28.6548L33.5216 28.6628L35.4545 28.1491ZM32.5568 23.5043L33.7542 21.9023L33.7542 21.9023L32.5568 23.5043ZM20.8168 23.6747L19.7896 21.9586L19.7841 21.962L20.8168 23.6747ZM15.9162 28.7457L14.2031 27.7135L14.2012 27.7167L15.9162 28.7457ZM13.1676 36.7784L15.1394 37.1132L15.1406 37.1059L15.1418 37.0986L13.1676 36.7784ZM13.2102 44.321L11.2782 44.8381L11.2816 44.8507L13.2102 44.321ZM16.1719 48.902L14.9927 50.5174L15.0018 50.524L15.0109 50.5305L16.1719 48.902ZM27.8693 48.7315L28.8889 50.4521L28.8927 50.4499L27.8693 48.7315ZM32.7486 43.7244L34.4606 44.7583L34.4636 44.7534L32.7486 43.7244ZM42.7302 36.4418C41.9754 40.8628 40.5289 44.5277 38.442 47.496L41.7142 49.7966C44.2012 46.2592 45.8371 42.0122 46.6732 37.115L42.7302 36.4418ZM38.4387 47.5008C36.3378 50.5077 33.802 52.7527 30.8312 54.2831L32.6631 57.839C36.2548 55.9887 39.273 53.2906 41.7176 49.7918L38.4387 47.5008ZM30.8281 54.2848C27.853 55.824 24.6466 56.5966 21.179 56.5966V60.5966C25.2682 60.5966 29.1072 59.6788 32.6662 57.8374L30.8281 54.2848ZM21.179 56.5966C17.5277 56.5966 14.4946 55.769 11.9949 54.1975L9.86588 57.5838C13.1048 59.6202 16.9041 60.5966 21.179 60.5966V56.5966ZM11.9987 54.1998C9.54179 52.6475 7.74073 50.4033 6.60277 47.3688L2.85746 48.7733C4.27631 52.5569 6.60878 55.5258 9.8621 57.5814L11.9987 54.1998ZM6.60373 47.3713C5.48202 44.3677 5.22179 40.6147 5.97909 36.0168L2.03227 35.3667C1.19866 40.4279 1.42139 44.9278 2.8565 48.7707L6.60373 47.3713ZM5.97927 36.0157C6.70674 31.5835 8.13916 27.9165 10.2228 24.9528L6.95054 22.6523C4.46027 26.1943 2.83871 30.4534 2.03209 35.3678L5.97927 36.0157ZM10.2251 24.9495C12.3408 21.927 14.8921 19.6666 17.8791 18.1216L16.0414 14.5687C12.4374 16.4329 9.40633 19.144 6.94818 22.6556L10.2251 24.9495ZM17.8851 18.1185C20.889 16.5518 24.1149 15.767 27.5923 15.767V11.767C23.4845 11.767 19.6224 12.7011 16.0354 14.5719L17.8851 18.1185ZM27.5923 15.767C31.2095 15.767 34.2179 16.599 36.7027 18.1813L38.8513 14.8073C35.6258 12.7533 31.8445 11.767 27.5923 11.767V15.767ZM36.7065 18.1837C39.1747 19.7477 40.9751 22.0089 42.1002 25.0682L45.8544 23.6875C44.451 19.8717 42.1179 16.8773 38.8475 14.8049L36.7065 18.1837ZM42.1037 25.0775C43.2252 28.0808 43.4858 31.8409 42.7281 36.4543L46.6753 37.1025C47.5085 32.0285 47.2862 27.5215 45.8509 23.6782L42.1037 25.0775ZM37.4915 36.019C38.016 32.857 38.0251 30.035 37.3875 27.6355L33.5216 28.6628C33.9636 30.3258 34.0152 32.5322 33.5454 35.3645L37.4915 36.019ZM37.3916 27.6514C36.7764 25.2572 35.5958 23.2788 33.7542 21.9023L31.3594 25.1062C32.3304 25.832 33.0815 26.9502 33.5175 28.6469L37.3916 27.6514ZM33.7542 21.9023C31.9314 20.5398 29.7088 19.9276 27.2301 19.9276V23.9276C29.0412 23.9276 30.3698 24.3665 31.3594 25.1062L33.7542 21.9023ZM27.2301 19.9276C24.5491 19.9276 22.0548 20.6028 19.7896 21.9586L21.8439 25.3908C23.4708 24.417 25.252 23.9276 27.2301 23.9276V19.9276ZM19.7841 21.962C17.5349 23.3181 15.6815 25.26 14.2031 27.7135L17.6292 29.778C18.8213 27.7996 20.2349 26.3609 21.8495 25.3875L19.7841 21.962ZM14.2012 27.7167C12.722 30.1822 11.7358 33.1133 11.1934 36.4583L15.1418 37.0986C15.6221 34.1367 16.4684 31.7127 17.6312 29.7747L14.2012 27.7167ZM11.1958 36.4436C10.6568 39.6178 10.6379 42.4453 11.2782 44.838L15.1422 43.804C14.703 42.1626 14.6557 39.9617 15.1394 37.1132L11.1958 36.4436ZM11.2816 44.8507C11.9319 47.2181 13.1409 49.1656 14.9927 50.5174L17.3511 47.2866C16.362 46.5645 15.5966 45.458 15.1388 43.7913L11.2816 44.8507ZM15.0109 50.5305C16.8503 51.8418 19.0619 52.4361 21.5199 52.4361V48.4361C19.7166 48.4361 18.3628 48.0077 17.3328 47.2734L15.0109 50.5305ZM21.5199 52.4361C24.1795 52.4361 26.6504 51.7787 28.8889 50.4521L26.8497 47.011C25.253 47.9571 23.491 48.4361 21.5199 48.4361V52.4361ZM28.8927 50.4499C31.1434 49.1094 32.9932 47.1882 34.4606 44.7583L31.0365 42.6905C29.8619 44.6356 28.4589 46.0525 26.8459 47.0132L28.8927 50.4499ZM34.4636 44.7534C35.941 42.291 36.9342 39.363 37.4913 36.0206L33.5457 35.363C33.0516 38.3274 32.1982 40.7545 31.0336 42.6954L34.4636 44.7534ZM69.13 14.3636V12.3636H67.4346L67.157 14.0361L69.13 14.3636ZM78.3345 14.3636L80.3075 14.6914L80.6942 12.3636H78.3345V14.3636ZM73.7749 41.8068L71.8019 41.479L71.4151 43.8068H73.7749V41.8068ZM74.1584 41.8068V43.8068H75.0815L75.6804 43.1043L74.1584 41.8068ZM97.5533 14.3636V12.3636H96.6301L96.0313 13.0661L97.5533 14.3636ZM105.629 14.3636L107.602 14.6912L107.988 12.3636H105.629V14.3636ZM98.3842 58V60H100.08L100.357 58.3275L98.3842 58ZM89.1584 58L87.1854 57.6724L86.799 60H89.1584V58ZM93.718 30.5355L95.691 30.8631L96.0775 28.5355H93.718V30.5355ZM93.3984 30.5355V28.5355H92.4781L91.8794 29.2345L93.3984 30.5355ZM69.8757 58V60H70.796L71.3947 59.301L69.8757 58ZM61.8857 58L59.9127 57.6725L59.5262 60H61.8857V58ZM69.13 16.3636H78.3345V12.3636H69.13V16.3636ZM76.3616 14.0358L71.8019 41.479L75.7478 42.1346L80.3075 14.6914L76.3616 14.0358ZM73.7749 43.8068H74.1584V39.8068H73.7749V43.8068ZM75.6804 43.1043L99.0753 15.6611L96.0313 13.0661L72.6364 40.5093L75.6804 43.1043ZM97.5533 16.3636H105.629V12.3636H97.5533V16.3636ZM103.656 14.0361L96.4112 57.6725L100.357 58.3275L107.602 14.6912L103.656 14.0361ZM98.3842 56H89.1584V60H98.3842V56ZM91.1314 58.3276L95.691 30.8631L91.745 30.208L87.1854 57.6724L91.1314 58.3276ZM93.718 28.5355H93.3984V32.5355H93.718V28.5355ZM91.8794 29.2345L68.3567 56.699L71.3947 59.301L94.9174 31.8365L91.8794 29.2345ZM69.8757 56H61.8857V60H69.8757V56ZM63.8586 58.3275L71.103 14.6912L67.157 14.0361L59.9127 57.6725L63.8586 58.3275ZM142.207 14.3636L144.179 14.6951L144.571 12.3636H142.207V14.3636ZM140.929 21.9702V23.9702H142.621L142.901 22.3017L140.929 21.9702ZM121.199 21.9702V19.9702H119.502L119.225 21.6435L121.199 21.9702ZM115.233 58V60H116.929L117.206 58.3267L115.233 58ZM106.007 58L104.034 57.6725L103.647 60H106.007V58ZM113.251 14.3636V12.3636H111.556L111.278 14.0361L113.251 14.3636ZM140.235 14.0321L138.956 21.6387L142.901 22.3017L144.179 14.6951L140.235 14.0321ZM140.929 19.9702H121.199V23.9702H140.929V19.9702ZM119.225 21.6435L113.259 57.6733L117.206 58.3267L123.172 22.2969L119.225 21.6435ZM115.233 56H106.007V60H115.233V56ZM107.98 58.3275L115.224 14.6912L111.278 14.0361L104.034 57.6725L107.98 58.3275ZM113.251 16.3636H142.207V12.3636H113.251V16.3636ZM140.87 58L138.897 57.6725L138.511 60H140.87V58ZM148.114 14.3636V12.3636H146.419L146.141 14.0361L148.114 14.3636ZM173.448 16.2599L172.423 17.977L172.429 17.981L172.436 17.985L173.448 16.2599ZM177.923 21.4801L176.054 22.1941L176.057 22.2013L176.06 22.2085L177.923 21.4801ZM178.519 29.1506L180.492 29.4778L180.494 29.4699L178.519 29.1506ZM175.366 36.8423L173.751 35.6623L173.75 35.6641L175.366 36.8423ZM169.102 41.9986L169.968 43.8012L169.968 43.8012L169.102 41.9986ZM149.222 43.8523L147.249 43.5281L146.867 45.8523H149.222V43.8523ZM150.437 36.4588V34.4588H148.739L148.463 36.1346L150.437 36.4588ZM164.499 35.5426L165.369 37.3435L165.378 37.3394L164.499 35.5426ZM167.546 32.9645L169.194 34.0985L169.2 34.0885L167.546 32.9645ZM169.016 29.1506L167.043 28.8249L167.041 28.8376L169.016 29.1506ZM168.782 25.3366L170.659 24.6452L170.659 24.6452L168.782 25.3366ZM166.587 22.8224L165.583 24.5517L165.596 24.5597L165.61 24.5675L166.587 22.8224ZM156.126 21.9062V19.9062H154.432L154.153 21.5767L156.126 21.9062ZM150.096 58V60H151.789L152.069 58.3296L150.096 58ZM142.843 58.3275L150.087 14.6912L146.141 14.0361L138.897 57.6725L142.843 58.3275ZM148.114 16.3636H165.33V12.3636H148.114V16.3636ZM165.33 16.3636C168.382 16.3636 170.704 16.9503 172.423 17.977L174.474 14.5429C171.96 13.0412 168.869 12.3636 165.33 12.3636V16.3636ZM172.436 17.985C174.19 19.0137 175.37 20.4042 176.054 22.1941L179.791 20.7661C178.77 18.0958 176.968 16.0062 174.46 14.5349L172.436 17.985ZM176.06 22.2085C176.769 24.0217 176.97 26.2044 176.545 28.8312L180.494 29.4699C181.006 26.3013 180.809 23.3703 179.785 20.7518L176.06 22.2085ZM176.546 28.8233C176.11 31.4507 175.172 33.7175 173.751 35.6623L176.981 38.0224C178.798 35.5353 179.962 32.6743 180.492 29.4778L176.546 28.8233ZM173.75 35.6641C172.348 37.5863 170.523 39.0963 168.235 40.196L169.968 43.8012C172.822 42.4293 175.173 40.5017 176.982 38.0205L173.75 35.6641ZM168.235 40.196C165.979 41.2805 163.315 41.8523 160.195 41.8523V45.8523C163.808 45.8523 167.082 45.1883 169.968 43.8012L168.235 40.196ZM160.195 41.8523H149.222V45.8523H160.195V41.8523ZM151.196 44.1765L152.41 36.783L148.463 36.1346L147.249 43.5281L151.196 44.1765ZM150.437 38.4588H159.918V34.4588H150.437V38.4588ZM159.918 38.4588C161.929 38.4588 163.77 38.1162 165.369 37.3434L163.629 33.7418C162.7 34.1906 161.487 34.4588 159.918 34.4588V38.4588ZM165.378 37.3394C166.942 36.5745 168.232 35.4959 169.194 34.0985L165.899 31.8305C165.355 32.6206 164.613 33.2608 163.621 33.7458L165.378 37.3394ZM169.2 34.0885C170.132 32.7171 170.722 31.164 170.992 29.4635L167.041 28.8376C166.856 30.0065 166.466 30.996 165.892 31.8404L169.2 34.0885ZM170.99 29.4763C171.272 27.7679 171.206 26.1305 170.659 24.6452L166.905 26.0281C167.154 26.7018 167.244 27.6071 167.043 28.8249L170.99 29.4763ZM170.659 24.6452C170.086 23.0897 169.018 21.8914 167.565 21.0774L165.61 24.5675C166.287 24.9467 166.683 25.4245 166.905 26.0281L170.659 24.6452ZM167.592 21.0932C166.127 20.2417 164.324 19.9062 162.347 19.9062V23.9062C163.922 23.9062 164.946 24.1816 165.583 24.5517L167.592 21.0932ZM162.347 19.9062H156.126V23.9062H162.347V19.9062ZM154.153 21.5767L148.123 57.6704L152.069 58.3296L158.098 22.2358L154.153 21.5767ZM150.096 56H140.87V60H150.096V56ZM179.718 58L177.745 57.6725L177.358 60H179.718V58ZM186.962 14.3636V12.3636H185.267L184.989 14.0361L186.962 14.3636ZM216.365 14.3636L218.338 14.6951L218.73 12.3636H216.365V14.3636ZM215.087 21.9702V23.9702H216.779L217.059 22.3017L215.087 21.9702ZM194.909 21.9702V19.9702H193.211L192.936 21.6466L194.909 21.9702ZM193.205 32.3679L191.231 32.0443L190.85 34.3679H193.205V32.3679ZM211.87 32.3679L213.842 32.6994L214.234 30.3679H211.87V32.3679ZM210.591 39.9744V41.9744H212.283L212.564 40.3059L210.591 39.9744ZM191.926 39.9744V37.9744H190.227L189.953 39.6515L191.926 39.9744ZM190.222 50.3935L188.248 50.0706L187.868 52.3935H190.222V50.3935ZM210.485 50.3935L212.457 50.725L212.849 48.3935H210.485V50.3935ZM209.206 58V60H210.898L211.179 58.3315L209.206 58ZM181.691 58.3275L188.935 14.6912L184.989 14.0361L177.745 57.6725L181.691 58.3275ZM186.962 16.3636H216.365V12.3636H186.962V16.3636ZM214.393 14.0321L213.115 21.6387L217.059 22.3017L218.338 14.6951L214.393 14.0321ZM215.087 19.9702H194.909V23.9702H215.087V19.9702ZM192.936 21.6466L191.231 32.0443L195.179 32.6914L196.883 22.2937L192.936 21.6466ZM193.205 34.3679H211.87V30.3679H193.205V34.3679ZM209.897 32.0364L208.619 39.6429L212.564 40.3059L213.842 32.6994L209.897 32.0364ZM210.591 37.9744H191.926V41.9744H210.591V37.9744ZM189.953 39.6515L188.248 50.0706L192.196 50.7164L193.9 40.2973L189.953 39.6515ZM190.222 52.3935H210.485V48.3935H190.222V52.3935ZM208.512 50.062L207.234 57.6685L211.179 58.3315L212.457 50.725L208.512 50.062ZM209.206 56H179.718V60H209.206V56Z" fill="url(#paint0_linear_1851_53)"/>
<path d="M43.892 36.1818C43.892 40.9403 42.9901 44.9886 41.1861 48.3267C39.3963 51.6648 36.9531 54.2145 33.8565 55.9759C30.7741 57.723 27.3082 58.5966 23.4588 58.5966C19.581 58.5966 16.1009 57.7159 13.0185 55.9545C9.93608 54.1932 7.5 51.6435 5.71023 48.3054C3.92045 44.9673 3.02557 40.9261 3.02557 36.1818C3.02557 31.4233 3.92045 27.375 5.71023 24.0369C7.5 20.6989 9.93608 18.1562 13.0185 16.4091C16.1009 14.6477 19.581 13.767 23.4588 13.767C27.3082 13.767 30.7741 14.6477 33.8565 16.4091C36.9531 18.1562 39.3963 20.6989 41.1861 24.0369C42.9901 27.375 43.892 31.4233 43.892 36.1818ZM34.5384 36.1818C34.5384 33.0994 34.0767 30.5 33.1534 28.3835C32.2443 26.267 30.9588 24.6619 29.2969 23.5682C27.6349 22.4744 25.6889 21.9276 23.4588 21.9276C21.2287 21.9276 19.2827 22.4744 17.6207 23.5682C15.9588 24.6619 14.6662 26.267 13.7429 28.3835C12.8338 30.5 12.3793 33.0994 12.3793 36.1818C12.3793 39.2642 12.8338 41.8636 13.7429 43.9801C14.6662 46.0966 15.9588 47.7017 17.6207 48.7955C19.2827 49.8892 21.2287 50.4361 23.4588 50.4361C25.6889 50.4361 27.6349 49.8892 29.2969 48.7955C30.9588 47.7017 32.2443 46.0966 33.1534 43.9801C34.0767 41.8636 34.5384 39.2642 34.5384 36.1818ZM64.6129 14.3636H73.8175V41.8068H74.1797L93.0362 14.3636H101.112V58H91.8857V30.5355H91.5661L72.603 58H64.6129V14.3636ZM137.69 14.3636V21.9702H117.96V58H108.734V14.3636H137.69ZM143.597 58V14.3636H160.813C164.123 14.3636 166.942 14.9957 169.272 16.2599C171.602 17.5099 173.377 19.25 174.599 21.4801C175.835 23.696 176.452 26.2528 176.452 29.1506C176.452 32.0483 175.827 34.6051 174.577 36.821C173.327 39.0369 171.516 40.7628 169.144 41.9986C166.786 43.2344 163.931 43.8523 160.579 43.8523H149.606V36.4588H159.087C160.863 36.4588 162.326 36.1534 163.477 35.5426C164.641 34.9176 165.508 34.0582 166.076 32.9645C166.658 31.8565 166.95 30.5852 166.95 29.1506C166.95 27.7017 166.658 26.4375 166.076 25.358C165.508 24.2642 164.641 23.419 163.477 22.8224C162.312 22.2116 160.835 21.9062 159.045 21.9062H152.823V58H143.597ZM182.445 58V14.3636H211.848V21.9702H191.671V32.3679H210.336V39.9744H191.671V50.3935H211.934V58H182.445Z" fill="white"/>
<defs>
<linearGradient id="paint0_linear_1851_53" x1="1.43343e-07" y1="36.9999" x2="216" y2="36.9999" gradientUnits="userSpaceOnUse">
<stop stop-color="#8D72E1"/>
<stop offset="1" stop-color="#8D9EFF"/>
</linearGradient>
</defs>
</svg>
