<svg width="832" height="73" viewBox="0 0 832 73" fill="none" xmlns="http://www.w3.org/2000/svg">
<path d="M44.233 29.6406V31.6406H46.1558L46.2314 29.7192L44.233 29.6406ZM35.0284 29.6406L33.0289 29.5941L32.9814 31.6406H35.0284V29.6406ZM34.5597 26.402L32.6768 27.0764L32.6801 27.0855L34.5597 26.402ZM33.0256 23.973L31.6114 25.3872L31.6188 25.3947L31.6263 25.402L33.0256 23.973ZM30.5753 22.4602L29.8852 24.3374L29.8974 24.3419L29.9096 24.3462L30.5753 22.4602ZM20.902 23.6747L21.9291 25.3908L21.9291 25.3908L20.902 23.6747ZM15.9801 28.7457L17.6902 29.7828L17.6932 29.778L15.9801 28.7457ZM13.2102 36.7358L15.1835 37.0616L15.184 37.0588L13.2102 36.7358ZM13.2955 44.2997L15.225 43.7735L15.225 43.7735L13.2955 44.2997ZM16.2358 48.902L15.0488 50.5117L15.058 50.5184L15.0672 50.5251L16.2358 48.902ZM25.2699 49.946L25.804 51.8734L25.8147 51.8704L25.8254 51.8673L25.2699 49.946ZM28.4872 48.4972L29.5737 50.1763L29.5798 50.1724L28.4872 48.4972ZM31.044 46.1747L29.4918 44.9135L29.4858 44.9209L29.4799 44.9283L31.044 46.1747ZM32.7699 43.0852V41.0852H31.3616L30.8869 42.4111L32.7699 43.0852ZM42.0384 43.0852L43.9588 43.6437L44.7028 41.0852H42.0384V43.0852ZM39.3111 48.8807L37.645 47.7742L37.6392 47.7831L39.3111 48.8807ZM34.7727 53.8665L36.0251 55.4258L36.0325 55.4198L34.7727 53.8665ZM28.6151 57.3182L27.9204 55.4427L27.9204 55.4427L28.6151 57.3182ZM10.8452 55.8693L9.76323 57.5514L9.76706 57.5539L10.8452 55.8693ZM4.73011 48.0071L2.85144 48.6931L2.85144 48.6931L4.73011 48.0071ZM4.02699 35.6278L2.05434 35.2981L2.05265 35.3085L4.02699 35.6278ZM8.60795 23.7386L6.96949 22.5917L6.96848 22.5932L8.60795 23.7386ZM16.9389 16.3026L16.023 14.5246L16.0199 14.5262L16.9389 16.3026ZM39.8864 17.9432L38.5298 19.4128L38.5371 19.4196L38.5445 19.4263L39.8864 17.9432ZM43.2528 22.9077L41.3858 23.6247L41.3858 23.6247L43.2528 22.9077ZM44.233 27.6406H35.0284V31.6406H44.233V27.6406ZM37.0279 29.6871C37.0608 28.2711 36.8819 26.9358 36.4392 25.7185L32.6801 27.0855C32.9192 27.7432 33.0528 28.567 33.0289 29.5941L37.0279 29.6871ZM36.4425 25.7275C36.0058 24.5083 35.3356 23.4358 34.4248 22.544L31.6263 25.402C32.0792 25.8454 32.4317 26.3923 32.6768 27.0764L36.4425 25.7275ZM34.4398 22.5588C33.5435 21.6625 32.4642 21.006 31.2409 20.5742L29.9096 24.3462C30.6182 24.5963 31.1724 24.9483 31.6114 25.3872L34.4398 22.5588ZM31.2654 20.5831C30.0439 20.134 28.7183 19.9276 27.3153 19.9276V23.9276C28.3272 23.9276 29.1749 24.0763 29.8852 24.3374L31.2654 20.5831ZM27.3153 19.9276C24.6343 19.9276 22.14 20.6028 19.8748 21.9586L21.9291 25.3908C23.556 24.417 25.3372 23.9276 27.3153 23.9276V19.9276ZM19.8748 21.9586C17.6102 23.3141 15.7474 25.2568 14.2671 27.7135L17.6932 29.778C18.8833 27.8029 20.3017 26.3649 21.9291 25.3908L19.8748 21.9586ZM14.27 27.7086C12.7753 30.1733 11.78 33.0914 11.2365 36.4128L15.184 37.0588C15.6632 34.1302 16.5145 31.7216 17.6902 29.7828L14.27 27.7086ZM11.2369 36.41C10.7124 39.5875 10.7101 42.4214 11.3659 44.826L15.225 43.7735C14.7728 42.1155 14.7138 39.9068 15.1835 37.0616L11.2369 36.41ZM11.3659 44.8259C12.0133 47.1996 13.2101 49.1559 15.0488 50.5117L17.4227 47.2923C16.4489 46.5742 15.6856 45.4624 15.225 43.7735L11.3659 44.8259ZM15.0672 50.5251C16.8941 51.8405 19.0949 52.4361 21.5412 52.4361V48.4361C19.7546 48.4361 18.4184 48.009 17.4044 47.2789L15.0672 50.5251ZM21.5412 52.4361C23.0162 52.4361 24.4396 52.2515 25.804 51.8734L24.7358 48.0187C23.7422 48.294 22.6798 48.4361 21.5412 48.4361V52.4361ZM25.8254 51.8673C27.1798 51.4757 28.433 50.9144 29.5737 50.1763L27.4007 46.818C26.6096 47.3299 25.718 47.7345 24.7143 48.0247L25.8254 51.8673ZM29.5798 50.1724C30.7378 49.4172 31.7496 48.4986 32.6082 47.4211L29.4799 44.9283C28.8896 45.669 28.1969 46.2988 27.3947 46.8219L29.5798 50.1724ZM32.5963 47.4359C33.4837 46.3437 34.168 45.1136 34.6528 43.7594L30.8869 42.4111C30.5479 43.358 30.0817 44.1875 29.4918 44.9135L32.5963 47.4359ZM32.7699 45.0852H42.0384V41.0852H32.7699V45.0852ZM40.1179 42.5268C39.5959 44.3218 38.7767 46.0702 37.645 47.7742L40.9771 49.9871C42.317 47.9696 43.316 45.8543 43.9588 43.6437L40.1179 42.5268ZM37.6392 47.7831C36.5355 49.4643 35.1639 50.9742 33.5129 52.3131L36.0325 55.4198C37.9895 53.8327 39.6435 52.0187 40.983 49.9783L37.6392 47.7831ZM33.5203 52.3071C31.894 53.6134 30.0321 54.6606 27.9204 55.4427L29.3097 59.1937C31.8003 58.2712 34.0435 57.0173 36.0251 55.4258L33.5203 52.3071ZM27.9204 55.4427C25.8661 56.2035 23.5831 56.5966 21.0511 56.5966V60.5966C24.0021 60.5966 26.7617 60.1374 29.3097 59.1937L27.9204 55.4427ZM21.0511 56.5966C17.4022 56.5966 14.3895 55.7631 11.9233 54.1848L9.76706 57.5539C12.9827 59.6119 16.774 60.5966 21.0511 60.5966V56.5966ZM11.9271 54.1872C9.49914 52.6255 7.72245 50.371 6.60879 47.3211L2.85144 48.6931C4.23778 52.4898 6.53779 55.4767 9.76323 57.5514L11.9271 54.1872ZM6.60879 47.3211C5.50955 44.3107 5.25671 40.5503 6.00132 35.9472L2.05265 35.3085C1.23476 40.3645 1.45068 44.8569 2.85144 48.6931L6.60879 47.3211ZM5.99961 35.9576C6.74123 31.5214 8.17489 27.8504 10.2474 24.8841L6.96848 22.5932C4.49556 26.1325 2.87524 30.3877 2.05436 35.2981L5.99961 35.9576ZM10.2464 24.8856C12.3639 21.8606 14.9018 19.6084 17.858 18.0789L16.0199 14.5262C12.4419 16.3774 9.42587 19.0826 6.96949 22.5917L10.2464 24.8856ZM17.8548 18.0805C20.8493 16.5379 24.0433 15.767 27.4645 15.767V11.767C23.4141 11.767 19.5911 12.6865 16.023 14.5246L17.8548 18.0805ZM27.4645 15.767C29.8827 15.767 32.0128 16.0974 33.8769 16.7272L35.1572 12.9376C32.8168 12.1469 30.2452 11.767 27.4645 11.767V15.767ZM33.8769 16.7272C35.741 17.3569 37.2794 18.2585 38.5298 19.4128L41.2429 16.4736C39.5388 14.9006 37.4977 13.7283 35.1572 12.9376L33.8769 16.7272ZM38.5445 19.4263C39.7929 20.5557 40.7404 21.9442 41.3858 23.6247L45.1199 22.1906C44.2596 19.9507 42.9628 18.0295 41.2282 16.4601L38.5445 19.4263ZM41.3858 23.6247C42.0235 25.285 42.3254 27.2505 42.2345 29.562L46.2314 29.7192C46.3394 26.9739 45.9879 24.4508 45.1199 22.1906L41.3858 23.6247ZM53.4268 14.3636V12.3636H51.7315L51.4539 14.0361L53.4268 14.3636ZM62.6314 14.3636L64.6043 14.6914L64.9911 12.3636H62.6314V14.3636ZM58.0717 41.8068L56.0988 41.479L55.712 43.8068H58.0717V41.8068ZM58.4553 41.8068V43.8068H59.3784L59.9773 43.1043L58.4553 41.8068ZM81.8501 14.3636V12.3636H80.927L80.3281 13.0661L81.8501 14.3636ZM89.9254 14.3636L91.8984 14.6912L92.2848 12.3636H89.9254V14.3636ZM82.6811 58V60H84.3765L84.6541 58.3275L82.6811 58ZM73.4553 58L71.4823 57.6724L71.0958 60H73.4553V58ZM78.0149 30.5355L79.9879 30.8631L80.3743 28.5355H78.0149V30.5355ZM77.6953 30.5355V28.5355H76.775L76.1763 29.2345L77.6953 30.5355ZM54.1726 58V60H55.0929L55.6916 59.301L54.1726 58ZM46.1825 58L44.2095 57.6725L43.8231 60H46.1825V58ZM53.4268 16.3636H62.6314V12.3636H53.4268V16.3636ZM60.6584 14.0358L56.0988 41.479L60.0447 42.1346L64.6043 14.6914L60.6584 14.0358ZM58.0717 43.8068H58.4553V39.8068H58.0717V43.8068ZM59.9773 43.1043L83.3722 15.6611L80.3281 13.0661L56.9332 40.5093L59.9773 43.1043ZM81.8501 16.3636H89.9254V12.3636H81.8501V16.3636ZM87.9524 14.0361L80.7081 57.6725L84.6541 58.3275L91.8984 14.6912L87.9524 14.0361ZM82.6811 56H73.4553V60H82.6811V56ZM75.4283 58.3276L79.9879 30.8631L76.0419 30.208L71.4823 57.6724L75.4283 58.3276ZM78.0149 28.5355H77.6953V32.5355H78.0149V28.5355ZM76.1763 29.2345L52.6536 56.699L55.6916 59.301L79.2143 31.8365L76.1763 29.2345ZM54.1726 56H46.1825V60H54.1726V56ZM48.1555 58.3275L55.3998 14.6912L51.4539 14.0361L44.2095 57.6725L48.1555 58.3275ZM133.471 29.6406V31.6406H135.394L135.47 29.7192L133.471 29.6406ZM124.267 29.6406L122.267 29.5941L122.22 31.6406H124.267V29.6406ZM123.798 26.402L121.915 27.0764L121.918 27.0855L123.798 26.402ZM122.264 23.973L120.85 25.3872L120.857 25.3947L120.865 25.402L122.264 23.973ZM119.814 22.4602L119.123 24.3374L119.136 24.3419L119.148 24.3462L119.814 22.4602ZM110.14 23.6747L111.167 25.3908L111.167 25.3908L110.14 23.6747ZM105.218 28.7457L106.929 29.7828L106.931 29.778L105.218 28.7457ZM102.449 36.7358L104.422 37.0616L104.422 37.0588L102.449 36.7358ZM102.534 44.2997L104.463 43.7735L104.463 43.7735L102.534 44.2997ZM105.474 48.902L104.287 50.5117L104.296 50.5184L104.305 50.5251L105.474 48.902ZM114.508 49.946L115.042 51.8734L115.053 51.8704L115.064 51.8673L114.508 49.946ZM117.725 48.4972L118.812 50.1763L118.818 50.1724L117.725 48.4972ZM120.282 46.1747L118.73 44.9135L118.724 44.9209L118.718 44.9283L120.282 46.1747ZM122.008 43.0852V41.0852H120.6L120.125 42.4111L122.008 43.0852ZM131.277 43.0852L133.197 43.6437L133.941 41.0852H131.277V43.0852ZM128.549 48.8807L126.883 47.7742L126.877 47.7831L128.549 48.8807ZM124.011 53.8665L125.263 55.4258L125.271 55.4198L124.011 53.8665ZM117.853 57.3182L117.159 55.4427L117.159 55.4427L117.853 57.3182ZM100.083 55.8693L99.0015 57.5514L99.0053 57.5539L100.083 55.8693ZM93.9684 48.0071L92.0897 48.6931L92.0897 48.6931L93.9684 48.0071ZM93.2653 35.6278L91.2926 35.2981L91.2909 35.3085L93.2653 35.6278ZM97.8462 23.7386L96.2078 22.5917L96.2068 22.5932L97.8462 23.7386ZM106.177 16.3026L105.261 14.5246L105.258 14.5262L106.177 16.3026ZM129.125 17.9432L127.768 19.4128L127.775 19.4196L127.783 19.4263L129.125 17.9432ZM132.491 22.9077L130.624 23.6247L130.624 23.6247L132.491 22.9077ZM133.471 27.6406H124.267V31.6406H133.471V27.6406ZM126.266 29.6871C126.299 28.2711 126.12 26.9358 125.678 25.7185L121.918 27.0855C122.158 27.7432 122.291 28.567 122.267 29.5941L126.266 29.6871ZM125.681 25.7275C125.244 24.5083 124.574 23.4358 123.663 22.544L120.865 25.402C121.317 25.8454 121.67 26.3923 121.915 27.0764L125.681 25.7275ZM123.678 22.5588C122.782 21.6625 121.702 21.006 120.479 20.5742L119.148 24.3462C119.857 24.5963 120.411 24.9483 120.85 25.3872L123.678 22.5588ZM120.504 20.5831C119.282 20.134 117.957 19.9276 116.554 19.9276V23.9276C117.565 23.9276 118.413 24.0763 119.123 24.3374L120.504 20.5831ZM116.554 19.9276C113.873 19.9276 111.378 20.6028 109.113 21.9586L111.167 25.3908C112.794 24.417 114.576 23.9276 116.554 23.9276V19.9276ZM109.113 21.9586C106.848 23.3141 104.986 25.2568 103.505 27.7135L106.931 29.778C108.122 27.8029 109.54 26.3649 111.167 25.3908L109.113 21.9586ZM103.508 27.7086C102.014 30.1733 101.018 33.0914 100.475 36.4128L104.422 37.0588C104.901 34.1302 105.753 31.7216 106.928 29.7828L103.508 27.7086ZM100.475 36.41C99.9506 39.5875 99.9484 42.4214 100.604 44.826L104.463 43.7735C104.011 42.1155 103.952 39.9068 104.422 37.0616L100.475 36.41ZM100.604 44.8259C101.252 47.1996 102.448 49.1559 104.287 50.5117L106.661 47.2923C105.687 46.5742 104.924 45.4624 104.463 43.7735L100.604 44.8259ZM104.305 50.5251C106.132 51.8405 108.333 52.4361 110.779 52.4361V48.4361C108.993 48.4361 107.657 48.009 106.643 47.2789L104.305 50.5251ZM110.779 52.4361C112.255 52.4361 113.678 52.2515 115.042 51.8734L113.974 48.0187C112.98 48.294 111.918 48.4361 110.779 48.4361V52.4361ZM115.064 51.8673C116.418 51.4757 117.671 50.9144 118.812 50.1763L116.639 46.818C115.848 47.3299 114.956 47.7345 113.953 48.0247L115.064 51.8673ZM118.818 50.1724C119.976 49.4172 120.988 48.4986 121.846 47.4211L118.718 44.9283C118.128 45.669 117.435 46.2988 116.633 46.8219L118.818 50.1724ZM121.835 47.4359C122.722 46.3437 123.406 45.1136 123.891 43.7594L120.125 42.4111C119.786 43.358 119.32 44.1875 118.73 44.9135L121.835 47.4359ZM122.008 45.0852H131.277V41.0852H122.008V45.0852ZM129.356 42.5268C128.834 44.3218 128.015 46.0702 126.883 47.7742L130.215 49.9871C131.555 47.9696 132.554 45.8543 133.197 43.6437L129.356 42.5268ZM126.877 47.7831C125.774 49.4643 124.402 50.9742 122.751 52.3131L125.271 55.4198C127.228 53.8327 128.882 52.0187 130.221 49.9783L126.877 47.7831ZM122.759 52.3071C121.132 53.6134 119.27 54.6606 117.159 55.4427L118.548 59.1937C121.039 58.2712 123.282 57.0173 125.263 55.4258L122.759 52.3071ZM117.159 55.4427C115.104 56.2035 112.821 56.5966 110.289 56.5966V60.5966C113.24 60.5966 116 60.1374 118.548 59.1937L117.159 55.4427ZM110.289 56.5966C106.64 56.5966 103.628 55.7631 101.162 54.1848L99.0053 57.5539C102.221 59.6119 106.012 60.5966 110.289 60.5966V56.5966ZM101.165 54.1872C98.7374 52.6255 96.9607 50.371 95.8471 47.3211L92.0897 48.6931C93.4761 52.4898 95.7761 55.4767 99.0015 57.5514L101.165 54.1872ZM95.8471 47.3211C94.7478 44.3107 94.495 40.5503 95.2396 35.9472L91.2909 35.3085C90.473 40.3645 90.689 44.8569 92.0897 48.6931L95.8471 47.3211ZM95.2379 35.9576C95.9795 31.5214 97.4132 27.8504 99.4857 24.8841L96.2068 22.5932C93.7338 26.1325 92.1135 30.3877 91.2926 35.2981L95.2379 35.9576ZM99.4847 24.8856C101.602 21.8606 104.14 19.6084 107.096 18.0789L105.258 14.5262C101.68 16.3774 98.6641 19.0826 96.2078 22.5917L99.4847 24.8856ZM107.093 18.0805C110.088 16.5379 113.282 15.767 116.703 15.767V11.767C112.652 11.767 108.829 12.6865 105.261 14.5246L107.093 18.0805ZM116.703 15.767C119.121 15.767 121.251 16.0974 123.115 16.7272L124.395 12.9376C122.055 12.1469 119.483 11.767 116.703 11.767V15.767ZM123.115 16.7272C124.979 17.3569 126.518 18.2585 127.768 19.4128L130.481 16.4736C128.777 14.9006 126.736 13.7283 124.395 12.9376L123.115 16.7272ZM127.783 19.4263C129.031 20.5557 129.979 21.9442 130.624 23.6247L134.358 22.1906C133.498 19.9507 132.201 18.0295 130.466 16.4601L127.783 19.4263ZM130.624 23.6247C131.262 25.285 131.564 27.2505 131.473 29.562L135.47 29.7192C135.578 26.9739 135.226 24.4508 134.358 22.1906L130.624 23.6247ZM139.725 21.9702L137.752 21.6387L137.361 23.9702H139.725V21.9702ZM141.003 14.3636V12.3636H139.311L139.031 14.0321L141.003 14.3636ZM176.841 14.3636L178.814 14.6951L179.205 12.3636H176.841V14.3636ZM175.563 21.9702V23.9702H177.255L177.535 22.3017L175.563 21.9702ZM162.203 21.9702V19.9702H160.507L160.23 21.6435L162.203 21.9702ZM156.238 58V60H157.934L158.211 58.3267L156.238 58ZM147.118 58L145.145 57.6733L144.76 60H147.118V58ZM153.084 21.9702L155.057 22.2969L155.443 19.9702H153.084V21.9702ZM141.697 22.3017L142.976 14.6951L139.031 14.0321L137.752 21.6387L141.697 22.3017ZM141.003 16.3636H176.841V12.3636H141.003V16.3636ZM174.869 14.0321L173.591 21.6387L177.535 22.3017L178.814 14.6951L174.869 14.0321ZM175.563 19.9702H162.203V23.9702H175.563V19.9702ZM160.23 21.6435L154.264 57.6733L158.211 58.3267L164.177 22.2969L160.23 21.6435ZM156.238 56H147.118V60H156.238V56ZM149.091 58.3267L155.057 22.2969L151.111 21.6435L145.145 57.6733L149.091 58.3267ZM153.084 19.9702H139.725V23.9702H153.084V19.9702ZM175.499 58L173.526 57.6725L173.14 60H175.499V58ZM182.743 14.3636V12.3636H181.048L180.77 14.0361L182.743 14.3636ZM212.147 14.3636L214.119 14.6951L214.511 12.3636H212.147V14.3636ZM210.868 21.9702V23.9702H212.56L212.841 22.3017L210.868 21.9702ZM190.691 21.9702V19.9702H188.992L188.717 21.6466L190.691 21.9702ZM188.986 32.3679L187.012 32.0443L186.632 34.3679H188.986V32.3679ZM207.651 32.3679L209.623 32.6994L210.015 30.3679H207.651V32.3679ZM206.373 39.9744V41.9744H208.064L208.345 40.3059L206.373 39.9744ZM187.708 39.9744V37.9744H186.008L185.734 39.6515L187.708 39.9744ZM186.003 50.3935L184.029 50.0706L183.649 52.3935H186.003V50.3935ZM206.266 50.3935L208.238 50.725L208.63 48.3935H206.266V50.3935ZM204.988 58V60H206.679L206.96 58.3315L204.988 58ZM177.472 58.3275L184.716 14.6912L180.77 14.0361L173.526 57.6725L177.472 58.3275ZM182.743 16.3636H212.147V12.3636H182.743V16.3636ZM210.174 14.0321L208.896 21.6387L212.841 22.3017L214.119 14.6951L210.174 14.0321ZM210.868 19.9702H190.691V23.9702H210.868V19.9702ZM188.717 21.6466L187.012 32.0443L190.96 32.6914L192.664 22.2937L188.717 21.6466ZM188.986 34.3679H207.651V30.3679H188.986V34.3679ZM205.679 32.0364L204.4 39.6429L208.345 40.3059L209.623 32.6994L205.679 32.0364ZM206.373 37.9744H187.708V41.9744H206.373V37.9744ZM185.734 39.6515L184.029 50.0706L187.977 50.7164L189.682 40.2973L185.734 39.6515ZM186.003 52.3935H206.266V48.3935H186.003V52.3935ZM204.294 50.062L203.015 57.6685L206.96 58.3315L208.238 50.725L204.294 50.062ZM204.988 56H175.499V60H204.988V56ZM219.482 14.3636V12.3636H217.786L217.509 14.0361L219.482 14.3636ZM230.859 14.3636L232.802 13.8879L232.429 12.3636H230.859V14.3636ZM238.04 43.6818L236.097 44.1576L236.47 45.6818H238.04V43.6818ZM238.551 43.6818V45.6818H239.708L240.285 44.6786L238.551 43.6818ZM255.405 14.3636V12.3636H254.248L253.671 13.3669L255.405 14.3636ZM266.783 14.3636L268.756 14.6912L269.142 12.3636H266.783V14.3636ZM259.538 58V60H261.234L261.511 58.3275L259.538 58ZM250.589 58L248.617 57.6714L248.229 60H250.589V58ZM255.32 29.598L257.292 29.9266L257.68 27.598H255.32V29.598ZM254.936 29.598V27.598H253.769L253.195 28.6137L254.936 29.598ZM238.999 57.7869V59.7869H240.165L240.74 58.7713L238.999 57.7869ZM232.884 57.7869L230.935 58.2388L231.294 59.7869H232.884V57.7869ZM226.321 29.4915L228.269 29.0396L227.91 27.4915H226.321V29.4915ZM225.959 29.4915V27.4915H224.266L223.986 29.1612L225.959 29.4915ZM221.186 58V60H222.879L223.159 58.3302L221.186 58ZM212.237 58L210.264 57.6725L209.878 60H212.237V58ZM219.482 16.3636H230.859V12.3636H219.482V16.3636ZM228.917 14.8394L236.097 44.1576L239.982 43.2061L232.802 13.8879L228.917 14.8394ZM238.04 45.6818H238.551V41.6818H238.04V45.6818ZM240.285 44.6786L257.139 15.3604L253.671 13.3669L236.817 42.6851L240.285 44.6786ZM255.405 16.3636H266.783V12.3636H255.405V16.3636ZM264.81 14.0361L257.565 57.6725L261.511 58.3275L268.756 14.6912L264.81 14.0361ZM259.538 56H250.589V60H259.538V56ZM252.562 58.3286L257.292 29.9266L253.347 29.2695L248.617 57.6714L252.562 58.3286ZM255.32 27.598H254.936V31.598H255.32V27.598ZM253.195 28.6137L237.258 56.8026L240.74 58.7713L256.677 30.5823L253.195 28.6137ZM238.999 55.7869H232.884V59.7869H238.999V55.7869ZM234.832 57.3351L228.269 29.0396L224.373 29.9433L230.935 58.2388L234.832 57.3351ZM226.321 27.4915H225.959V31.4915H226.321V27.4915ZM223.986 29.1612L219.214 57.6698L223.159 58.3302L227.931 29.8217L223.986 29.1612ZM221.186 56H212.237V60H221.186V56ZM214.21 58.3275L221.455 14.6912L217.509 14.0361L210.264 57.6725L214.21 58.3275ZM267.14 58L265.167 57.6725L264.78 60H267.14V58ZM274.384 14.3636V12.3636H272.689L272.411 14.0361L274.384 14.3636ZM283.61 14.3636L285.583 14.6905L285.968 12.3636H283.61V14.3636ZM280.627 32.3679L278.654 32.041L278.268 34.3679H280.627V32.3679ZM299.355 32.3679V34.3679H301.051L301.329 32.6948L299.355 32.3679ZM302.338 14.3636V12.3636H300.643L300.365 14.0367L302.338 14.3636ZM311.543 14.3636L313.516 14.6912L313.902 12.3636H311.543V14.3636ZM304.299 58V60H305.994L306.272 58.3275L304.299 58ZM295.094 58L293.121 57.6735L292.736 60H295.094V58ZM298.077 39.9744L300.05 40.301L300.435 37.9744H298.077V39.9744ZM279.348 39.9744V37.9744H277.652L277.375 39.6479L279.348 39.9744ZM276.365 58V60H278.062L278.339 58.3265L276.365 58ZM269.113 58.3275L276.357 14.6912L272.411 14.0361L265.167 57.6725L269.113 58.3275ZM274.384 16.3636H283.61V12.3636H274.384V16.3636ZM281.637 14.0367L278.654 32.041L282.6 32.6948L285.583 14.6905L281.637 14.0367ZM280.627 34.3679H299.355V30.3679H280.627V34.3679ZM301.329 32.6948L304.312 14.6905L300.365 14.0367L297.382 32.041L301.329 32.6948ZM302.338 16.3636H311.543V12.3636H302.338V16.3636ZM309.57 14.0361L302.326 57.6725L306.272 58.3275L313.516 14.6912L309.57 14.0361ZM304.299 56H295.094V60H304.299V56ZM297.067 58.3265L300.05 40.301L296.104 39.6479L293.121 57.6735L297.067 58.3265ZM298.077 37.9744H279.348V41.9744H298.077V37.9744ZM277.375 39.6479L274.392 57.6735L278.339 58.3265L281.322 40.301L277.375 39.6479ZM276.365 56H267.14V60H276.365V56ZM322.154 30.4929V28.4929H320.46L320.181 30.1641L322.154 30.4929ZM341.223 32.1761L340.351 33.9759L340.358 33.9791L340.364 33.9823L341.223 32.1761ZM346.252 36.8849L344.465 37.7844L344.47 37.7943L346.252 36.8849ZM347.104 44.0653L345.132 43.7299L345.131 43.7382L347.104 44.0653ZM343.844 51.331L345.388 52.602L345.392 52.5969L343.844 51.331ZM337.196 56.2315L336.399 54.3972L336.396 54.3988L337.196 56.2315ZM311.65 58L309.677 57.6725L309.29 60H311.65V58ZM318.894 14.3636V12.3636H317.198L316.921 14.0361L318.894 14.3636ZM328.12 14.3636L330.093 14.6909L330.479 12.3636H328.12V14.3636ZM322.111 50.5852L320.138 50.2579L319.752 52.5852H322.111V50.5852ZM333.532 49.6903L334.401 51.4915L334.41 51.4873L333.532 49.6903ZM336.536 47.2827L334.944 46.0719L334.941 46.0754L336.536 47.2827ZM337.963 43.9801L335.992 43.6408L335.99 43.6575L335.987 43.6742L337.963 43.9801ZM336.728 39.5909L335.263 40.9525L335.271 40.9611L336.728 39.5909ZM320.939 37.7798L318.966 37.451L318.578 39.7798H320.939V37.7798ZM365.172 14.3636L367.145 14.6912L367.532 12.3636H365.172V14.3636ZM357.928 58V60H359.623L359.901 58.3275L357.928 58ZM348.723 58L346.75 57.6725L346.364 60H348.723V58ZM355.968 14.3636V12.3636H354.272L353.995 14.0361L355.968 14.3636ZM322.154 32.4929H332.551V28.4929H322.154V32.4929ZM332.551 32.4929C335.815 32.4929 338.385 33.023 340.351 33.9759L342.096 30.3764C339.431 29.0849 336.22 28.4929 332.551 28.4929V32.4929ZM340.364 33.9823C342.349 34.9263 343.669 36.2025 344.465 37.7844L348.038 35.9855C346.789 33.5048 344.757 31.6419 342.082 30.37L340.364 33.9823ZM344.47 37.7943C345.271 39.3621 345.546 41.301 345.132 43.73L349.076 44.4007C349.6 41.3183 349.307 38.4703 348.033 35.9756L344.47 37.7943ZM345.131 43.7382C344.732 46.1435 343.788 48.2398 342.296 50.0651L345.392 52.5969C347.338 50.2176 348.567 47.4702 349.077 44.3925L345.131 43.7382ZM342.3 50.0599C340.801 51.8815 338.85 53.3323 336.399 54.3972L337.993 58.0658C340.969 56.7729 343.45 54.9566 345.388 52.602L342.3 50.0599ZM336.396 54.3988C333.989 55.4501 331.194 56 327.971 56V60C331.651 60 335.006 59.3709 337.997 58.0643L336.396 54.3988ZM327.971 56H311.65V60H327.971V56ZM313.622 58.3275L320.867 14.6912L316.921 14.0361L309.677 57.6725L313.622 58.3275ZM318.894 16.3636H328.12V12.3636H318.894V16.3636ZM326.147 14.0363L320.138 50.2579L324.084 50.9125L330.093 14.6909L326.147 14.0363ZM322.111 52.5852H329.206V48.5852H322.111V52.5852ZM329.206 52.5852C331.095 52.5852 332.845 52.2426 334.401 51.4914L332.662 47.8892C331.747 48.3312 330.613 48.5852 329.206 48.5852V52.5852ZM334.41 51.4873C335.908 50.7549 337.167 49.762 338.13 48.4899L334.941 46.0754C334.399 46.792 333.655 47.4042 332.654 47.8934L334.41 51.4873ZM338.128 48.4934C339.086 47.2335 339.702 45.8245 339.94 44.286L335.987 43.6742C335.856 44.5221 335.52 45.3148 334.944 46.0719L338.128 48.4934ZM339.934 44.3194C340.33 42.0204 339.772 39.9091 338.185 38.2207L335.271 40.9611C335.927 41.6591 336.193 42.474 335.992 43.6408L339.934 44.3194ZM338.193 38.2293C336.537 36.4484 334.087 35.7798 331.337 35.7798V39.7798C333.53 39.7798 334.674 40.3186 335.263 40.9525L338.193 38.2293ZM331.337 35.7798H320.939V39.7798H331.337V35.7798ZM322.912 38.1086L324.127 30.8217L320.181 30.1641L318.966 37.451L322.912 38.1086ZM363.199 14.0361L355.955 57.6725L359.901 58.3275L367.145 14.6912L363.199 14.0361ZM357.928 56H348.723V60H357.928V56ZM350.696 58.3275L357.941 14.6912L353.995 14.0361L346.75 57.6725L350.696 58.3275ZM355.968 16.3636H365.172V12.3636H355.968V16.3636ZM365.518 58L363.545 57.6725L363.159 60H365.518V58ZM372.763 14.3636V12.3636H371.067L370.79 14.0361L372.763 14.3636ZM402.166 14.3636L404.139 14.6951L404.53 12.3636H402.166V14.3636ZM400.888 21.9702V23.9702H402.58L402.86 22.3017L400.888 21.9702ZM380.71 21.9702V19.9702H379.011L378.737 21.6466L380.71 21.9702ZM379.006 32.3679L377.032 32.0443L376.651 34.3679H379.006V32.3679ZM397.67 32.3679L399.643 32.6994L400.035 30.3679H397.67V32.3679ZM396.392 39.9744V41.9744H398.084L398.364 40.3059L396.392 39.9744ZM377.727 39.9744V37.9744H376.028L375.754 39.6515L377.727 39.9744ZM376.023 50.3935L374.049 50.0706L373.669 52.3935H376.023V50.3935ZM396.286 50.3935L398.258 50.725L398.65 48.3935H396.286V50.3935ZM395.007 58V60H396.699L396.979 58.3315L395.007 58ZM367.491 58.3275L374.736 14.6912L370.79 14.0361L363.545 57.6725L367.491 58.3275ZM372.763 16.3636H402.166V12.3636H372.763V16.3636ZM400.194 14.0321L398.915 21.6387L402.86 22.3017L404.139 14.6951L400.194 14.0321ZM400.888 19.9702H380.71V23.9702H400.888V19.9702ZM378.737 21.6466L377.032 32.0443L380.979 32.6914L382.684 22.2937L378.737 21.6466ZM379.006 34.3679H397.67V30.3679H379.006V34.3679ZM395.698 32.0364L394.42 39.6429L398.364 40.3059L399.643 32.6994L395.698 32.0364ZM396.392 37.9744H377.727V41.9744H396.392V37.9744ZM375.754 39.6515L374.049 50.0706L377.996 50.7164L379.701 40.2973L375.754 39.6515ZM376.023 52.3935H396.286V48.3935H376.023V52.3935ZM394.313 50.062L393.035 57.6685L396.979 58.3315L398.258 50.725L394.313 50.062ZM395.007 56H365.518V60H395.007V56ZM420.447 21.9702L418.475 21.6387L418.083 23.9702H420.447V21.9702ZM421.726 14.3636V12.3636H420.034L419.754 14.0321L421.726 14.3636ZM457.564 14.3636L459.536 14.6951L459.928 12.3636H457.564V14.3636ZM456.286 21.9702V23.9702H457.977L458.258 22.3017L456.286 21.9702ZM442.926 21.9702V19.9702H441.23L440.953 21.6435L442.926 21.9702ZM436.96 58V60H438.656L438.933 58.3267L436.96 58ZM427.841 58L425.868 57.6733L425.483 60H427.841V58ZM433.807 21.9702L435.78 22.2969L436.165 19.9702H433.807V21.9702ZM422.42 22.3017L423.698 14.6951L419.754 14.0321L418.475 21.6387L422.42 22.3017ZM421.726 16.3636H457.564V12.3636H421.726V16.3636ZM455.592 14.0321L454.313 21.6387L458.258 22.3017L459.536 14.6951L455.592 14.0321ZM456.286 19.9702H442.926V23.9702H456.286V19.9702ZM440.953 21.6435L434.987 57.6733L438.933 58.3267L444.899 22.2969L440.953 21.6435ZM436.96 56H427.841V60H436.96V56ZM429.814 58.3267L435.78 22.2969L431.834 21.6435L425.868 57.6733L429.814 58.3267ZM433.807 19.9702H420.447V23.9702H433.807V19.9702ZM456.222 58L454.249 57.6725L453.862 60H456.222V58ZM463.466 14.3636V12.3636H461.771L461.493 14.0361L463.466 14.3636ZM488.8 16.2599L487.774 17.977L487.781 17.981L487.788 17.985L488.8 16.2599ZM493.274 21.4801L491.406 22.1941L491.409 22.2013L491.411 22.2085L493.274 21.4801ZM493.871 29.1506L495.844 29.4778L495.845 29.4699L493.871 29.1506ZM490.717 36.8423L489.103 35.6623L489.101 35.6641L490.717 36.8423ZM484.453 41.9986L485.32 43.8012L485.32 43.8012L484.453 41.9986ZM464.574 43.8523L462.6 43.5281L462.219 45.8523H464.574V43.8523ZM465.788 36.4588V34.4588H464.09L463.815 36.1346L465.788 36.4588ZM479.851 35.5426L480.721 37.3435L480.729 37.3394L479.851 35.5426ZM482.898 32.9645L484.545 34.0985L484.552 34.0885L482.898 32.9645ZM484.368 29.1506L482.395 28.8249L482.393 28.8376L484.368 29.1506ZM484.134 25.3366L486.01 24.6452L486.01 24.6452L484.134 25.3366ZM481.939 22.8224L480.934 24.5517L480.948 24.5597L480.962 24.5675L481.939 22.8224ZM471.477 21.9062V19.9062H469.784L469.505 21.5767L471.477 21.9062ZM465.447 58V60H467.141L467.42 58.3296L465.447 58ZM458.195 58.3275L465.439 14.6912L461.493 14.0361L454.249 57.6725L458.195 58.3275ZM463.466 16.3636H480.682V12.3636H463.466V16.3636ZM480.682 16.3636C483.734 16.3636 486.055 16.9503 487.774 17.977L489.825 14.5429C487.311 13.0412 484.221 12.3636 480.682 12.3636V16.3636ZM487.788 17.985C489.541 19.0137 490.722 20.4042 491.406 22.1941L495.142 20.7661C494.122 18.0958 492.32 16.0062 489.812 14.5349L487.788 17.985ZM491.411 22.2085C492.121 24.0217 492.321 26.2044 491.896 28.8312L495.845 29.4699C496.358 26.3013 496.161 23.3703 495.137 20.7518L491.411 22.2085ZM491.898 28.8233C491.462 31.4507 490.524 33.7175 489.103 35.6623L492.332 38.0224C494.15 35.5353 495.314 32.6743 495.844 29.4778L491.898 28.8233ZM489.101 35.6641C487.7 37.5863 485.875 39.0963 483.587 40.196L485.32 43.8012C488.174 42.4293 490.525 40.5017 492.333 38.0205L489.101 35.6641ZM483.587 40.196C481.331 41.2805 478.667 41.8523 475.547 41.8523V45.8523C479.16 45.8523 482.434 45.1883 485.32 43.8012L483.587 40.196ZM475.547 41.8523H464.574V45.8523H475.547V41.8523ZM466.547 44.1765L467.762 36.783L463.815 36.1346L462.6 43.5281L466.547 44.1765ZM465.788 38.4588H475.27V34.4588H465.788V38.4588ZM475.27 38.4588C477.281 38.4588 479.121 38.1162 480.721 37.3434L478.981 33.7418C478.052 34.1906 476.839 34.4588 475.27 34.4588V38.4588ZM480.729 37.3394C482.294 36.5745 483.583 35.4959 484.545 34.0985L481.25 31.8305C480.706 32.6206 479.965 33.2608 478.972 33.7458L480.729 37.3394ZM484.552 34.0885C485.484 32.7171 486.074 31.164 486.343 29.4635L482.393 28.8376C482.207 30.0065 481.817 30.996 481.243 31.8404L484.552 34.0885ZM486.341 29.4763C486.623 27.7679 486.557 26.1305 486.01 24.6452L482.257 26.0281C482.505 26.7018 482.596 27.6071 482.395 28.8249L486.341 29.4763ZM486.01 24.6452C485.437 23.0897 484.37 21.8914 482.916 21.0774L480.962 24.5675C481.639 24.9467 482.034 25.4245 482.257 26.0281L486.01 24.6452ZM482.944 21.0932C481.478 20.2417 479.675 19.9062 477.699 19.9062V23.9062C479.274 23.9062 480.297 24.1816 480.934 24.5517L482.944 21.0932ZM477.699 19.9062H471.477V23.9062H477.699V19.9062ZM469.505 21.5767L463.475 57.6704L467.42 58.3296L473.45 22.2358L469.505 21.5767ZM465.447 56H456.222V60H465.447V56ZM495.069 58L493.096 57.6725L492.71 60H495.069V58ZM502.314 14.3636V12.3636H500.618L500.341 14.0361L502.314 14.3636ZM531.717 14.3636L533.689 14.6951L534.081 12.3636H531.717V14.3636ZM530.439 21.9702V23.9702H532.13L532.411 22.3017L530.439 21.9702ZM510.261 21.9702V19.9702H508.562L508.287 21.6466L510.261 21.9702ZM508.556 32.3679L506.583 32.0443L506.202 34.3679H508.556V32.3679ZM527.221 32.3679L529.194 32.6994L529.585 30.3679H527.221V32.3679ZM525.943 39.9744V41.9744H527.635L527.915 40.3059L525.943 39.9744ZM507.278 39.9744V37.9744H505.579L505.304 39.6515L507.278 39.9744ZM505.574 50.3935L503.6 50.0706L503.22 52.3935H505.574V50.3935ZM525.836 50.3935L527.809 50.725L528.2 48.3935H525.836V50.3935ZM524.558 58V60H526.25L526.53 58.3315L524.558 58ZM497.042 58.3275L504.287 14.6912L500.341 14.0361L493.096 57.6725L497.042 58.3275ZM502.314 16.3636H531.717V12.3636H502.314V16.3636ZM529.745 14.0321L528.466 21.6387L532.411 22.3017L533.689 14.6951L529.745 14.0321ZM530.439 19.9702H510.261V23.9702H530.439V19.9702ZM508.287 21.6466L506.583 32.0443L510.53 32.6914L512.235 22.2937L508.287 21.6466ZM508.556 34.3679H527.221V30.3679H508.556V34.3679ZM525.249 32.0364L523.97 39.6429L527.915 40.3059L529.194 32.6994L525.249 32.0364ZM525.943 37.9744H507.278V41.9744H525.943V37.9744ZM505.304 39.6515L503.6 50.0706L507.547 50.7164L509.252 40.2973L505.304 39.6515ZM505.574 52.3935H525.836V48.3935H505.574V52.3935ZM523.864 50.062L522.586 57.6685L526.53 58.3315L527.809 50.725L523.864 50.062ZM524.558 56H495.069V60H524.558V56ZM531.808 58L529.835 57.6725L529.448 60H531.808V58ZM539.052 14.3636V12.3636H537.357L537.079 14.0361L539.052 14.3636ZM568.008 14.3636L569.98 14.6951L570.372 12.3636H568.008V14.3636ZM566.729 21.9702V23.9702H568.421L568.702 22.3017L566.729 21.9702ZM546.999 21.9702V19.9702H545.306L545.027 21.6398L546.999 21.9702ZM545.572 30.4929L543.599 30.1625L543.209 32.4929H545.572V30.4929ZM561.36 32.1761L560.488 33.9759L560.494 33.9791L560.501 33.9823L561.36 32.1761ZM566.388 36.8849L564.602 37.7844L564.607 37.7943L566.388 36.8849ZM567.262 44.0653L569.234 44.4024L569.235 44.3908L567.262 44.0653ZM563.981 51.331L562.432 50.0651L562.432 50.0662L563.981 51.331ZM557.354 56.2315L556.557 54.3972L556.554 54.3988L557.354 56.2315ZM542.269 50.5852L540.296 50.257L539.909 52.5852H542.269V50.5852ZM553.69 49.6903L554.559 51.4914L554.567 51.4874L554.576 51.4833L553.69 49.6903ZM556.673 47.2827L555.081 46.0719L555.078 46.0754L556.673 47.2827ZM558.121 43.9801L560.094 44.3089L560.095 44.3037L558.121 43.9801ZM556.864 39.5909L555.391 40.9431L555.399 40.9522L555.407 40.9611L556.864 39.5909ZM544.4 37.7798V35.7798H542.705L542.427 37.4516L544.4 37.7798ZM533.781 58.3275L541.025 14.6912L537.079 14.0361L529.835 57.6725L533.781 58.3275ZM539.052 16.3636H568.008V12.3636H539.052V16.3636ZM566.035 14.0321L564.757 21.6387L568.702 22.3017L569.98 14.6951L566.035 14.0321ZM566.729 19.9702H546.999V23.9702H566.729V19.9702ZM545.027 21.6398L543.599 30.1625L547.544 30.8233L548.972 22.3006L545.027 21.6398ZM545.572 32.4929H552.71V28.4929H545.572V32.4929ZM552.71 32.4929C555.957 32.4929 558.521 33.0225 560.488 33.9759L562.232 30.3764C559.569 29.0854 556.365 28.4929 552.71 28.4929V32.4929ZM560.501 33.9823C562.486 34.9263 563.806 36.2025 564.602 37.7844L568.175 35.9855C566.926 33.5048 564.893 31.6419 562.219 30.37L560.501 33.9823ZM564.607 37.7943C565.41 39.3662 565.69 41.3091 565.289 43.7398L569.235 44.3908C569.744 41.3102 569.441 38.4662 568.17 35.9756L564.607 37.7943ZM565.291 43.7283C564.879 46.1374 563.927 48.2373 562.432 50.0651L565.529 52.5969C567.472 50.2201 568.708 47.4762 569.233 44.4024L565.291 43.7283ZM562.432 50.0662C560.948 51.8837 559.007 53.3328 556.557 54.3972L558.152 58.0658C561.128 56.7723 563.605 54.9543 565.53 52.5957L562.432 50.0662ZM556.554 54.3988C554.147 55.4501 551.352 56 548.129 56V60C551.809 60 555.164 59.3709 558.155 58.0643L556.554 54.3988ZM548.129 56H531.808V60H548.129V56ZM542.269 52.5852H549.364V48.5852H542.269V52.5852ZM549.364 52.5852C551.254 52.5852 553.003 52.2426 554.559 51.4914L552.82 47.8892C551.905 48.3312 550.771 48.5852 549.364 48.5852V52.5852ZM554.576 51.4833C556.06 50.7496 557.308 49.757 558.267 48.4899L555.078 46.0754C554.532 46.797 553.791 47.4095 552.803 47.8974L554.576 51.4833ZM558.264 48.4934C559.219 47.2389 559.839 45.838 560.094 44.3089L556.149 43.6513C556.006 44.5086 555.661 45.3094 555.081 46.0719L558.264 48.4934ZM560.095 44.3037C560.471 42.0078 559.904 39.9039 558.321 38.2207L555.407 40.9611C556.069 41.6643 556.34 42.4865 556.148 43.6566L560.095 44.3037ZM558.338 38.2387C556.694 36.4473 554.242 35.7798 551.495 35.7798V39.7798C553.691 39.7798 554.819 40.3197 555.391 40.9431L558.338 38.2387ZM551.495 35.7798H544.4V39.7798H551.495V35.7798ZM542.427 37.4516L540.296 50.257L544.242 50.9135L546.373 38.1081L542.427 37.4516ZM614.585 36.7784L616.556 37.115L616.558 37.1025L614.585 36.7784ZM609.961 48.6463L608.325 47.496L608.321 47.5008L609.961 48.6463ZM601.63 56.0611L600.714 54.2831L600.711 54.2848L601.63 56.0611ZM580.813 55.8906L579.745 57.5814L579.749 57.5838L580.813 55.8906ZM574.613 48.071L572.739 48.7707L572.74 48.7733L574.613 48.071ZM573.888 35.6918L575.862 36.0168L575.862 36.0157L573.888 35.6918ZM578.469 23.8026L580.106 24.9528L580.108 24.9495L578.469 23.8026ZM586.843 16.3452L587.762 18.1216L587.768 18.1185L586.843 16.3452ZM607.66 16.4943L606.586 18.1813L606.589 18.1837L607.66 16.4943ZM613.86 24.3778L611.983 25.0682L611.986 25.0775L613.86 24.3778ZM605.401 35.6918L607.374 36.0206L607.374 36.019L605.401 35.6918ZM605.337 28.1491L603.4 28.6469L603.402 28.6548L603.404 28.6628L605.337 28.1491ZM602.44 23.5043L603.637 21.9023L603.637 21.9023L602.44 23.5043ZM590.7 23.6747L589.672 21.9586L589.667 21.962L590.7 23.6747ZM585.799 28.7457L584.086 27.7135L584.084 27.7167L585.799 28.7457ZM583.05 36.7784L585.022 37.1132L585.023 37.1059L585.025 37.0986L583.05 36.7784ZM583.093 44.321L581.161 44.8381L581.164 44.8507L583.093 44.321ZM586.055 48.902L584.875 50.5174L584.885 50.524L584.894 50.5305L586.055 48.902ZM597.752 48.7315L598.772 50.4521L598.776 50.4499L597.752 48.7315ZM602.631 43.7244L604.343 44.7583L604.346 44.7534L602.631 43.7244ZM612.613 36.4418C611.858 40.8628 610.412 44.5277 608.325 47.496L611.597 49.7966C614.084 46.2592 615.72 42.0122 616.556 37.115L612.613 36.4418ZM608.321 47.5008C606.221 50.5077 603.685 52.7527 600.714 54.2831L602.546 57.839C606.138 55.9887 609.156 53.2906 611.6 49.7918L608.321 47.5008ZM600.711 54.2848C597.736 55.824 594.529 56.5966 591.062 56.5966V60.5966C595.151 60.5966 598.99 59.6788 602.549 57.8374L600.711 54.2848ZM591.062 56.5966C587.411 56.5966 584.377 55.769 581.878 54.1975L579.749 57.5838C582.988 59.6202 586.787 60.5966 591.062 60.5966V56.5966ZM581.882 54.1998C579.425 52.6475 577.624 50.4033 576.486 47.3688L572.74 48.7733C574.159 52.5569 576.492 55.5258 579.745 57.5814L581.882 54.1998ZM576.487 47.3713C575.365 44.3677 575.105 40.6147 575.862 36.0168L571.915 35.3667C571.081 40.4279 571.304 44.9278 572.739 48.7707L576.487 47.3713ZM575.862 36.0157C576.59 31.5835 578.022 27.9165 580.106 24.9528L576.833 22.6523C574.343 26.1943 572.722 30.4534 571.915 35.3678L575.862 36.0157ZM580.108 24.9495C582.224 21.927 584.775 19.6666 587.762 18.1216L585.924 14.5687C582.32 16.4329 579.289 19.144 576.831 22.6556L580.108 24.9495ZM587.768 18.1185C590.772 16.5518 593.998 15.767 597.475 15.767V11.767C593.367 11.767 589.505 12.7011 585.918 14.5719L587.768 18.1185ZM597.475 15.767C601.092 15.767 604.101 16.599 606.586 18.1813L608.734 14.8073C605.509 12.7533 601.727 11.767 597.475 11.767V15.767ZM606.589 18.1837C609.057 19.7477 610.858 22.0089 611.983 25.0682L615.737 23.6875C614.334 19.8717 612.001 16.8773 608.73 14.8049L606.589 18.1837ZM611.986 25.0775C613.108 28.0808 613.369 31.8409 612.611 36.4543L616.558 37.1025C617.391 32.0285 617.169 27.5215 615.734 23.6782L611.986 25.0775ZM607.374 36.019C607.899 32.857 607.908 30.035 607.27 27.6355L603.404 28.6628C603.846 30.3258 603.898 32.5322 603.428 35.3645L607.374 36.019ZM607.274 27.6514C606.659 25.2572 605.479 23.2788 603.637 21.9023L601.242 25.1062C602.213 25.832 602.964 26.9502 603.4 28.6469L607.274 27.6514ZM603.637 21.9023C601.814 20.5398 599.592 19.9276 597.113 19.9276V23.9276C598.924 23.9276 600.253 24.3665 601.242 25.1062L603.637 21.9023ZM597.113 19.9276C594.432 19.9276 591.938 20.6028 589.672 21.9586L591.727 25.3908C593.354 24.417 595.135 23.9276 597.113 23.9276V19.9276ZM589.667 21.962C587.418 23.3181 585.564 25.26 584.086 27.7135L587.512 29.778C588.704 27.7996 590.118 26.3609 591.732 25.3875L589.667 21.962ZM584.084 27.7167C582.605 30.1822 581.619 33.1133 581.076 36.4583L585.025 37.0986C585.505 34.1367 586.351 31.7127 587.514 29.7747L584.084 27.7167ZM581.079 36.4436C580.54 39.6178 580.521 42.4453 581.161 44.838L585.025 43.804C584.586 42.1626 584.538 39.9617 585.022 37.1132L581.079 36.4436ZM581.164 44.8507C581.815 47.2181 583.024 49.1656 584.875 50.5174L587.234 47.2866C586.245 46.5645 585.479 45.458 585.022 43.7913L581.164 44.8507ZM584.894 50.5305C586.733 51.8418 588.945 52.4361 591.403 52.4361V48.4361C589.599 48.4361 588.246 48.0077 587.216 47.2734L584.894 50.5305ZM591.403 52.4361C594.062 52.4361 596.533 51.7787 598.772 50.4521L596.733 47.011C595.136 47.9571 593.374 48.4361 591.403 48.4361V52.4361ZM598.776 50.4499C601.026 49.1094 602.876 47.1882 604.343 44.7583L600.919 42.6905C599.745 44.6356 598.342 46.0525 596.729 47.0132L598.776 50.4499ZM604.346 44.7534C605.824 42.291 606.817 39.363 607.374 36.0206L603.428 35.363C602.934 38.3274 602.081 40.7545 600.916 42.6954L604.346 44.7534ZM617.882 58L615.909 57.6725L615.522 60H617.882V58ZM625.126 14.3636V12.3636H623.431L623.153 14.0361L625.126 14.3636ZM650.396 15.7912L649.533 17.5952L649.538 17.5976L650.396 15.7912ZM654.593 19.7543L652.784 20.6059L652.787 20.6117L654.593 19.7543ZM655.233 25.5497L657.203 25.8945L657.205 25.8827L655.233 25.5497ZM653.422 30.0241L651.792 28.8651L651.787 28.8711L651.783 28.8772L653.422 30.0241ZM650.098 33.1776L649.039 31.4805L650.098 33.1776ZM645.794 34.9247L645.364 32.9715L644.089 33.2522L643.833 34.5325L645.794 34.9247ZM645.708 35.3509L643.747 34.9586L643.289 37.2484L645.622 37.349L645.708 35.3509ZM650.162 36.7571L649.065 38.4295L649.071 38.4336L649.077 38.4377L650.162 36.7571ZM653.123 40.3793L651.278 41.1509L651.278 41.1509L653.123 40.3793ZM653.571 45.9403L655.544 46.2672L655.544 46.267L653.571 45.9403ZM650.822 52.1406L652.381 53.393L652.386 53.387L650.822 52.1406ZM645.027 56.4233L644.228 54.5895L644.224 54.5912L645.027 56.4233ZM628.386 50.4574L626.412 50.1345L626.032 52.4574H628.386V50.4574ZM641.767 48.9659L642.953 50.576L642.953 50.576L641.767 48.9659ZM644.196 45.0241L646.169 45.3502L646.171 45.3383L646.173 45.3265L644.196 45.0241ZM643.833 41.8281L642.007 42.643L642.012 42.6547L642.018 42.6662L643.833 41.8281ZM641.724 39.6548L640.779 41.4174L640.789 41.423L641.724 39.6548ZM630.282 38.8665V36.8665H628.583L628.309 38.5436L630.282 38.8665ZM631.348 32.6236L629.375 32.2967L628.989 34.6236H631.348V32.6236ZM641.66 31.9631L642.424 33.8114L642.436 33.8063L641.66 31.9631ZM644.324 30.0455L642.798 28.7524L642.796 28.7548L644.324 30.0455ZM645.666 27.0838L647.64 27.4046L647.64 27.4012L645.666 27.0838ZM644.6 23.2699L643.176 24.6736L643.186 24.6841L643.197 24.6945L644.6 23.2699ZM633.137 21.821V19.821H631.442L631.164 21.4941L633.137 21.821ZM619.855 58.3275L627.099 14.6912L623.153 14.0361L615.909 57.6725L619.855 58.3275ZM625.126 16.3636H642.598V12.3636H625.126V16.3636ZM642.598 16.3636C645.635 16.3636 647.908 16.8176 649.533 17.5952L651.259 13.9871C648.907 12.8613 645.981 12.3636 642.598 12.3636V16.3636ZM649.538 17.5976C651.204 18.3895 652.221 19.4093 652.784 20.6059L656.403 18.9027C655.375 16.7185 653.594 15.0963 651.254 13.9848L649.538 17.5976ZM652.787 20.6117C653.374 21.8497 653.575 23.3528 653.261 25.2168L657.205 25.8827C657.629 23.3716 657.404 21.0111 656.4 18.8968L652.787 20.6117ZM653.263 25.205C653.01 26.6467 652.511 27.8535 651.792 28.8651L655.051 31.1832C656.15 29.638 656.858 27.8618 657.203 25.8945L653.263 25.205ZM651.783 28.8772C651.042 29.9356 650.131 30.7995 649.039 31.4805L651.156 34.8746C652.706 33.9079 654.011 32.6695 655.06 31.1711L651.783 28.8772ZM649.039 31.4805C647.915 32.1816 646.694 32.6787 645.364 32.9715L646.224 36.8779C647.99 36.4889 649.638 35.8212 651.156 34.8746L649.039 31.4805ZM643.833 34.5325L643.747 34.9586L647.67 35.7431L647.755 35.3169L643.833 34.5325ZM645.622 37.349C646.926 37.4052 648.059 37.7696 649.065 38.4295L651.258 35.0847C649.623 34.0117 647.786 33.4385 645.795 33.3527L645.622 37.349ZM649.077 38.4377C650.032 39.0537 650.768 39.931 651.278 41.1509L654.968 39.6076C654.172 37.7025 652.933 36.1651 651.246 35.0765L649.077 38.4377ZM651.278 41.1509C651.751 42.2808 651.908 43.7358 651.598 45.6137L655.544 46.267C655.943 43.8551 655.803 41.6027 654.968 39.6076L651.278 41.1509ZM651.598 45.6135C651.269 47.5958 650.492 49.3453 649.258 50.8942L652.386 53.387C654.05 51.2996 655.105 48.9156 655.544 46.2672L651.598 45.6135ZM649.263 50.8882C648.043 52.4066 646.388 53.6496 644.228 54.5895L645.825 58.2571C648.495 57.0947 650.703 55.4826 652.381 53.393L649.263 50.8882ZM644.224 54.5912C642.131 55.5079 639.582 56 636.525 56V60C640.002 60 643.121 59.441 645.829 58.2554L644.224 54.5912ZM636.525 56H617.882V60H636.525V56ZM628.386 52.4574H635.907V48.4574H628.386V52.4574ZM635.907 52.4574C638.68 52.4574 641.122 51.9254 642.953 50.576L640.58 47.3558C639.713 47.9951 638.249 48.4574 635.907 48.4574V52.4574ZM642.953 50.576C644.716 49.2768 645.813 47.505 646.169 45.3502L642.222 44.6981C642.039 45.8104 641.516 46.6664 640.58 47.3558L642.953 50.576ZM646.173 45.3265C646.405 43.8105 646.27 42.3357 645.649 40.99L642.018 42.6662C642.249 43.1671 642.356 43.8231 642.219 44.7218L646.173 45.3265ZM645.66 41.0132C645.045 39.6353 644.002 38.5964 642.659 37.8866L640.789 41.423C641.435 41.7644 641.798 42.1744 642.007 42.643L645.66 41.0132ZM642.669 37.8922C641.314 37.1655 639.719 36.8665 637.995 36.8665V40.8665C639.283 40.8665 640.174 41.093 640.779 41.4174L642.669 37.8922ZM637.995 36.8665H630.282V40.8665H637.995V36.8665ZM628.309 38.5436L626.412 50.1345L630.36 50.7803L632.256 39.1894L628.309 38.5436ZM631.348 34.6236H638.187V30.6236H631.348V34.6236ZM638.187 34.6236C639.677 34.6236 641.097 34.3601 642.424 33.8114L640.896 30.1147C640.093 30.4468 639.197 30.6236 638.187 30.6236V34.6236ZM642.436 33.8063C643.781 33.2402 644.935 32.4212 645.851 31.3362L642.796 28.7548C642.32 29.3174 641.699 29.7769 640.884 30.1198L642.436 33.8063ZM645.849 31.3385C646.806 30.2095 647.4 28.8818 647.64 27.4046L643.692 26.763C643.562 27.5586 643.261 28.2052 642.798 28.7524L645.849 31.3385ZM647.64 27.4012C647.977 25.3084 647.522 23.3404 646.004 21.8452L643.197 24.6945C643.611 25.1028 643.866 25.6774 643.691 26.7665L647.64 27.4012ZM646.025 21.8662C644.546 20.3646 642.429 19.821 640.126 19.821V23.821C641.886 23.821 642.752 24.2434 643.176 24.6736L646.025 21.8662ZM640.126 19.821H633.137V23.821H640.126V19.821ZM631.164 21.4941L629.375 32.2967L633.321 32.9505L635.111 22.1479L631.164 21.4941ZM665.071 58V60H666.316L666.865 58.8835L665.071 58ZM655.185 58L653.404 57.0896L651.916 60H655.185V58ZM677.493 14.3636V12.3636H676.269L675.712 13.4532L677.493 14.3636ZM689.382 14.3636L691.351 14.0118L691.056 12.3636H689.382V14.3636ZM697.18 58V60H699.57L699.149 57.6482L697.18 58ZM687.294 58L685.318 58.3113L685.585 60H687.294V58ZM681.989 24.3352L683.964 24.0239L683.698 22.3352H681.989V24.3352ZM681.648 24.3352V22.3352H680.403L679.853 23.4517L681.648 24.3352ZM667.33 40.848V38.848H665.644L665.358 40.5098L667.33 40.848ZM690.682 40.848L692.653 41.1863L693.054 38.848H690.682V40.848ZM689.446 48.0497V50.0497H691.132L691.417 48.388L689.446 48.0497ZM666.094 48.0497L664.123 47.7115L663.721 50.0497H666.094V48.0497ZM665.071 56H655.185V60H665.071V56ZM656.965 58.9104L679.274 15.274L675.712 13.4532L653.404 57.0896L656.965 58.9104ZM677.493 16.3636H689.382V12.3636H677.493V16.3636ZM687.413 14.7155L695.212 58.3518L699.149 57.6482L691.351 14.0118L687.413 14.7155ZM697.18 56H687.294V60H697.18V56ZM689.27 57.6887L683.964 24.0239L680.013 24.6466L685.318 58.3113L689.27 57.6887ZM681.989 22.3352H681.648V26.3352H681.989V22.3352ZM679.853 23.4517L663.277 57.1165L666.865 58.8835L683.442 25.2187L679.853 23.4517ZM667.33 42.848H690.682V38.848H667.33V42.848ZM688.711 40.5098L687.475 47.7115L691.417 48.388L692.653 41.1863L688.711 40.5098ZM689.446 46.0497H666.094V50.0497H689.446V46.0497ZM668.065 48.388L669.301 41.1863L665.358 40.5098L664.123 47.7115L668.065 48.388ZM702.433 58L700.46 57.6725L700.073 60H702.433V58ZM709.677 14.3636V12.3636H707.982L707.704 14.0361L709.677 14.3636ZM718.903 14.3636L720.876 14.6905L721.261 12.3636H718.903V14.3636ZM715.92 32.3679L713.947 32.041L713.561 34.3679H715.92V32.3679ZM734.648 32.3679V34.3679H736.344L736.622 32.6948L734.648 32.3679ZM737.631 14.3636V12.3636H735.935L735.658 14.0367L737.631 14.3636ZM746.836 14.3636L748.809 14.6912L749.195 12.3636H746.836V14.3636ZM739.592 58V60H741.287L741.565 58.3275L739.592 58ZM730.387 58L728.414 57.6735L728.029 60H730.387V58ZM733.37 39.9744L735.343 40.301L735.728 37.9744H733.37V39.9744ZM714.641 39.9744V37.9744H712.945L712.668 39.6479L714.641 39.9744ZM711.658 58V60H713.355L713.632 58.3265L711.658 58ZM704.406 58.3275L711.65 14.6912L707.704 14.0361L700.46 57.6725L704.406 58.3275ZM709.677 16.3636H718.903V12.3636H709.677V16.3636ZM716.93 14.0367L713.947 32.041L717.893 32.6948L720.876 14.6905L716.93 14.0367ZM715.92 34.3679H734.648V30.3679H715.92V34.3679ZM736.622 32.6948L739.604 14.6905L735.658 14.0367L732.675 32.041L736.622 32.6948ZM737.631 16.3636H746.836V12.3636H737.631V16.3636ZM744.863 14.0361L737.619 57.6725L741.565 58.3275L748.809 14.6912L744.863 14.0361ZM739.592 56H730.387V60H739.592V56ZM732.36 58.3265L735.343 40.301L731.397 39.6479L728.414 57.6735L732.36 58.3265ZM733.37 37.9744H714.641V41.9744H733.37V37.9744ZM712.668 39.6479L709.685 57.6735L713.632 58.3265L716.615 40.301L712.668 39.6479ZM711.658 56H702.433V60H711.658V56ZM754.442 14.3636V12.3636H752.747L752.469 14.0361L754.442 14.3636ZM763.647 14.3636L765.62 14.6914L766.007 12.3636H763.647V14.3636ZM759.087 41.8068L757.114 41.479L756.728 43.8068H759.087V41.8068ZM759.471 41.8068V43.8068H760.394L760.993 43.1043L759.471 41.8068ZM782.866 14.3636V12.3636H781.943L781.344 13.0661L782.866 14.3636ZM790.941 14.3636L792.914 14.6912L793.3 12.3636H790.941V14.3636ZM783.697 58V60H785.392L785.67 58.3275L783.697 58ZM774.471 58L772.498 57.6724L772.111 60H774.471V58ZM779.031 30.5355L781.004 30.8631L781.39 28.5355H779.031V30.5355ZM778.711 30.5355V28.5355H777.791L777.192 29.2345L778.711 30.5355ZM755.188 58V60H756.109L756.707 59.301L755.188 58ZM747.198 58L745.225 57.6725L744.839 60H747.198V58ZM754.442 16.3636H763.647V12.3636H754.442V16.3636ZM761.674 14.0358L757.114 41.479L761.06 42.1346L765.62 14.6914L761.674 14.0358ZM759.087 43.8068H759.471V39.8068H759.087V43.8068ZM760.993 43.1043L784.388 15.6611L781.344 13.0661L757.949 40.5093L760.993 43.1043ZM782.866 16.3636H790.941V12.3636H782.866V16.3636ZM788.968 14.0361L781.724 57.6725L785.67 58.3275L792.914 14.6912L788.968 14.0361ZM783.697 56H774.471V60H783.697V56ZM776.444 58.3276L781.004 30.8631L777.058 30.208L772.498 57.6724L776.444 58.3276ZM779.031 28.5355H778.711V32.5355H779.031V28.5355ZM777.192 29.2345L753.669 56.699L756.707 59.301L780.23 31.8365L777.192 29.2345ZM755.188 56H747.198V60H755.188V56ZM749.171 58.3275L756.415 14.6912L752.469 14.0361L745.225 57.6725L749.171 58.3275ZM824.771 58V60H826.467L826.744 58.3266L824.771 58ZM815.545 58L813.572 57.6727L813.186 60H815.545V58ZM821.532 21.9062L823.505 22.2335L823.891 19.9062H821.532V21.9062ZM810.751 22.6946L811.508 24.5457L811.519 24.5414L810.751 22.6946ZM807.747 24.9531L806.152 23.7459L806.147 23.7531L806.141 23.7605L807.747 24.9531ZM806.277 28.6179L804.304 28.2891L804.303 28.297L804.301 28.305L806.277 28.6179ZM806.554 32.2188L804.714 33.0033L804.719 33.0147L804.724 33.026L806.554 32.2188ZM808.812 34.392L807.995 36.2177L808.004 36.2216L808.812 34.392ZM823.109 35.1165L825.082 35.4453L825.47 33.1165H823.109V35.1165ZM821.873 42.5312V44.5312H823.567L823.846 42.86L821.873 42.5312ZM802.058 40.8693L801.15 42.6511L801.154 42.6535L802.058 40.8693ZM797.434 36.0966L795.601 36.895L795.603 36.8995L797.434 36.0966ZM796.774 28.6179L794.803 28.2781L794.801 28.2883L794.799 28.2985L796.774 28.6179ZM799.885 21.0966L798.278 19.9051L798.277 19.9069L799.885 21.0966ZM806.064 16.1321L806.9 17.9486L806.909 17.9447L806.064 16.1321ZM831.994 14.3636L833.967 14.6902L834.352 12.3636H831.994V14.3636ZM804.508 38.142V36.142H803.476L802.878 36.9827L804.508 38.142ZM814.458 38.142L816.096 39.2897L818.302 36.142H814.458V38.142ZM800.545 58V60H801.586L802.183 59.1476L800.545 58ZM790.382 58L788.752 56.8407L786.505 60H790.382V58ZM824.771 56H815.545V60H824.771V56ZM817.518 58.3273L823.505 22.2335L819.559 21.579L813.572 57.6727L817.518 58.3273ZM821.532 19.9062H815.311V23.9062H821.532V19.9062ZM815.311 19.9062C813.346 19.9062 811.551 20.1959 809.983 20.8478L811.519 24.5414C812.479 24.1421 813.724 23.9062 815.311 23.9062V19.9062ZM809.994 20.8435C808.441 21.4789 807.139 22.4422 806.152 23.7459L809.341 26.1604C809.86 25.4754 810.562 24.933 811.508 24.5457L809.994 20.8435ZM806.141 23.7605C805.181 25.0528 804.588 26.5851 804.304 28.2891L808.249 28.9467C808.448 27.753 808.835 26.8421 809.352 26.1458L806.141 23.7605ZM804.301 28.305C804.037 29.9741 804.108 31.5831 804.714 33.0033L808.393 31.4342C808.175 30.9226 808.062 30.131 808.252 28.9308L804.301 28.305ZM804.724 33.026C805.374 34.5005 806.522 35.5586 807.995 36.2177L809.629 32.5664C808.943 32.2596 808.585 31.8688 808.383 31.4115L804.724 33.026ZM808.004 36.2216C809.443 36.8571 811.176 37.1165 813.095 37.1165V33.1165C811.491 33.1165 810.368 32.8929 809.62 32.5625L808.004 36.2216ZM813.095 37.1165H823.109V33.1165H813.095V37.1165ZM821.136 34.7877L819.9 42.2025L823.846 42.86L825.082 35.4453L821.136 34.7877ZM821.873 40.5312H810.346V44.5312H821.873V40.5312ZM810.346 40.5312C807.214 40.5312 804.786 40.0094 802.962 39.0851L801.154 42.6535C803.704 43.9451 806.802 44.5312 810.346 44.5312V40.5312ZM802.966 39.0875C801.17 38.172 799.975 36.9105 799.266 35.2936L795.603 36.8995C796.712 39.4304 798.599 41.3507 801.15 42.6511L802.966 39.0875ZM799.268 35.2982C798.55 33.65 798.323 31.5646 798.748 28.9373L794.799 28.2985C794.287 31.4666 794.5 34.3671 795.601 36.895L799.268 35.2982ZM798.745 28.9577C799.194 26.3495 800.12 24.1407 801.492 22.2863L798.277 19.9069C796.496 22.3138 795.347 25.1193 794.803 28.2781L798.745 28.9577ZM801.491 22.2881C802.873 20.4244 804.663 18.9791 806.9 17.9486L805.227 14.3156C802.407 15.6146 800.078 17.479 798.278 19.9051L801.491 22.2881ZM806.909 17.9447C809.129 16.9095 811.744 16.3636 814.799 16.3636V12.3636C811.264 12.3636 808.055 12.9967 805.218 14.3195L806.909 17.9447ZM814.799 16.3636H831.994V12.3636H814.799V16.3636ZM830.021 14.037L822.798 57.6734L826.744 58.3266L833.967 14.6902L830.021 14.037ZM804.508 40.142H814.458V36.142H804.508V40.142ZM812.82 36.9944L798.907 56.8524L802.183 59.1476L816.096 39.2897L812.82 36.9944ZM800.545 56H790.382V60H800.545V56ZM792.011 59.1593L806.138 39.3014L802.878 36.9827L788.752 56.8407L792.011 59.1593Z" fill="url(#paint0_linear_1851_210)"/>
<path d="M42.294 29.6406H32.9616C32.7912 28.4332 32.4432 27.3608 31.9176 26.4233C31.392 25.4716 30.7173 24.6619 29.8935 23.9943C29.0696 23.3267 28.1179 22.8153 27.0384 22.4602C25.973 22.1051 24.8153 21.9276 23.5653 21.9276C21.3068 21.9276 19.3395 22.4886 17.6634 23.6108C15.9872 24.7187 14.6875 26.3381 13.7642 28.4688C12.8409 30.5852 12.3793 33.1562 12.3793 36.1818C12.3793 39.2926 12.8409 41.9062 13.7642 44.0227C14.7017 46.1392 16.0085 47.7372 17.6847 48.8168C19.3608 49.8963 21.2997 50.4361 23.5014 50.4361C24.7372 50.4361 25.8807 50.2727 26.9318 49.946C27.9972 49.6193 28.9418 49.1435 29.7656 48.5185C30.5895 47.8793 31.2713 47.1051 31.8111 46.196C32.3651 45.2869 32.7486 44.25 32.9616 43.0852L42.294 43.1278C42.0526 45.1307 41.4489 47.0625 40.483 48.9233C39.5313 50.7699 38.2457 52.4247 36.6264 53.8878C35.0213 55.3366 33.1037 56.4872 30.8736 57.3395C28.6577 58.1776 26.1506 58.5966 23.3523 58.5966C19.4602 58.5966 15.9801 57.7159 12.9119 55.9545C9.85795 54.1932 7.44318 51.6435 5.66761 48.3054C3.90625 44.9673 3.02557 40.9261 3.02557 36.1818C3.02557 31.4233 3.92045 27.375 5.71023 24.0369C7.5 20.6989 9.92898 18.1562 12.9972 16.4091C16.0653 14.6477 19.517 13.767 23.3523 13.767C25.8807 13.767 28.2244 14.1222 30.3835 14.8324C32.5568 15.5426 34.4815 16.5795 36.1577 17.9432C37.8338 19.2926 39.1974 20.9474 40.2486 22.9077C41.3139 24.8679 41.9957 27.1122 42.294 29.6406ZM48.9098 14.3636H58.1143V41.8068H58.4766L77.3331 14.3636H85.4084V58H76.1825V30.5355H75.8629L56.8999 58H48.9098V14.3636ZM131.532 29.6406H122.2C122.029 28.4332 121.681 27.3608 121.156 26.4233C120.63 25.4716 119.956 24.6619 119.132 23.9943C118.308 23.3267 117.356 22.8153 116.277 22.4602C115.211 22.1051 114.054 21.9276 112.804 21.9276C110.545 21.9276 108.578 22.4886 106.902 23.6108C105.225 24.7187 103.926 26.3381 103.002 28.4688C102.079 30.5852 101.618 33.1562 101.618 36.1818C101.618 39.2926 102.079 41.9062 103.002 44.0227C103.94 46.1392 105.247 47.7372 106.923 48.8168C108.599 49.8963 110.538 50.4361 112.74 50.4361C113.975 50.4361 115.119 50.2727 116.17 49.946C117.235 49.6193 118.18 49.1435 119.004 48.5185C119.828 47.8793 120.51 47.1051 121.049 46.196C121.603 45.2869 121.987 44.25 122.2 43.0852L131.532 43.1278C131.291 45.1307 130.687 47.0625 129.721 48.9233C128.77 50.7699 127.484 52.4247 125.865 53.8878C124.26 55.3366 122.342 56.4872 120.112 57.3395C117.896 58.1776 115.389 58.5966 112.591 58.5966C108.699 58.5966 105.218 57.7159 102.15 55.9545C99.0962 54.1932 96.6815 51.6435 94.9059 48.3054C93.1445 44.9673 92.2638 40.9261 92.2638 36.1818C92.2638 31.4233 93.1587 27.375 94.9485 24.0369C96.7383 20.6989 99.1673 18.1562 102.235 16.4091C105.304 14.6477 108.755 13.767 112.591 13.767C115.119 13.767 117.463 14.1222 119.622 14.8324C121.795 15.5426 123.72 16.5795 125.396 17.9432C127.072 19.2926 128.436 20.9474 129.487 22.9077C130.552 24.8679 131.234 27.1122 131.532 29.6406ZM136.486 21.9702V14.3636H172.324V21.9702H158.965V58H149.846V21.9702H136.486ZM178.226 58V14.3636H207.63V21.9702H187.452V32.3679H206.117V39.9744H187.452V50.3935H207.715V58H178.226ZM214.964 14.3636H226.342L238.359 43.6818H238.871L250.888 14.3636H262.266V58H253.317V29.598H252.955L241.662 57.7869H235.568L224.276 29.4915H223.913V58H214.964V14.3636ZM269.867 58V14.3636H279.093V32.3679H297.821V14.3636H307.026V58H297.821V39.9744H279.093V58H269.867ZM320.705 30.4929H331.103C334.569 30.4929 337.551 31.054 340.051 32.1761C342.566 33.2841 344.505 34.8537 345.868 36.8849C347.232 38.9162 347.907 41.3097 347.892 44.0653C347.907 46.8068 347.232 49.2287 345.868 51.331C344.505 53.419 342.566 55.0526 340.051 56.2315C337.551 57.4105 334.569 58 331.103 58H314.803V14.3636H324.007V50.5852H331.103C332.765 50.5852 334.164 50.2869 335.3 49.6903C336.436 49.0795 337.296 48.277 337.878 47.2827C338.475 46.2741 338.766 45.1733 338.752 43.9801C338.766 42.2472 338.113 40.7841 336.792 39.5909C335.485 38.3835 333.588 37.7798 331.103 37.7798H320.705V30.4929ZM360.655 14.3636V58H351.451V14.3636H360.655ZM368.246 58V14.3636H397.649V21.9702H377.472V32.3679H396.136V39.9744H377.472V50.3935H397.734V58H368.246ZM417.209 21.9702V14.3636H453.047V21.9702H439.688V58H430.568V21.9702H417.209ZM458.949 58V14.3636H476.165C479.474 14.3636 482.294 14.9957 484.624 16.2599C486.953 17.5099 488.729 19.25 489.95 21.4801C491.186 23.696 491.804 26.2528 491.804 29.1506C491.804 32.0483 491.179 34.6051 489.929 36.821C488.679 39.0369 486.868 40.7628 484.496 41.9986C482.138 43.2344 479.283 43.8523 475.93 43.8523H464.957V36.4588H474.439C476.214 36.4588 477.678 36.1534 478.828 35.5426C479.993 34.9176 480.859 34.0582 481.428 32.9645C482.01 31.8565 482.301 30.5852 482.301 29.1506C482.301 27.7017 482.01 26.4375 481.428 25.358C480.859 24.2642 479.993 23.419 478.828 22.8224C477.663 22.2116 476.186 21.9062 474.396 21.9062H468.175V58H458.949ZM497.797 58V14.3636H527.2V21.9702H507.022V32.3679H525.687V39.9744H507.022V50.3935H527.285V58H497.797ZM534.535 58V14.3636H563.491V21.9702H543.761V30.4929H550.856C554.308 30.4929 557.283 31.054 559.783 32.1761C562.298 33.2841 564.237 34.8537 565.6 36.8849C566.964 38.9162 567.646 41.3097 567.646 44.0653C567.646 46.8068 566.964 49.2287 565.6 51.331C564.237 53.419 562.298 55.0526 559.783 56.2315C557.283 57.4105 554.308 58 550.856 58H534.535ZM543.761 50.5852H550.856C552.504 50.5852 553.896 50.2869 555.032 49.6903C556.168 49.0795 557.028 48.277 557.61 47.2827C558.207 46.2741 558.505 45.1733 558.505 43.9801C558.505 42.2472 557.844 40.7841 556.523 39.5909C555.217 38.3835 553.327 37.7798 550.856 37.7798H543.761V50.5852ZM613.716 36.1818C613.716 40.9403 612.814 44.9886 611.01 48.3267C609.221 51.6648 606.777 54.2145 603.681 55.9759C600.598 57.723 597.132 58.5966 593.283 58.5966C589.405 58.5966 585.925 57.7159 582.843 55.9545C579.76 54.1932 577.324 51.6435 575.534 48.3054C573.745 44.9673 572.85 40.9261 572.85 36.1818C572.85 31.4233 573.745 27.375 575.534 24.0369C577.324 20.6989 579.76 18.1562 582.843 16.4091C585.925 14.6477 589.405 13.767 593.283 13.767C597.132 13.767 600.598 14.6477 603.681 16.4091C606.777 18.1562 609.221 20.6989 611.01 24.0369C612.814 27.375 613.716 31.4233 613.716 36.1818ZM604.363 36.1818C604.363 33.0994 603.901 30.5 602.978 28.3835C602.069 26.267 600.783 24.6619 599.121 23.5682C597.459 22.4744 595.513 21.9276 593.283 21.9276C591.053 21.9276 589.107 22.4744 587.445 23.5682C585.783 24.6619 584.49 26.267 583.567 28.3835C582.658 30.5 582.203 33.0994 582.203 36.1818C582.203 39.2642 582.658 41.8636 583.567 43.9801C584.49 46.0966 585.783 47.7017 587.445 48.7955C589.107 49.8892 591.053 50.4361 593.283 50.4361C595.513 50.4361 597.459 49.8892 599.121 48.7955C600.783 47.7017 602.069 46.0966 602.978 43.9801C603.901 41.8636 604.363 39.2642 604.363 36.1818ZM620.55 58V14.3636H638.022C641.232 14.3636 643.91 14.8395 646.055 15.7912C648.2 16.7429 649.812 18.0639 650.891 19.7543C651.971 21.4304 652.511 23.3622 652.511 25.5497C652.511 27.2543 652.17 28.7528 651.488 30.0455C650.806 31.3239 649.869 32.375 648.675 33.1989C647.496 34.0085 646.147 34.5838 644.627 34.9247V35.3509C646.289 35.4219 647.844 35.8906 649.293 36.7571C650.756 37.6236 651.942 38.8381 652.852 40.4006C653.761 41.9489 654.215 43.7955 654.215 45.9403C654.215 48.2557 653.64 50.3224 652.489 52.1406C651.353 53.9446 649.67 55.3722 647.44 56.4233C645.21 57.4744 642.461 58 639.194 58H620.55ZM629.776 50.4574H637.298C639.869 50.4574 641.744 49.9673 642.923 48.9872C644.102 47.9929 644.691 46.6719 644.691 45.0241C644.691 43.8168 644.4 42.7514 643.817 41.8281C643.235 40.9048 642.404 40.1804 641.325 39.6548C640.259 39.1293 638.988 38.8665 637.511 38.8665H629.776V50.4574ZM629.776 32.6236H636.616C637.88 32.6236 639.002 32.4034 639.982 31.9631C640.977 31.5085 641.758 30.8693 642.326 30.0455C642.908 29.2216 643.2 28.2344 643.2 27.0838C643.2 25.5071 642.638 24.2358 641.516 23.2699C640.408 22.304 638.832 21.821 636.786 21.821H629.776V32.6236ZM667.74 58H657.853L672.917 14.3636H684.806L699.849 58H689.963L679.032 24.3352H678.691L667.74 58ZM667.122 40.848H690.474V48.0497H667.122V40.848ZM705.101 58V14.3636H714.327V32.3679H733.056V14.3636H742.26V58H733.056V39.9744H714.327V58H705.101ZM749.867 14.3636H759.071V41.8068H759.434L778.29 14.3636H786.365V58H777.14V30.5355H776.82L757.857 58H749.867V14.3636ZM827.482 58H818.278V21.9062H812.056C810.281 21.9062 808.803 22.169 807.624 22.6946C806.46 23.206 805.586 23.9588 805.004 24.9531C804.421 25.9474 804.13 27.169 804.13 28.6179C804.13 30.0526 804.421 31.2528 805.004 32.2188C805.586 33.1847 806.46 33.9091 807.624 34.392C808.789 34.875 810.252 35.1165 812.013 35.1165H822.028V42.5312H810.522C807.184 42.5312 804.329 41.9773 801.957 40.8693C799.585 39.7614 797.773 38.1705 796.523 36.0966C795.273 34.0085 794.648 31.5156 794.648 28.6179C794.648 25.7344 795.259 23.2273 796.481 21.0966C797.717 18.9517 799.499 17.2969 801.829 16.1321C804.173 14.9531 806.992 14.3636 810.288 14.3636H827.482V58ZM803.938 38.142H813.888L803.278 58H793.093L803.938 38.142Z" fill="white"/>
<defs>
<linearGradient id="paint0_linear_1851_210" x1="5.52138e-07" y1="36.9999" x2="832" y2="36.9999" gradientUnits="userSpaceOnUse">
<stop stop-color="#8D72E1"/>
<stop offset="1" stop-color="#8D9EFF"/>
</linearGradient>
</defs>
</svg>
