<svg width="270" height="90" viewBox="0 0 270 90" fill="none" xmlns="http://www.w3.org/2000/svg">
<g filter="url(#filter0_b_1852_228)">
<rect width="270" height="90" rx="10" fill="white" fill-opacity="0.05"/>
<rect x="2" y="2" width="266" height="86" rx="8" stroke="url(#paint0_linear_1852_228)" stroke-width="4"/>
</g>
<path d="M32.48 60H26.56V49.04L23.44 49.8L17.04 60H10.12L16.36 50.84L19 49.04C18.0667 48.8267 17.1867 48.5067 16.36 48.08C15.56 47.6267 14.8533 47.0533 14.24 46.36C13.6267 45.6667 13.1467 44.8533 12.8 43.92C12.4533 42.96 12.28 41.88 12.28 40.68C12.28 39 12.6 37.5867 13.24 36.44C13.88 35.2667 14.76 34.3333 15.88 33.64C17.0267 32.92 18.3733 32.4 19.92 32.08C21.4933 31.76 23.1867 31.6 25 31.6C25.48 31.6 26.04 31.6133 26.68 31.64C27.32 31.6667 27.9733 31.7067 28.64 31.76C29.3333 31.8133 30.0133 31.88 30.68 31.96C31.3467 32.04 31.9467 32.1467 32.48 32.28V60ZM24.32 36.8C23.5467 36.8 22.8133 36.8667 22.12 37C21.4267 37.1067 20.8133 37.3067 20.28 37.6C19.7467 37.8933 19.32 38.32 19 38.88C18.7067 39.4133 18.56 40.0933 18.56 40.92C18.56 41.72 18.7067 42.4 19 42.96C19.2933 43.4933 19.6933 43.9333 20.2 44.28C20.7333 44.6 21.3467 44.84 22.04 45C22.76 45.1333 23.52 45.2 24.32 45.2H26.56V36.96C26.24 36.9067 25.92 36.8667 25.6 36.84C25.28 36.8133 24.8533 36.8 24.32 36.8ZM51.4791 51.88H43.5191V60H37.9191V39H43.5191V46.8H51.4791V39H57.0791V60H51.4791V51.88ZM85.2009 64.76H81.2809L80.5609 60H64.6409L63.8809 64.76H59.9609V55.04H62.6009C62.8409 54.72 63.1609 54.1867 63.5609 53.44C63.9876 52.6933 64.3876 51.68 64.7609 50.4C65.1609 49.12 65.4943 47.5467 65.7609 45.68C66.0543 43.7867 66.2143 41.56 66.2409 39H81.8409V55.04H85.2009V64.76ZM76.2409 55.32V43.68H71.0009C70.9476 44.72 70.8409 45.8 70.6809 46.92C70.5209 48.04 70.3209 49.12 70.0809 50.16C69.8409 51.2 69.5609 52.1733 69.2409 53.08C68.9209 53.9867 68.5743 54.7333 68.2009 55.32H76.2409ZM106.856 58.08C105.949 58.7733 104.709 59.3733 103.136 59.88C101.589 60.36 99.9223 60.6 98.1356 60.6C94.5356 60.6 91.8956 59.6133 90.2156 57.64C88.5356 55.6667 87.6956 52.96 87.6956 49.52C87.6956 45.8667 88.6423 43.1067 90.5356 41.24C92.429 39.3467 95.0956 38.4 98.5356 38.4C99.6556 38.4 100.762 38.5467 101.856 38.84C102.949 39.1067 103.922 39.5733 104.776 40.24C105.629 40.88 106.309 41.76 106.816 42.88C107.349 43.9733 107.616 45.3333 107.616 46.96C107.616 47.52 107.576 48.1333 107.496 48.8C107.442 49.4667 107.336 50.16 107.176 50.88H93.1756C93.309 52.6933 93.829 54.04 94.7356 54.92C95.669 55.7733 97.1756 56.2 99.2556 56.2C100.509 56.2 101.629 56.0267 102.616 55.68C103.629 55.3067 104.402 54.9333 104.936 54.56L106.856 58.08ZM98.4556 42.8C96.8023 42.8 95.5756 43.2533 94.7756 44.16C93.9756 45.04 93.509 46.1733 93.3756 47.56H102.416C102.522 46.0933 102.256 44.9333 101.616 44.08C100.976 43.2267 99.9223 42.8 98.4556 42.8ZM120.206 51.28H118.246V60H112.646V39H118.246V48.08L120.046 47.32L125.406 39H131.446C130.512 40.28 129.592 41.5733 128.686 42.88C127.806 44.16 126.912 45.44 126.006 46.72L123.366 48.48L126.166 50.2C127.179 51.8533 128.206 53.4933 129.246 55.12C130.286 56.72 131.312 58.3467 132.326 60H125.846L120.206 51.28ZM150.829 58.72C149.923 59.3333 148.829 59.8 147.549 60.12C146.296 60.44 144.989 60.6 143.629 60.6C141.816 60.6 140.283 60.3333 139.029 59.8C137.803 59.2667 136.789 58.5067 135.989 57.52C135.216 56.5333 134.656 55.3733 134.309 54.04C133.963 52.68 133.789 51.1733 133.789 49.52C133.789 46.0267 134.643 43.3067 136.349 41.36C138.083 39.3867 140.589 38.4 143.869 38.4C145.469 38.4 146.776 38.5333 147.789 38.8C148.829 39.04 149.749 39.36 150.549 39.76L149.189 44.24C148.496 43.9467 147.803 43.7333 147.109 43.6C146.443 43.44 145.656 43.36 144.749 43.36C143.069 43.36 141.776 43.8533 140.869 44.84C139.989 45.8 139.549 47.36 139.549 49.52C139.549 50.3733 139.656 51.1733 139.869 51.92C140.083 52.64 140.416 53.28 140.869 53.84C141.323 54.4 141.896 54.84 142.589 55.16C143.283 55.48 144.096 55.64 145.029 55.64C146.149 55.64 147.029 55.5467 147.669 55.36C148.336 55.1467 148.963 54.8667 149.549 54.52L150.829 58.72ZM191.233 64.96H187.033L186.393 60H166.793L166.153 64.96H161.953V54.8H165.193C165.406 54.5067 165.74 53.8667 166.193 52.88C166.646 51.8933 167.1 50.48 167.553 48.64C168.006 46.8 168.393 44.52 168.713 41.8C169.06 39.0533 169.206 35.7867 169.153 32H187.393V54.8H191.233V64.96ZM181.473 54.8V37.2H174.673C174.513 41.7867 174.1 45.5467 173.433 48.48C172.793 51.4133 172.14 53.52 171.473 54.8H181.473ZM208.792 50.52L209.032 46.96L206.512 50.48L198.232 60H194.872V39H200.472V48.88L200.272 51.76H200.752C201.072 51.3067 201.392 50.8267 201.712 50.32C202.059 49.8133 202.392 49.3333 202.712 48.88L211.032 39H214.392V60H208.792V50.52ZM235.986 58.72C235.079 59.3333 233.986 59.8 232.706 60.12C231.452 60.44 230.146 60.6 228.786 60.6C226.972 60.6 225.439 60.3333 224.186 59.8C222.959 59.2667 221.946 58.5067 221.146 57.52C220.372 56.5333 219.812 55.3733 219.466 54.04C219.119 52.68 218.946 51.1733 218.946 49.52C218.946 46.0267 219.799 43.3067 221.506 41.36C223.239 39.3867 225.746 38.4 229.026 38.4C230.626 38.4 231.932 38.5333 232.946 38.8C233.986 39.04 234.906 39.36 235.706 39.76L234.346 44.24C233.652 43.9467 232.959 43.7333 232.266 43.6C231.599 43.44 230.812 43.36 229.906 43.36C228.226 43.36 226.932 43.8533 226.026 44.84C225.146 45.8 224.706 47.36 224.706 49.52C224.706 50.3733 224.812 51.1733 225.026 51.92C225.239 52.64 225.572 53.28 226.026 53.84C226.479 54.4 227.052 54.84 227.746 55.16C228.439 55.48 229.252 55.64 230.186 55.64C231.306 55.64 232.186 55.5467 232.826 55.36C233.492 55.1467 234.119 54.8667 234.706 54.52L235.986 58.72ZM247.706 51.28H245.746V60H240.146V39H245.746V48.08L247.546 47.32L252.906 39H258.946C258.012 40.28 257.092 41.5733 256.186 42.88C255.306 44.16 254.412 45.44 253.506 46.72L250.866 48.48L253.666 50.2C254.679 51.8533 255.706 53.4933 256.746 55.12C257.786 56.72 258.812 58.3467 259.826 60H253.346L247.706 51.28Z" fill="white"/>
<defs>
<filter id="filter0_b_1852_228" x="-100" y="-100" width="470" height="290" filterUnits="userSpaceOnUse" color-interpolation-filters="sRGB">
<feFlood flood-opacity="0" result="BackgroundImageFix"/>
<feGaussianBlur in="BackgroundImageFix" stdDeviation="50"/>
<feComposite in2="SourceAlpha" operator="in" result="effect1_backgroundBlur_1852_228"/>
<feBlend mode="normal" in="SourceGraphic" in2="effect1_backgroundBlur_1852_228" result="shape"/>
</filter>
<linearGradient id="paint0_linear_1852_228" x1="0" y1="0" x2="21.5274" y2="130.872" gradientUnits="userSpaceOnUse">
<stop stop-color="white" stop-opacity="0.3"/>
<stop offset="1" stop-opacity="0.3"/>
</linearGradient>
</defs>
</svg>
