<svg width="270" height="90" viewBox="0 0 270 90" fill="none" xmlns="http://www.w3.org/2000/svg">
<g filter="url(#filter0_b_1852_227)">
<rect width="270" height="90" rx="10" fill="white" fill-opacity="0.05"/>
<rect x="2" y="2" width="266" height="86" rx="8" stroke="url(#paint0_linear_1852_227)" stroke-width="4"/>
</g>
<path d="M22.24 45.28H33.68V57.84C33.0667 58.32 32.3867 58.7333 31.64 59.08C30.92 59.4 30.1467 59.68 29.32 59.92C28.52 60.1333 27.6933 60.2933 26.84 60.4C25.9867 60.5067 25.1467 60.56 24.32 60.56C22.4 60.56 20.6 60.28 18.92 59.72C17.2667 59.16 15.8133 58.2933 14.56 57.12C13.3333 55.92 12.36 54.4 11.64 52.56C10.9467 50.72 10.6 48.5333 10.6 46C10.6 43.36 11.0267 41.12 11.88 39.28C12.7333 37.4133 13.84 35.9067 15.2 34.76C16.5867 33.5867 18.12 32.7467 19.8 32.24C21.5067 31.7067 23.2 31.44 24.88 31.44C26.6133 31.44 28.1333 31.5733 29.44 31.84C30.7733 32.08 31.8133 32.32 32.56 32.56L31.32 37.48C30.6 37.24 29.7867 37.04 28.88 36.88C27.9733 36.72 26.84 36.64 25.48 36.64C24.2267 36.64 23.08 36.8133 22.04 37.16C21 37.48 20.0933 38.0133 19.32 38.76C18.5467 39.5067 17.9467 40.48 17.52 41.68C17.0933 42.88 16.88 44.3333 16.88 46.04C16.88 47.6933 17.0933 49.1067 17.52 50.28C17.9467 51.4533 18.52 52.4267 19.24 53.2C19.9867 53.9467 20.84 54.4933 21.8 54.84C22.76 55.1867 23.7733 55.36 24.84 55.36C25.56 55.36 26.28 55.28 27 55.12C27.7467 54.96 28.3733 54.7067 28.88 54.36V49.52L22.24 48.88V45.28ZM37.1253 49.52C37.1253 46.0533 38.0453 43.3333 39.8853 41.36C41.7253 39.3867 44.352 38.4 47.7653 38.4C49.552 38.4 51.112 38.68 52.4453 39.24C53.7786 39.8 54.8853 40.5867 55.7653 41.6C56.6453 42.5867 57.2986 43.76 57.7253 45.12C58.1786 46.4533 58.4053 47.92 58.4053 49.52C58.4053 51.2267 58.1653 52.7733 57.6853 54.16C57.2053 55.52 56.512 56.68 55.6053 57.64C54.6986 58.6 53.5786 59.3333 52.2453 59.84C50.9386 60.3467 49.4453 60.6 47.7653 60.6C45.952 60.6 44.3786 60.32 43.0453 59.76C41.712 59.2 40.6053 58.4267 39.7253 57.44C38.8453 56.4267 38.192 55.2533 37.7653 53.92C37.3386 52.56 37.1253 51.0933 37.1253 49.52ZM42.8853 49.52C42.8853 50.4 42.9786 51.2267 43.1653 52C43.352 52.7733 43.632 53.4533 44.0053 54.04C44.4053 54.6 44.912 55.0533 45.5253 55.4C46.1386 55.7467 46.8853 55.92 47.7653 55.92C51.0186 55.92 52.6453 53.7867 52.6453 49.52C52.6453 48.5867 52.552 47.7333 52.3653 46.96C52.2053 46.16 51.9253 45.48 51.5253 44.92C51.152 44.3333 50.6453 43.88 50.0053 43.56C49.392 43.24 48.6453 43.08 47.7653 43.08C46.2453 43.08 45.0453 43.5867 44.1653 44.6C43.312 45.6133 42.8853 47.2533 42.8853 49.52ZM61.7738 49.52C61.7738 46.0533 62.6938 43.3333 64.5338 41.36C66.3738 39.3867 69.0004 38.4 72.4138 38.4C74.2004 38.4 75.7604 38.68 77.0938 39.24C78.4271 39.8 79.5338 40.5867 80.4138 41.6C81.2938 42.5867 81.9471 43.76 82.3738 45.12C82.8271 46.4533 83.0538 47.92 83.0538 49.52C83.0538 51.2267 82.8138 52.7733 82.3338 54.16C81.8538 55.52 81.1604 56.68 80.2538 57.64C79.3471 58.6 78.2271 59.3333 76.8938 59.84C75.5871 60.3467 74.0938 60.6 72.4138 60.6C70.6004 60.6 69.0271 60.32 67.6938 59.76C66.3604 59.2 65.2538 58.4267 64.3738 57.44C63.4938 56.4267 62.8404 55.2533 62.4138 53.92C61.9871 52.56 61.7738 51.0933 61.7738 49.52ZM67.5338 49.52C67.5338 50.4 67.6271 51.2267 67.8138 52C68.0004 52.7733 68.2804 53.4533 68.6538 54.04C69.0538 54.6 69.5604 55.0533 70.1738 55.4C70.7871 55.7467 71.5338 55.92 72.4138 55.92C75.6671 55.92 77.2938 53.7867 77.2938 49.52C77.2938 48.5867 77.2004 47.7333 77.0138 46.96C76.8538 46.16 76.5738 45.48 76.1738 44.92C75.8004 44.3333 75.2938 43.88 74.6538 43.56C74.0404 43.24 73.2938 43.08 72.4138 43.08C70.8938 43.08 69.6938 43.5867 68.8138 44.6C67.9604 45.6133 67.5338 47.2533 67.5338 49.52ZM106.622 59.2C106.622 62.2933 105.742 64.5733 103.982 66.04C102.222 67.5067 99.7289 68.24 96.5022 68.24C94.4222 68.24 92.7422 68.0933 91.4622 67.8C90.2089 67.5333 89.2355 67.2267 88.5422 66.88C88.8889 65.8133 89.1422 64.96 89.3022 64.32C89.4889 63.7067 89.6222 63.24 89.7022 62.92C89.7822 62.6 89.8355 62.4 89.8622 62.32C89.8889 62.24 89.9022 62.2 89.9022 62.2C90.5422 62.52 91.3155 62.84 92.2222 63.16C93.1289 63.5067 94.2355 63.68 95.5422 63.68C96.6355 63.68 97.5422 63.5733 98.2622 63.36C98.9822 63.1467 99.5555 62.8267 99.9822 62.4C100.409 62 100.702 61.5067 100.862 60.92C101.049 60.3333 101.142 59.68 101.142 58.96V57.4H100.662C100.129 58.1733 99.3955 58.72 98.4622 59.04C97.5289 59.36 96.3689 59.52 94.9822 59.52C92.1289 59.52 89.9822 58.7333 88.5422 57.16C87.1289 55.5867 86.4222 53.0533 86.4222 49.56C86.4222 45.88 87.3555 43.1067 89.2222 41.24C91.1155 39.3733 93.9155 38.44 97.6222 38.44C99.5689 38.44 101.302 38.5733 102.822 38.84C104.369 39.08 105.636 39.36 106.622 39.68V59.2ZM96.3022 55.16C97.5289 55.16 98.5289 54.9333 99.3022 54.48C100.102 54.0267 100.676 53.4667 101.022 52.8V43.76C100.036 43.3333 98.7822 43.12 97.2622 43.12C95.6355 43.12 94.3822 43.6 93.5022 44.56C92.6222 45.52 92.1822 47.1067 92.1822 49.32C92.1822 51.3467 92.5555 52.8267 93.3022 53.76C94.0489 54.6933 95.0489 55.16 96.3022 55.16ZM118.108 52.64C118.108 54.6667 118.761 55.68 120.068 55.68C120.441 55.68 120.788 55.6533 121.108 55.6C121.454 55.52 121.854 55.4 122.308 55.24L122.988 59.6C122.454 59.84 121.694 60.0667 120.708 60.28C119.748 60.52 118.748 60.64 117.708 60.64C116.028 60.64 114.734 60.2667 113.828 59.52C112.948 58.7733 112.508 57.5467 112.508 55.84V32H118.108V52.64ZM143.824 58.08C142.918 58.7733 141.678 59.3733 140.104 59.88C138.558 60.36 136.891 60.6 135.104 60.6C131.504 60.6 128.864 59.6133 127.184 57.64C125.504 55.6667 124.664 52.96 124.664 49.52C124.664 45.8667 125.611 43.1067 127.504 41.24C129.398 39.3467 132.064 38.4 135.504 38.4C136.624 38.4 137.731 38.5467 138.824 38.84C139.918 39.1067 140.891 39.5733 141.744 40.24C142.598 40.88 143.278 41.76 143.784 42.88C144.318 43.9733 144.584 45.3333 144.584 46.96C144.584 47.52 144.544 48.1333 144.464 48.8C144.411 49.4667 144.304 50.16 144.144 50.88H130.144C130.278 52.6933 130.798 54.04 131.704 54.92C132.638 55.7733 134.144 56.2 136.224 56.2C137.478 56.2 138.598 56.0267 139.584 55.68C140.598 55.3067 141.371 54.9333 141.904 54.56L143.824 58.08ZM135.424 42.8C133.771 42.8 132.544 43.2533 131.744 44.16C130.944 45.04 130.478 46.1733 130.344 47.56H139.384C139.491 46.0933 139.224 44.9333 138.584 44.08C137.944 43.2267 136.891 42.8 135.424 42.8ZM160.389 32C160.976 31.92 161.642 31.8533 162.389 31.8C163.162 31.7467 163.949 31.7067 164.749 31.68C165.576 31.6533 166.376 31.64 167.149 31.64C167.922 31.6133 168.616 31.6 169.229 31.6C171.896 31.6 174.176 31.96 176.069 32.68C177.989 33.3733 179.549 34.3467 180.749 35.6C181.976 36.8533 182.869 38.3467 183.429 40.08C183.989 41.8133 184.269 43.7067 184.269 45.76C184.269 47.6267 183.989 49.44 183.429 51.2C182.896 52.96 182.016 54.5333 180.789 55.92C179.562 57.28 177.962 58.3733 175.989 59.2C174.016 60.0267 171.589 60.44 168.709 60.44C168.256 60.44 167.629 60.4267 166.829 60.4C166.056 60.3733 165.242 60.3333 164.389 60.28C163.562 60.2533 162.776 60.2133 162.029 60.16C161.309 60.1333 160.762 60.0933 160.389 60.04V32ZM169.669 36.8C169.056 36.8 168.429 36.8133 167.789 36.84C167.149 36.84 166.656 36.8667 166.309 36.92V55.08C166.442 55.1067 166.642 55.1333 166.909 55.16C167.202 55.16 167.496 55.1733 167.789 55.2C168.109 55.2 168.402 55.2133 168.669 55.24C168.962 55.24 169.176 55.24 169.309 55.24C171.016 55.24 172.429 54.9733 173.549 54.44C174.669 53.9067 175.549 53.2 176.189 52.32C176.856 51.44 177.322 50.44 177.589 49.32C177.856 48.2 177.989 47.04 177.989 45.84C177.989 44.8533 177.869 43.8267 177.629 42.76C177.389 41.6933 176.949 40.72 176.309 39.84C175.696 38.96 174.856 38.24 173.789 37.68C172.722 37.0933 171.349 36.8 169.669 36.8ZM201.155 44.12C200.355 43.8533 199.555 43.72 198.755 43.72C197.582 43.72 196.608 44 195.835 44.56C195.088 45.12 194.595 45.8267 194.355 46.68V60H188.755V39H193.155L193.755 41.92H194.275C194.808 40.8267 195.515 39.9867 196.395 39.4C197.302 38.8133 198.328 38.52 199.475 38.52C200.195 38.52 201.022 38.6667 201.955 38.96L201.155 44.12ZM205.685 39H211.285V60H205.685V39ZM204.845 33.76C204.845 32.9067 205.152 32.2 205.765 31.64C206.378 31.0533 207.245 30.76 208.365 30.76C209.512 30.76 210.418 31.0533 211.085 31.64C211.752 32.2267 212.085 32.9333 212.085 33.76C212.085 34.5333 211.752 35.2 211.085 35.76C210.418 36.32 209.512 36.6 208.365 36.6C207.245 36.6 206.378 36.32 205.765 35.76C205.152 35.2 204.845 34.5333 204.845 33.76ZM225.1 49.88L225.94 53.12H226.58L227.18 49.8L231.1 39H237.14L227.54 60.2H224.34L214.34 39H220.86L225.1 49.88ZM257.184 58.08C256.277 58.7733 255.037 59.3733 253.464 59.88C251.917 60.36 250.25 60.6 248.464 60.6C244.864 60.6 242.224 59.6133 240.544 57.64C238.864 55.6667 238.024 52.96 238.024 49.52C238.024 45.8667 238.97 43.1067 240.864 41.24C242.757 39.3467 245.424 38.4 248.864 38.4C249.984 38.4 251.09 38.5467 252.184 38.84C253.277 39.1067 254.25 39.5733 255.104 40.24C255.957 40.88 256.637 41.76 257.144 42.88C257.677 43.9733 257.944 45.3333 257.944 46.96C257.944 47.52 257.904 48.1333 257.824 48.8C257.77 49.4667 257.664 50.16 257.504 50.88H243.504C243.637 52.6933 244.157 54.04 245.064 54.92C245.997 55.7733 247.504 56.2 249.584 56.2C250.837 56.2 251.957 56.0267 252.944 55.68C253.957 55.3067 254.73 54.9333 255.264 54.56L257.184 58.08ZM248.784 42.8C247.13 42.8 245.904 43.2533 245.104 44.16C244.304 45.04 243.837 46.1733 243.704 47.56H252.744C252.85 46.0933 252.584 44.9333 251.944 44.08C251.304 43.2267 250.25 42.8 248.784 42.8Z" fill="white"/>
<defs>
<filter id="filter0_b_1852_227" x="-100" y="-100" width="470" height="290" filterUnits="userSpaceOnUse" color-interpolation-filters="sRGB">
<feFlood flood-opacity="0" result="BackgroundImageFix"/>
<feGaussianBlur in="BackgroundImageFix" stdDeviation="50"/>
<feComposite in2="SourceAlpha" operator="in" result="effect1_backgroundBlur_1852_227"/>
<feBlend mode="normal" in="SourceGraphic" in2="effect1_backgroundBlur_1852_227" result="shape"/>
</filter>
<linearGradient id="paint0_linear_1852_227" x1="0" y1="0" x2="21.5274" y2="130.872" gradientUnits="userSpaceOnUse">
<stop stop-color="white" stop-opacity="0.3"/>
<stop offset="1" stop-opacity="0.3"/>
</linearGradient>
</defs>
</svg>
