<svg width="273" height="73" viewBox="0 0 273 73" fill="none" xmlns="http://www.w3.org/2000/svg">
<path d="M37.2656 14.3636L39.238 14.6951L39.6298 12.3636H37.2656V14.3636ZM35.9872 21.9702V23.9702H37.6791L37.9596 22.3017L35.9872 21.9702ZM16.2571 21.9702V19.9702H14.561L14.284 21.6435L16.2571 21.9702ZM10.2912 58V60H11.9873L12.2643 58.3267L10.2912 58ZM1.06534 58L-0.907655 57.6725L-1.29406 60H1.06534V58ZM8.30966 14.3636V12.3636H6.61432L6.33666 14.0361L8.30966 14.3636ZM35.2933 14.0321L34.0149 21.6387L37.9596 22.3017L39.238 14.6951L35.2933 14.0321ZM35.9872 19.9702H16.2571V23.9702H35.9872V19.9702ZM14.284 21.6435L8.31806 57.6733L12.2643 58.3267L18.2302 22.2969L14.284 21.6435ZM10.2912 56H1.06534V60H10.2912V56ZM3.03834 58.3275L10.2827 14.6912L6.33666 14.0361L-0.907655 57.6725L3.03834 58.3275ZM8.30966 16.3636H37.2656V12.3636H8.30966V16.3636ZM38.1179 58V60H39.3624L39.9122 58.8835L38.1179 58ZM28.2315 58L26.4508 57.0896L24.9629 60H28.2315V58ZM50.5398 14.3636V12.3636H49.316L48.759 13.4532L50.5398 14.3636ZM62.429 14.3636L64.3978 14.0118L64.1032 12.3636H62.429V14.3636ZM70.2273 58V60H72.6164L72.1961 57.6482L70.2273 58ZM60.3409 58L58.3653 58.3113L58.6314 60H60.3409V58ZM55.0355 24.3352L57.0111 24.0239L56.745 22.3352H55.0355V24.3352ZM54.6946 24.3352V22.3352H53.4501L52.9003 23.4517L54.6946 24.3352ZM40.3764 40.848V38.848H38.6904L38.4052 40.5098L40.3764 40.848ZM63.7287 40.848L65.6999 41.1863L66.1011 38.848H63.7287V40.848ZM62.4929 48.0497V50.0497H64.1789L64.4641 48.388L62.4929 48.0497ZM39.1406 48.0497L37.1694 47.7115L36.7682 50.0497H39.1406V48.0497ZM38.1179 56H28.2315V60H38.1179V56ZM30.0123 58.9104L52.3206 15.274L48.759 13.4532L26.4508 57.0896L30.0123 58.9104ZM50.5398 16.3636H62.429V12.3636H50.5398V16.3636ZM60.4602 14.7155L68.2585 58.3518L72.1961 57.6482L64.3978 14.0118L60.4602 14.7155ZM70.2273 56H60.3409V60H70.2273V56ZM62.3165 57.6887L57.0111 24.0239L53.0599 24.6466L58.3653 58.3113L62.3165 57.6887ZM55.0355 22.3352H54.6946V26.3352H55.0355V22.3352ZM52.9003 23.4517L36.3236 57.1165L39.9122 58.8835L56.4889 25.2187L52.9003 23.4517ZM40.3764 42.848H63.7287V38.848H40.3764V42.848ZM61.7575 40.5098L60.5217 47.7115L64.4641 48.388L65.6999 41.1863L61.7575 40.5098ZM62.4929 46.0497H39.1406V50.0497H62.4929V46.0497ZM41.1118 48.388L42.3476 41.1863L38.4052 40.5098L37.1694 47.7115L41.1118 48.388ZM73.1143 58L71.1425 57.6657L70.7467 60H73.1143V58ZM74.3714 50.5852L74.1997 48.5926L72.6582 48.7255L72.3996 50.2509L74.3714 50.5852ZM75.6072 50.4787L75.4512 48.4848L75.4433 48.4854L75.4355 48.4861L75.6072 50.4787ZM79.7834 48.6676L81.1519 50.1261L81.1524 50.1256L79.7834 48.6676ZM82.8516 43.4474L84.7279 44.1399L84.7292 44.1363L82.8516 43.4474ZM85.3658 33.7741L83.4062 33.3741L83.4047 33.3813L83.4033 33.3885L85.3658 33.7741ZM89.3288 14.3636V12.3636H87.6959L87.3693 13.9635L89.3288 14.3636ZM118.945 14.3636L120.918 14.6912L121.305 12.3636H118.945V14.3636ZM111.701 58V60H113.396L113.674 58.3275L111.701 58ZM102.731 58L100.758 57.6729L100.372 60H102.731V58ZM108.739 21.7571L110.712 22.0842L111.098 19.7571H108.739V21.7571ZM96.6584 21.7571V19.7571H95.0376L94.7018 21.3427L96.6584 21.7571ZM93.4411 36.9489L91.4844 36.5345L91.4835 36.5391L93.4411 36.9489ZM89.7337 48.9233L91.5452 49.7709L91.5452 49.7709L89.7337 48.9233ZM84.1513 55.7841L83.0613 54.1072L83.0565 54.1103L84.1513 55.7841ZM75.0862 58.3343L76.3433 50.9195L72.3996 50.2509L71.1425 57.6657L75.0862 58.3343ZM74.5432 52.5778L75.779 52.4713L75.4355 48.4861L74.1997 48.5926L74.5432 52.5778ZM75.7633 52.4726C77.8312 52.3108 79.6562 51.5295 81.1519 50.1261L78.4149 47.2091C77.6094 47.9649 76.6504 48.3909 75.4512 48.4848L75.7633 52.4726ZM81.1524 50.1256C82.6386 48.7301 83.7966 46.6633 84.7279 44.1399L80.9753 42.755C80.1451 45.0044 79.2577 46.4177 78.4143 47.2096L81.1524 50.1256ZM84.7292 44.1363C85.6612 41.5959 86.5232 38.2568 87.3282 34.1598L83.4033 33.3885C82.6174 37.388 81.8033 40.4978 80.9739 42.7586L84.7292 44.1363ZM87.3253 34.1742L91.2884 14.7637L87.3693 13.9635L83.4062 33.3741L87.3253 34.1742ZM89.3288 16.3636H118.945V12.3636H89.3288V16.3636ZM116.972 14.0361L109.728 57.6725L113.674 58.3275L120.918 14.6912L116.972 14.0361ZM111.701 56H102.731V60H111.701V56ZM104.704 58.3271L110.712 22.0842L106.766 21.43L100.758 57.6729L104.704 58.3271ZM108.739 19.7571H96.6584V23.7571H108.739V19.7571ZM94.7018 21.3427L91.4844 36.5345L95.3977 37.3632L98.615 22.1715L94.7018 21.3427ZM91.4835 36.5391C90.4793 41.3368 89.2832 45.1668 87.9221 48.0757L91.5452 49.7709C93.0819 46.4866 94.3573 42.3336 95.3986 37.3586L91.4835 36.5391ZM87.9221 48.0757C86.5906 50.9216 84.9485 52.8805 83.0613 54.1072L85.2413 57.461C87.8995 55.7331 89.979 53.1182 91.5452 49.7709L87.9221 48.0757ZM83.0565 54.1103C81.208 55.3194 78.7355 56 75.5007 56V60C79.283 60 82.5775 59.2033 85.2461 57.4578L83.0565 54.1103ZM75.5007 56H73.1143V60H75.5007V56ZM119.308 58L117.335 57.6725L116.948 60H119.308V58ZM126.552 14.3636V12.3636H124.857L124.579 14.0361L126.552 14.3636ZM155.955 14.3636L157.928 14.6951L158.319 12.3636H155.955V14.3636ZM154.677 21.9702V23.9702H156.369L156.649 22.3017L154.677 21.9702ZM134.499 21.9702V19.9702H132.8L132.526 21.6466L134.499 21.9702ZM132.795 32.3679L130.821 32.0443L130.44 34.3679H132.795V32.3679ZM151.46 32.3679L153.432 32.6994L153.824 30.3679H151.46V32.3679ZM150.181 39.9744V41.9744H151.873L152.153 40.3059L150.181 39.9744ZM131.516 39.9744V37.9744H129.817L129.543 39.6515L131.516 39.9744ZM129.812 50.3935L127.838 50.0706L127.458 52.3935H129.812V50.3935ZM150.075 50.3935L152.047 50.725L152.439 48.3935H150.075V50.3935ZM148.796 58V60H150.488L150.769 58.3315L148.796 58ZM121.281 58.3275L128.525 14.6912L124.579 14.0361L117.335 57.6725L121.281 58.3275ZM126.552 16.3636H155.955V12.3636H126.552V16.3636ZM153.983 14.0321L152.705 21.6387L156.649 22.3017L157.928 14.6951L153.983 14.0321ZM154.677 19.9702H134.499V23.9702H154.677V19.9702ZM132.526 21.6466L130.821 32.0443L134.768 32.6914L136.473 22.2937L132.526 21.6466ZM132.795 34.3679H151.46V30.3679H132.795V34.3679ZM149.487 32.0364L148.209 39.6429L152.153 40.3059L153.432 32.6994L149.487 32.0364ZM150.181 37.9744H131.516V41.9744H150.181V37.9744ZM129.543 39.6515L127.838 50.0706L131.786 50.7164L133.49 40.2973L129.543 39.6515ZM129.812 52.3935H150.075V48.3935H129.812V52.3935ZM148.102 50.062L146.824 57.6685L150.769 58.3315L152.047 50.725L148.102 50.062ZM148.796 56H119.308V60H148.796V56ZM156.046 58L154.073 57.6725L153.686 60H156.046V58ZM163.29 14.3636V12.3636H161.595L161.317 14.0361L163.29 14.3636ZM188.624 16.2599L187.598 17.977L187.605 17.981L187.612 17.985L188.624 16.2599ZM193.098 21.4801L191.23 22.1941L191.233 22.2013L191.236 22.2085L193.098 21.4801ZM193.695 29.1506L195.668 29.4778L195.669 29.4699L193.695 29.1506ZM190.542 36.8423L188.927 35.6623L188.925 35.6641L190.542 36.8423ZM184.277 41.9986L185.144 43.8012L185.144 43.8012L184.277 41.9986ZM164.398 43.8523L162.425 43.5281L162.043 45.8523H164.398V43.8523ZM165.613 36.4588V34.4588H163.914L163.639 36.1346L165.613 36.4588ZM179.675 35.5426L180.545 37.3435L180.553 37.3394L179.675 35.5426ZM182.722 32.9645L184.369 34.0985L184.376 34.0885L182.722 32.9645ZM184.192 29.1506L182.219 28.8249L182.217 28.8376L184.192 29.1506ZM183.958 25.3366L185.834 24.6452L185.834 24.6452L183.958 25.3366ZM181.763 22.8224L180.758 24.5517L180.772 24.5597L180.786 24.5675L181.763 22.8224ZM171.301 21.9062V19.9062H169.608L169.329 21.5767L171.301 21.9062ZM165.272 58V60H166.965L167.244 58.3296L165.272 58ZM158.019 58.3275L165.263 14.6912L161.317 14.0361L154.073 57.6725L158.019 58.3275ZM163.29 16.3636H180.506V12.3636H163.29V16.3636ZM180.506 16.3636C183.558 16.3636 185.879 16.9503 187.598 17.977L189.65 14.5429C187.135 13.0412 184.045 12.3636 180.506 12.3636V16.3636ZM187.612 17.985C189.365 19.0137 190.546 20.4042 191.23 22.1941L194.967 20.7661C193.946 18.0958 192.144 16.0062 189.636 14.5349L187.612 17.985ZM191.236 22.2085C191.945 24.0217 192.146 26.2044 191.721 28.8312L195.669 29.4699C196.182 26.3013 195.985 23.3703 194.961 20.7518L191.236 22.2085ZM191.722 28.8233C191.286 31.4507 190.348 33.7175 188.927 35.6623L192.156 38.0224C193.974 35.5353 195.138 32.6743 195.668 29.4778L191.722 28.8233ZM188.925 35.6641C187.524 37.5863 185.699 39.0963 183.411 40.196L185.144 43.8012C187.998 42.4293 190.349 40.5017 192.158 38.0205L188.925 35.6641ZM183.411 40.196C181.155 41.2805 178.491 41.8523 175.371 41.8523V45.8523C178.984 45.8523 182.258 45.1883 185.144 43.8012L183.411 40.196ZM175.371 41.8523H164.398V45.8523H175.371V41.8523ZM166.372 44.1765L167.586 36.783L163.639 36.1346L162.425 43.5281L166.372 44.1765ZM165.613 38.4588H175.094V34.4588H165.613V38.4588ZM175.094 38.4588C177.105 38.4588 178.946 38.1162 180.545 37.3434L178.805 33.7418C177.876 34.1906 176.663 34.4588 175.094 34.4588V38.4588ZM180.553 37.3394C182.118 36.5745 183.408 35.4959 184.369 34.0985L181.074 31.8305C180.531 32.6206 179.789 33.2608 178.797 33.7458L180.553 37.3394ZM184.376 34.0885C185.308 32.7171 185.898 31.164 186.167 29.4635L182.217 28.8376C182.032 30.0065 181.642 30.996 181.068 31.8404L184.376 34.0885ZM186.165 29.4763C186.447 27.7679 186.382 26.1305 185.834 24.6452L182.081 26.0281C182.329 26.7018 182.42 27.6071 182.219 28.8249L186.165 29.4763ZM185.834 24.6452C185.261 23.0897 184.194 21.8914 182.74 21.0774L180.786 24.5675C181.463 24.9467 181.859 25.4245 182.081 26.0281L185.834 24.6452ZM182.768 21.0932C181.303 20.2417 179.5 19.9062 177.523 19.9062V23.9062C179.098 23.9062 180.121 24.1816 180.758 24.5517L182.768 21.0932ZM177.523 19.9062H171.301V23.9062H177.523V19.9062ZM169.329 21.5767L163.299 57.6704L167.244 58.3296L173.274 22.2358L169.329 21.5767ZM165.272 56H156.046V60H165.272V56ZM194.893 58L192.92 57.6725L192.534 60H194.893V58ZM202.138 14.3636V12.3636H200.442L200.165 14.0361L202.138 14.3636ZM231.541 14.3636L233.514 14.6951L233.905 12.3636H231.541V14.3636ZM230.263 21.9702V23.9702H231.955L232.235 22.3017L230.263 21.9702ZM210.085 21.9702V19.9702H208.386L208.112 21.6466L210.085 21.9702ZM208.381 32.3679L206.407 32.0443L206.026 34.3679H208.381V32.3679ZM227.045 32.3679L229.018 32.6994L229.41 30.3679H227.045V32.3679ZM225.767 39.9744V41.9744H227.459L227.739 40.3059L225.767 39.9744ZM207.102 39.9744V37.9744H205.403L205.129 39.6515L207.102 39.9744ZM205.398 50.3935L203.424 50.0706L203.044 52.3935H205.398V50.3935ZM225.661 50.3935L227.633 50.725L228.025 48.3935H225.661V50.3935ZM224.382 58V60H226.074L226.354 58.3315L224.382 58ZM196.866 58.3275L204.111 14.6912L200.165 14.0361L192.92 57.6725L196.866 58.3275ZM202.138 16.3636H231.541V12.3636H202.138V16.3636ZM229.569 14.0321L228.29 21.6387L232.235 22.3017L233.514 14.6951L229.569 14.0321ZM230.263 19.9702H210.085V23.9702H230.263V19.9702ZM208.112 21.6466L206.407 32.0443L210.354 32.6914L212.059 22.2937L208.112 21.6466ZM208.381 34.3679H227.045V30.3679H208.381V34.3679ZM225.073 32.0364L223.795 39.6429L227.739 40.3059L229.018 32.6994L225.073 32.0364ZM225.767 37.9744H207.102V41.9744H225.767V37.9744ZM205.129 39.6515L203.424 50.0706L207.371 50.7164L209.076 40.2973L205.129 39.6515ZM205.398 52.3935H225.661V48.3935H205.398V52.3935ZM223.688 50.062L222.41 57.6685L226.354 58.3315L227.633 50.725L223.688 50.062ZM224.382 56H194.893V60H224.382V56ZM265.083 58V60H266.78L267.057 58.3266L265.083 58ZM255.858 58L253.885 57.6727L253.499 60H255.858V58ZM261.845 21.9062L263.818 22.2335L264.204 19.9062H261.845V21.9062ZM251.064 22.6946L251.821 24.5457L251.831 24.5414L251.064 22.6946ZM248.059 24.9531L246.465 23.7459L246.459 23.7531L246.454 23.7605L248.059 24.9531ZM246.589 28.6179L244.616 28.2891L244.615 28.297L244.614 28.305L246.589 28.6179ZM246.866 32.2188L245.026 33.0033L245.031 33.0147L245.036 33.026L246.866 32.2188ZM249.125 34.392L248.308 36.2177L248.317 36.2216L249.125 34.392ZM263.422 35.1165L265.394 35.4453L265.782 33.1165H263.422V35.1165ZM262.186 42.5312V44.5312H263.88L264.159 42.86L262.186 42.5312ZM242.37 40.8693L241.462 42.6511L241.467 42.6535L242.37 40.8693ZM237.747 36.0966L235.913 36.895L235.915 36.8995L237.747 36.0966ZM237.086 28.6179L235.115 28.2781L235.114 28.2883L235.112 28.2985L237.086 28.6179ZM240.197 21.0966L238.591 19.9051L238.589 19.9069L240.197 21.0966ZM246.376 16.1321L247.213 17.9486L247.221 17.9447L246.376 16.1321ZM272.306 14.3636L274.28 14.6902L274.665 12.3636H272.306V14.3636ZM244.821 38.142V36.142H243.789L243.191 36.9827L244.821 38.142ZM254.771 38.142L256.409 39.2897L258.614 36.142H254.771V38.142ZM240.858 58V60H241.898L242.496 59.1476L240.858 58ZM230.694 58L229.065 56.8407L226.817 60H230.694V58ZM265.083 56H255.858V60H265.083V56ZM257.831 58.3273L263.818 22.2335L259.872 21.579L253.885 57.6727L257.831 58.3273ZM261.845 19.9062H255.623V23.9062H261.845V19.9062ZM255.623 19.9062C253.659 19.9062 251.864 20.1959 250.296 20.8478L251.831 24.5414C252.792 24.1421 254.037 23.9062 255.623 23.9062V19.9062ZM250.306 20.8435C248.753 21.4789 247.452 22.4422 246.465 23.7459L249.654 26.1604C250.172 25.4754 250.874 24.933 251.821 24.5457L250.306 20.8435ZM246.454 23.7605C245.494 25.0528 244.9 26.5851 244.616 28.2891L248.562 28.9467C248.761 27.753 249.148 26.8421 249.665 26.1458L246.454 23.7605ZM244.614 28.305C244.349 29.9741 244.421 31.5831 245.026 33.0033L248.706 31.4342C248.488 30.9226 248.374 30.131 248.565 28.9308L244.614 28.305ZM245.036 33.026C245.687 34.5005 246.835 35.5586 248.308 36.2177L249.941 32.5664C249.255 32.2596 248.898 31.8688 248.696 31.4115L245.036 33.026ZM248.317 36.2216C249.756 36.8571 251.488 37.1165 253.407 37.1165V33.1165C251.804 33.1165 250.681 32.8929 249.933 32.5625L248.317 36.2216ZM253.407 37.1165H263.422V33.1165H253.407V37.1165ZM261.449 34.7877L260.213 42.2025L264.159 42.86L265.394 35.4453L261.449 34.7877ZM262.186 40.5312H250.659V44.5312H262.186V40.5312ZM250.659 40.5312C247.527 40.5312 245.099 40.0094 243.274 39.0851L241.467 42.6535C244.017 43.9451 247.114 44.5312 250.659 44.5312V40.5312ZM243.279 39.0875C241.483 38.172 240.287 36.9105 239.579 35.2936L235.915 36.8995C237.024 39.4304 238.911 41.3507 241.462 42.6511L243.279 39.0875ZM239.581 35.2982C238.863 33.65 238.636 31.5646 239.061 28.9373L235.112 28.2985C234.599 31.4666 234.812 34.3671 235.913 36.895L239.581 35.2982ZM239.057 28.9577C239.507 26.3495 240.432 24.1407 241.805 22.2863L238.589 19.9069C236.808 22.3138 235.66 25.1193 235.115 28.2781L239.057 28.9577ZM241.803 22.2881C243.186 20.4244 244.976 18.9791 247.213 17.9486L245.539 14.3156C242.719 15.6146 240.39 17.479 238.591 19.9051L241.803 22.2881ZM247.221 17.9447C249.441 16.9095 252.056 16.3636 255.112 16.3636V12.3636C251.577 12.3636 248.368 12.9967 245.531 14.3195L247.221 17.9447ZM255.112 16.3636H272.306V12.3636H255.112V16.3636ZM270.333 14.037L263.11 57.6734L267.057 58.3266L274.28 14.6902L270.333 14.037ZM244.821 40.142H254.771V36.142H244.821V40.142ZM253.133 36.9944L239.22 56.8524L242.496 59.1476L256.409 39.2897L253.133 36.9944ZM240.858 56H230.694V60H240.858V56ZM232.324 59.1593L246.45 39.3014L243.191 36.9827L229.065 56.8407L232.324 59.1593Z" fill="url(#paint0_linear_1851_56)"/>
<path d="M32.7486 14.3636V21.9702H13.0185V58H3.79261V14.3636H32.7486ZM40.8452 58H30.9588L46.0227 14.3636H57.9119L72.9545 58H63.0682L52.1378 24.3352H51.7969L40.8452 58ZM40.2273 40.848H63.5795V48.0497H40.2273V40.848ZM75.8416 58V50.5852L77.0774 50.4787C78.6683 50.3509 79.9538 49.7472 80.9339 48.6676C81.9141 47.5739 82.6456 45.8338 83.1286 43.4474C83.6257 41.0469 83.9453 37.8224 84.0874 33.7741L84.8118 14.3636H114.428V58H105.458V21.7571H93.3771L92.6953 36.9489C92.468 41.8352 91.8857 45.8267 90.9482 48.9233C90.0249 52.0199 88.5476 54.3068 86.5163 55.7841C84.4993 57.2614 81.7365 58 78.228 58H75.8416ZM122.035 58V14.3636H151.438V21.9702H131.261V32.3679H149.925V39.9744H131.261V50.3935H151.523V58H122.035ZM158.773 58V14.3636H175.989C179.299 14.3636 182.118 14.9957 184.448 16.2599C186.777 17.5099 188.553 19.25 189.775 21.4801C191.01 23.696 191.628 26.2528 191.628 29.1506C191.628 32.0483 191.003 34.6051 189.753 36.821C188.503 39.0369 186.692 40.7628 184.32 41.9986C181.962 43.2344 179.107 43.8523 175.755 43.8523H164.782V36.4588H174.263C176.039 36.4588 177.502 36.1534 178.652 35.5426C179.817 34.9176 180.684 34.0582 181.252 32.9645C181.834 31.8565 182.125 30.5852 182.125 29.1506C182.125 27.7017 181.834 26.4375 181.252 25.358C180.684 24.2642 179.817 23.419 178.652 22.8224C177.488 22.2116 176.01 21.9062 174.221 21.9062H167.999V58H158.773ZM197.621 58V14.3636H227.024V21.9702H206.847V32.3679H225.511V39.9744H206.847V50.3935H227.109V58H197.621ZM267.853 58H258.649V21.9062H252.427C250.652 21.9062 249.174 22.169 247.995 22.6946C246.831 23.206 245.957 23.9588 245.375 24.9531C244.792 25.9474 244.501 27.169 244.501 28.6179C244.501 30.0526 244.792 31.2528 245.375 32.2188C245.957 33.1847 246.831 33.9091 247.995 34.392C249.16 34.875 250.623 35.1165 252.385 35.1165H262.399V42.5312H250.893C247.555 42.5312 244.7 41.9773 242.328 40.8693C239.956 39.7614 238.145 38.1705 236.895 36.0966C235.645 34.0085 235.02 31.5156 235.02 28.6179C235.02 25.7344 235.63 23.2273 236.852 21.0966C238.088 18.9517 239.87 17.2969 242.2 16.1321C244.544 14.9531 247.363 14.3636 250.659 14.3636H267.853V58ZM244.309 38.142H254.26L243.649 58H233.464L244.309 38.142Z" fill="white"/>
<defs>
<linearGradient id="paint0_linear_1851_56" x1="1.80507e-07" y1="36.9999" x2="272" y2="36.9999" gradientUnits="userSpaceOnUse">
<stop stop-color="#8D72E1"/>
<stop offset="1" stop-color="#8D9EFF"/>
</linearGradient>
</defs>
</svg>
